STARTFONT 2.1
COMMENT
COMMENT Converted from TrueType font "verdana.ttf" by "ttf2bdf 2.6".
COMMENT
FONT -FreeType-Verdana-Medium-R-Normal--22-160-100-100-P-119-ISO10646-1
SIZE 16 100 100
FONTBOUNDINGBOX 33 26 -1 -4
STARTPROPERTIES 20
FOUNDRY "FreeType"
FAMILY_NAME "Verdana"
WEIGHT_NAME "Medium"
SLANT "R"
SETWIDTH_NAME "Normal"
ADD_STYLE_NAME ""
PIXEL_SIZE 22
POINT_SIZE 160
RESOLUTION_X 100
RESOLUTION_Y 100
SPACING "P"
AVERAGE_WIDTH 119
CHARSET_REGISTRY "ISO10646"
CHARSET_ENCODING "1"
FONT_ASCENT 22
FONT_DESCENT 4
COPYRIGHT "Typeface and data © 1996 Microsoft Corporation. All Rights Reserved"
_TTF_FONTFILE "verdana.ttf"
_TTF_PSNAME "Verdana"
_XFREE86_GLYPH_RANGES "32_126 160_383 402 416_417 431_432 506_511 710_711 713 728_733 768_769 771 777 803 894 900_906 908 910_929 931_974 1025_1036 1038_1103 1105_1116 1118_1119 1168_1169 7808_7813 7840_7929 8211_8213 8215_8222 8224_8226 8230 8240 8242_8243 8249_8250 8252 8254 8260 8319 8355_8356 8359 8363_8364 8453 8467 8470 8482 8486 8494 8539_8542 8706 8710 8719 8721_8722 8725 8729_8730 8734 8747 8776 8800 8804_8805 9633 9642_9643 9674 9679 9702 61441_61442 61444_61453 64257_64258"
ENDPROPERTIES
CHARS 680
STARTCHAR 0020
ENCODING 32
SWIDTH 360 0
DWIDTH 8 0
BBX 1 1 0 0
BITMAP
00
ENDCHAR
STARTCHAR 0021
ENCODING 33
SWIDTH 405 0
DWIDTH 9 0
BBX 2 16 3 0
BITMAP
C0
C0
C0
C0
C0
C0
C0
C0
C0
C0
C0
C0
00
00
C0
C0
ENDCHAR
STARTCHAR 0022
ENCODING 34
SWIDTH 450 0
DWIDTH 10 0
BBX 6 6 2 11
BITMAP
CC
CC
CC
CC
CC
CC
ENDCHAR
STARTCHAR 0023
ENCODING 35
SWIDTH 810 0
DWIDTH 18 0
BBX 14 16 2 0
BITMAP
0210
0210
0420
0420
0420
7FFC
0840
0840
0840
0840
FFF8
1080
1080
1080
2100
2100
ENDCHAR
STARTCHAR 0024
ENCODING 36
SWIDTH 630 0
DWIDTH 14 0
BBX 11 21 1 -4
BITMAP
0400
0400
0400
1F80
7FC0
E440
C400
C400
E400
7F00
0FC0
04E0
0460
0460
C4E0
FFC0
7F00
0400
0400
0400
0400
ENDCHAR
STARTCHAR 0025
ENCODING 37
SWIDTH 1080 0
DWIDTH 24 0
BBX 20 16 2 0
BITMAP
3C0600
7E0C00
E70C00
C31800
C31800
C33000
E73000
7E63C0
3C67E0
00CE70
00CC30
018C30
018C30
030C70
0307E0
0603C0
ENDCHAR
STARTCHAR 0026
ENCODING 38
SWIDTH 720 0
DWIDTH 16 0
BBX 16 16 1 0
BITMAP
1F00
3F80
71C0
60C0
60C0
3180
1F18
3E18
6318
C1D8
C0F0
C070
C078
F0FC
7FCE
1F07
ENDCHAR
STARTCHAR 0027
ENCODING 39
SWIDTH 270 0
DWIDTH 6 0
BBX 2 6 2 11
BITMAP
C0
C0
C0
C0
C0
C0
ENDCHAR
STARTCHAR 0028
ENCODING 40
SWIDTH 450 0
DWIDTH 10 0
BBX 6 21 2 -4
BITMAP
1C
18
30
30
60
60
E0
C0
C0
C0
C0
C0
C0
C0
E0
60
60
70
30
18
1C
ENDCHAR
STARTCHAR 0029
ENCODING 41
SWIDTH 450 0
DWIDTH 10 0
BBX 6 21 2 -4
BITMAP
E0
60
30
30
18
18
1C
0C
0C
0C
0C
0C
0C
0C
1C
18
18
38
30
60
E0
ENDCHAR
STARTCHAR 002A
ENCODING 42
SWIDTH 630 0
DWIDTH 14 0
BBX 11 10 1 7
BITMAP
0400
0400
C460
75C0
1F00
1F00
75C0
C460
0400
0400
ENDCHAR
STARTCHAR 002B
ENCODING 43
SWIDTH 810 0
DWIDTH 18 0
BBX 14 14 2 0
BITMAP
0300
0300
0300
0300
0300
0300
FFFC
FFFC
0300
0300
0300
0300
0300
0300
ENDCHAR
STARTCHAR 002C
ENCODING 44
SWIDTH 360 0
DWIDTH 8 0
BBX 5 7 2 -4
BITMAP
38
30
70
60
60
C0
C0
ENDCHAR
STARTCHAR 002D
ENCODING 45
SWIDTH 450 0
DWIDTH 10 0
BBX 7 2 2 6
BITMAP
FE
FE
ENDCHAR
STARTCHAR 002E
ENCODING 46
SWIDTH 360 0
DWIDTH 8 0
BBX 3 3 3 0
BITMAP
E0
E0
E0
ENDCHAR
STARTCHAR 002F
ENCODING 47
SWIDTH 450 0
DWIDTH 10 0
BBX 10 20 0 -3
BITMAP
00C0
0180
0180
0380
0300
0300
0600
0600
0E00
0C00
0C00
1800
1800
1800
3000
3000
7000
6000
6000
C000
ENDCHAR
STARTCHAR 0030
ENCODING 48
SWIDTH 630 0
DWIDTH 14 0
BBX 11 16 1 0
BITMAP
1F00
3F80
71C0
60C0
C060
C060
C060
C060
C060
C060
C060
C060
60C0
71C0
3F80
1F00
ENDCHAR
STARTCHAR 0031
ENCODING 49
SWIDTH 630 0
DWIDTH 14 0
BBX 8 16 3 0
BITMAP
18
18
F8
F8
18
18
18
18
18
18
18
18
18
18
FF
FF
ENDCHAR
STARTCHAR 0032
ENCODING 50
SWIDTH 630 0
DWIDTH 14 0
BBX 10 16 2 0
BITMAP
7E00
FF00
8380
0180
0180
0180
0180
0300
0600
0E00
1C00
3800
7000
E000
FFC0
FFC0
ENDCHAR
STARTCHAR 0033
ENCODING 51
SWIDTH 630 0
DWIDTH 14 0
BBX 10 16 2 0
BITMAP
7F00
FF80
C1C0
00C0
00C0
0180
0F00
0F00
0180
00C0
00C0
00C0
00C0
8180
FF80
7E00
ENDCHAR
STARTCHAR 0034
ENCODING 52
SWIDTH 630 0
DWIDTH 14 0
BBX 12 16 1 0
BITMAP
00C0
01C0
03C0
07C0
0EC0
1CC0
38C0
70C0
E0C0
FFF0
FFF0
00C0
00C0
00C0
00C0
00C0
ENDCHAR
STARTCHAR 0035
ENCODING 53
SWIDTH 630 0
DWIDTH 14 0
BBX 10 16 2 0
BITMAP
7FC0
7FC0
6000
6000
6000
6000
7F00
7F80
01C0
00C0
00C0
00C0
00C0
8180
FF80
7E00
ENDCHAR
STARTCHAR 0036
ENCODING 54
SWIDTH 630 0
DWIDTH 14 0
BBX 11 16 1 0
BITMAP
0F80
1F80
3800
6000
6000
C000
DF00
FFC0
E0E0
C060
C060
C060
6060
70C0
3F80
1F00
ENDCHAR
STARTCHAR 0037
ENCODING 55
SWIDTH 630 0
DWIDTH 14 0
BBX 11 16 2 0
BITMAP
FFE0
FFE0
0060
0060
00C0
01C0
0180
0300
0300
0600
0E00
0C00
1800
1800
3000
7000
ENDCHAR
STARTCHAR 0038
ENCODING 56
SWIDTH 630 0
DWIDTH 14 0
BBX 11 16 1 0
BITMAP
1F00
7FC0
E0E0
C060
C060
E060
79C0
1F00
63C0
C0E0
C060
C060
C060
60C0
7FC0
1F00
ENDCHAR
STARTCHAR 0039
ENCODING 57
SWIDTH 630 0
DWIDTH 14 0
BBX 11 16 1 0
BITMAP
1F00
3F80
61C0
C0C0
C060
C060
C060
E0E0
7FE0
1F60
0060
00C0
00C0
0380
3F00
3E00
ENDCHAR
STARTCHAR 003A
ENCODING 58
SWIDTH 450 0
DWIDTH 10 0
BBX 3 12 4 0
BITMAP
E0
E0
E0
00
00
00
00
00
00
E0
E0
E0
ENDCHAR
STARTCHAR 003B
ENCODING 59
SWIDTH 450 0
DWIDTH 10 0
BBX 5 16 3 -4
BITMAP
70
70
70
00
00
00
00
00
00
38
30
70
60
60
C0
C0
ENDCHAR
STARTCHAR 003C
ENCODING 60
SWIDTH 810 0
DWIDTH 18 0
BBX 12 12 3 1
BITMAP
0030
00F0
03C0
0F00
3C00
F000
F000
3C00
0F00
03C0
00F0
0030
ENDCHAR
STARTCHAR 003D
ENCODING 61
SWIDTH 810 0
DWIDTH 18 0
BBX 13 7 3 3
BITMAP
FFF8
FFF8
0000
0000
0000
FFF8
FFF8
ENDCHAR
STARTCHAR 003E
ENCODING 62
SWIDTH 810 0
DWIDTH 18 0
BBX 12 12 3 1
BITMAP
C000
F000
3C00
0F00
03C0
00F0
00F0
03C0
0F00
3C00
F000
C000
ENDCHAR
STARTCHAR 003F
ENCODING 63
SWIDTH 540 0
DWIDTH 12 0
BBX 9 16 2 0
BITMAP
7E00
FF00
8380
0180
0180
0180
0300
0700
1C00
1800
1800
1800
0000
0000
1800
1800
ENDCHAR
STARTCHAR 0040
ENCODING 64
SWIDTH 990 0
DWIDTH 22 0
BBX 18 19 2 -3
BITMAP
03F000
0FFC00
1C0F00
380300
73F980
67F980
E618C0
CC18C0
CC18C0
CC18C0
CC18C0
CC18C0
EE39C0
67FF80
73DF80
380000
1C0000
0FF800
03F800
ENDCHAR
STARTCHAR 0041
ENCODING 65
SWIDTH 675 0
DWIDTH 15 0
BBX 15 16 0 0
BITMAP
0380
06C0
06C0
06C0
0C60
0C60
0C60
1830
1830
3838
3FF8
3FF8
600C
600C
600C
C006
ENDCHAR
STARTCHAR 0042
ENCODING 66
SWIDTH 675 0
DWIDTH 15 0
BBX 12 16 2 0
BITMAP
FF80
FFC0
C0E0
C060
C060
C0C0
FF80
FFE0
C060
C030
C030
C030
C030
C0E0
FFC0
FF80
ENDCHAR
STARTCHAR 0043
ENCODING 67
SWIDTH 675 0
DWIDTH 15 0
BBX 13 16 1 0
BITMAP
07E0
1FF8
3838
7008
6000
C000
C000
C000
C000
C000
C000
6000
7008
3838
1FF8
07E0
ENDCHAR
STARTCHAR 0044
ENCODING 68
SWIDTH 765 0
DWIDTH 17 0
BBX 14 16 2 0
BITMAP
FF80
FFE0
C0F0
C038
C018
C00C
C00C
C00C
C00C
C00C
C00C
C018
C038
C0F0
FFE0
FF80
ENDCHAR
STARTCHAR 0045
ENCODING 69
SWIDTH 630 0
DWIDTH 14 0
BBX 11 16 2 0
BITMAP
FFE0
FFE0
C000
C000
C000
C000
FFE0
FFE0
C000
C000
C000
C000
C000
C000
FFE0
FFE0
ENDCHAR
STARTCHAR 0046
ENCODING 70
SWIDTH 585 0
DWIDTH 13 0
BBX 11 16 2 0
BITMAP
FFE0
FFE0
C000
C000
C000
C000
FFC0
FFC0
C000
C000
C000
C000
C000
C000
C000
C000
ENDCHAR
STARTCHAR 0047
ENCODING 71
SWIDTH 765 0
DWIDTH 17 0
BBX 14 16 1 0
BITMAP
07F0
1FFC
381C
7004
6000
C000
C000
C000
C0FC
C0FC
C00C
600C
700C
380C
1FFC
07E0
ENDCHAR
STARTCHAR 0048
ENCODING 72
SWIDTH 765 0
DWIDTH 17 0
BBX 13 16 2 0
BITMAP
C018
C018
C018
C018
C018
C018
FFF8
FFF8
C018
C018
C018
C018
C018
C018
C018
C018
ENDCHAR
STARTCHAR 0049
ENCODING 73
SWIDTH 450 0
DWIDTH 10 0
BBX 6 16 2 0
BITMAP
FC
FC
30
30
30
30
30
30
30
30
30
30
30
30
FC
FC
ENDCHAR
STARTCHAR 004A
ENCODING 74
SWIDTH 450 0
DWIDTH 10 0
BBX 8 16 0 0
BITMAP
3F
3F
03
03
03
03
03
03
03
03
03
03
03
07
FE
FC
ENDCHAR
STARTCHAR 004B
ENCODING 75
SWIDTH 675 0
DWIDTH 15 0
BBX 13 16 2 0
BITMAP
C030
C060
C0C0
C180
C300
C600
CC00
D800
FC00
E600
C700
C380
C1C0
C0E0
C070
C038
ENDCHAR
STARTCHAR 004C
ENCODING 76
SWIDTH 540 0
DWIDTH 12 0
BBX 10 16 2 0
BITMAP
C000
C000
C000
C000
C000
C000
C000
C000
C000
C000
C000
C000
C000
C000
FFC0
FFC0
ENDCHAR
STARTCHAR 004D
ENCODING 77
SWIDTH 855 0
DWIDTH 19 0
BBX 15 16 2 0
BITMAP
E00E
F01E
F01E
D836
D836
CC66
CC66
C6C6
C6C6
C386
C386
C106
C006
C006
C006
C006
ENDCHAR
STARTCHAR 004E
ENCODING 78
SWIDTH 720 0
DWIDTH 16 0
BBX 12 16 2 0
BITMAP
F030
F030
F830
D830
DC30
CC30
CE30
C630
C330
C330
C1B0
C1B0
C0F0
C0F0
C070
C070
ENDCHAR
STARTCHAR 004F
ENCODING 79
SWIDTH 765 0
DWIDTH 17 0
BBX 15 16 1 0
BITMAP
0FE0
1FF0
3838
701C
600C
C006
C006
C006
C006
C006
C006
600C
701C
3838
1FF0
0FE0
ENDCHAR
STARTCHAR 0050
ENCODING 80
SWIDTH 585 0
DWIDTH 13 0
BBX 10 16 2 0
BITMAP
FE00
FF80
C1C0
C0C0
C0C0
C0C0
C0C0
C180
FF80
FE00
C000
C000
C000
C000
C000
C000
ENDCHAR
STARTCHAR 0051
ENCODING 81
SWIDTH 765 0
DWIDTH 17 0
BBX 15 20 1 -4
BITMAP
0FE0
1FF0
3838
701C
600C
C006
C006
C006
C006
C006
C006
600C
701C
3838
1FF0
0FC0
00C0
00E0
007E
003E
ENDCHAR
STARTCHAR 0052
ENCODING 82
SWIDTH 675 0
DWIDTH 15 0
BBX 13 16 2 0
BITMAP
FF00
FF80
C1C0
C0C0
C0C0
C0C0
C0C0
C180
FF00
FE00
C300
C380
C1C0
C0E0
C070
C038
ENDCHAR
STARTCHAR 0053
ENCODING 83
SWIDTH 675 0
DWIDTH 15 0
BBX 13 16 1 0
BITMAP
1FC0
7FF0
6070
C010
C000
C000
7000
3FC0
0FF0
0078
0018
0018
8018
E070
FFE0
3FC0
ENDCHAR
STARTCHAR 0054
ENCODING 84
SWIDTH 630 0
DWIDTH 14 0
BBX 14 16 0 0
BITMAP
FFFC
FFFC
0300
0300
0300
0300
0300
0300
0300
0300
0300
0300
0300
0300
0300
0300
ENDCHAR
STARTCHAR 0055
ENCODING 85
SWIDTH 720 0
DWIDTH 16 0
BBX 12 16 2 0
BITMAP
C030
C030
C030
C030
C030
C030
C030
C030
C030
C030
C030
C030
E070
70E0
3FC0
1F80
ENDCHAR
STARTCHAR 0056
ENCODING 86
SWIDTH 675 0
DWIDTH 15 0
BBX 15 16 0 0
BITMAP
C006
600C
600C
600C
3018
3018
3838
1830
1830
0C60
0C60
0C60
06C0
06C0
07C0
0380
ENDCHAR
STARTCHAR 0057
ENCODING 87
SWIDTH 990 0
DWIDTH 22 0
BBX 20 16 1 0
BITMAP
C06030
C07030
60F060
60F060
60F060
709860
3198C0
3198C0
3198C0
190CC0
1B0D80
1B0D80
1B0D80
0E0700
0E0700
0E0700
ENDCHAR
STARTCHAR 0058
ENCODING 88
SWIDTH 675 0
DWIDTH 15 0
BBX 13 16 1 0
BITMAP
E038
6030
3060
38E0
18C0
0D80
0F80
0700
0700
0D80
0D80
18C0
38E0
3060
6030
E038
ENDCHAR
STARTCHAR 0059
ENCODING 89
SWIDTH 630 0
DWIDTH 14 0
BBX 14 16 0 0
BITMAP
E01C
6018
3030
3870
1860
0CC0
0FC0
0780
0300
0300
0300
0300
0300
0300
0300
0300
ENDCHAR
STARTCHAR 005A
ENCODING 90
SWIDTH 675 0
DWIDTH 15 0
BBX 13 16 1 0
BITMAP
FFF8
FFF8
0038
0070
00E0
01C0
0180
0300
0600
0C00
1C00
3800
7000
E000
FFF8
FFF8
ENDCHAR
STARTCHAR 005B
ENCODING 91
SWIDTH 450 0
DWIDTH 10 0
BBX 6 21 3 -4
BITMAP
FC
FC
C0
C0
C0
C0
C0
C0
C0
C0
C0
C0
C0
C0
C0
C0
C0
C0
C0
FC
FC
ENDCHAR
STARTCHAR 005C
ENCODING 92
SWIDTH 450 0
DWIDTH 10 0
BBX 10 20 1 -3
BITMAP
C000
6000
6000
7000
3000
3000
1800
1800
1800
0C00
0C00
0600
0600
0600
0300
0300
0380
0180
0180
00C0
ENDCHAR
STARTCHAR 005D
ENCODING 93
SWIDTH 450 0
DWIDTH 10 0
BBX 6 21 2 -4
BITMAP
FC
FC
0C
0C
0C
0C
0C
0C
0C
0C
0C
0C
0C
0C
0C
0C
0C
0C
0C
FC
FC
ENDCHAR
STARTCHAR 005E
ENCODING 94
SWIDTH 810 0
DWIDTH 18 0
BBX 14 9 2 7
BITMAP
0300
0780
0780
0CC0
1860
3870
3030
6018
C00C
ENDCHAR
STARTCHAR 005F
ENCODING 95
SWIDTH 630 0
DWIDTH 14 0
BBX 14 1 0 -3
BITMAP
FFFC
ENDCHAR
STARTCHAR 0060
ENCODING 96
SWIDTH 630 0
DWIDTH 14 0
BBX 5 4 4 14
BITMAP
E0
70
30
18
ENDCHAR
STARTCHAR 0061
ENCODING 97
SWIDTH 585 0
DWIDTH 13 0
BBX 10 12 1 0
BITMAP
7F00
7F80
41C0
00C0
1FC0
7FC0
F0C0
C0C0
C0C0
E1C0
7FC0
3CC0
ENDCHAR
STARTCHAR 0062
ENCODING 98
SWIDTH 630 0
DWIDTH 14 0
BBX 11 17 2 0
BITMAP
C000
C000
C000
C000
C000
CF00
FFC0
E0C0
C060
C060
C060
C060
C060
C0E0
C1C0
FF80
DF00
ENDCHAR
STARTCHAR 0063
ENCODING 99
SWIDTH 495 0
DWIDTH 11 0
BBX 9 12 1 0
BITMAP
1F00
3F80
7080
E000
C000
C000
C000
C000
E000
7080
7F80
1F00
ENDCHAR
STARTCHAR 0064
ENCODING 100
SWIDTH 630 0
DWIDTH 14 0
BBX 11 17 1 0
BITMAP
0060
0060
0060
0060
0060
1F60
3FE0
7060
E060
C060
C060
C060
C060
C060
60E0
7FE0
1E60
ENDCHAR
STARTCHAR 0065
ENCODING 101
SWIDTH 585 0
DWIDTH 13 0
BBX 11 12 1 0
BITMAP
1F00
3FC0
70C0
E060
C060
FFE0
FFE0
C000
C000
7020
3FE0
1FC0
ENDCHAR
STARTCHAR 0066
ENCODING 102
SWIDTH 360 0
DWIDTH 8 0
BBX 7 17 1 0
BITMAP
1E
3E
70
60
60
FC
FC
60
60
60
60
60
60
60
60
60
60
ENDCHAR
STARTCHAR 0067
ENCODING 103
SWIDTH 630 0
DWIDTH 14 0
BBX 11 16 1 -4
BITMAP
1F60
3FE0
7060
E060
C060
C060
C060
C060
C060
60E0
7FE0
1E60
0060
40C0
7FC0
7F00
ENDCHAR
STARTCHAR 0068
ENCODING 104
SWIDTH 630 0
DWIDTH 14 0
BBX 10 17 2 0
BITMAP
C000
C000
C000
C000
C000
CF00
FF80
E1C0
C0C0
C0C0
C0C0
C0C0
C0C0
C0C0
C0C0
C0C0
C0C0
ENDCHAR
STARTCHAR 0069
ENCODING 105
SWIDTH 270 0
DWIDTH 6 0
BBX 2 16 2 0
BITMAP
C0
C0
00
00
C0
C0
C0
C0
C0
C0
C0
C0
C0
C0
C0
C0
ENDCHAR
STARTCHAR 006A
ENCODING 106
SWIDTH 360 0
DWIDTH 8 0
BBX 6 20 0 -4
BITMAP
0C
0C
00
00
7C
7C
0C
0C
0C
0C
0C
0C
0C
0C
0C
0C
0C
1C
F8
F0
ENDCHAR
STARTCHAR 006B
ENCODING 107
SWIDTH 585 0
DWIDTH 13 0
BBX 11 17 2 0
BITMAP
C000
C000
C000
C000
C000
C0C0
C180
C300
C600
CC00
D800
FC00
EE00
C700
C380
C1C0
C0E0
ENDCHAR
STARTCHAR 006C
ENCODING 108
SWIDTH 270 0
DWIDTH 6 0
BBX 2 17 2 0
BITMAP
C0
C0
C0
C0
C0
C0
C0
C0
C0
C0
C0
C0
C0
C0
C0
C0
C0
ENDCHAR
STARTCHAR 006D
ENCODING 109
SWIDTH 945 0
DWIDTH 21 0
BBX 18 12 2 0
BITMAP
CF1F00
FFBF80
F1F1C0
C0C0C0
C0C0C0
C0C0C0
C0C0C0
C0C0C0
C0C0C0
C0C0C0
C0C0C0
C0C0C0
ENDCHAR
STARTCHAR 006E
ENCODING 110
SWIDTH 630 0
DWIDTH 14 0
BBX 10 12 2 0
BITMAP
CF00
FF80
E1C0
C0C0
C0C0
C0C0
C0C0
C0C0
C0C0
C0C0
C0C0
C0C0
ENDCHAR
STARTCHAR 006F
ENCODING 111
SWIDTH 585 0
DWIDTH 13 0
BBX 11 12 1 0
BITMAP
1F00
3F80
71C0
E0E0
C060
C060
C060
C060
E0E0
71C0
3F80
1F00
ENDCHAR
STARTCHAR 0070
ENCODING 112
SWIDTH 630 0
DWIDTH 14 0
BBX 11 16 2 -4
BITMAP
CF00
FFC0
E0C0
C060
C060
C060
C060
C060
C0E0
C1C0
FF80
DF00
C000
C000
C000
C000
ENDCHAR
STARTCHAR 0071
ENCODING 113
SWIDTH 630 0
DWIDTH 14 0
BBX 11 16 1 -4
BITMAP
1F60
3FE0
7060
E060
C060
C060
C060
C060
C060
60E0
7FE0
1F60
0060
0060
0060
0060
ENDCHAR
STARTCHAR 0072
ENCODING 114
SWIDTH 405 0
DWIDTH 9 0
BBX 7 12 2 0
BITMAP
CE
FE
E0
C0
C0
C0
C0
C0
C0
C0
C0
C0
ENDCHAR
STARTCHAR 0073
ENCODING 115
SWIDTH 495 0
DWIDTH 11 0
BBX 9 12 1 0
BITMAP
3F00
7F80
C080
C000
E000
7E00
1F00
0380
0180
8180
FF00
7E00
ENDCHAR
STARTCHAR 0074
ENCODING 116
SWIDTH 405 0
DWIDTH 9 0
BBX 8 15 1 0
BITMAP
60
60
60
FF
FF
60
60
60
60
60
60
60
70
3F
1F
ENDCHAR
STARTCHAR 0075
ENCODING 117
SWIDTH 630 0
DWIDTH 14 0
BBX 10 12 2 0
BITMAP
C0C0
C0C0
C0C0
C0C0
C0C0
C0C0
C0C0
C0C0
C0C0
E1C0
7FC0
3CC0
ENDCHAR
STARTCHAR 0076
ENCODING 118
SWIDTH 585 0
DWIDTH 13 0
BBX 11 12 1 0
BITMAP
C060
60C0
60C0
60C0
3180
3180
3180
1B00
1B00
0E00
0E00
0E00
ENDCHAR
STARTCHAR 0077
ENCODING 119
SWIDTH 810 0
DWIDTH 18 0
BBX 16 12 1 0
BITMAP
C183
C183
63C6
63C6
6246
6666
3664
342C
343C
3C3C
1818
1818
ENDCHAR
STARTCHAR 0078
ENCODING 120
SWIDTH 585 0
DWIDTH 13 0
BBX 11 12 1 0
BITMAP
E0E0
70C0
3180
1B00
1F00
0E00
0E00
1F00
1B00
3180
60C0
E0E0
ENDCHAR
STARTCHAR 0079
ENCODING 121
SWIDTH 585 0
DWIDTH 13 0
BBX 11 16 1 -4
BITMAP
C060
60C0
60C0
60C0
3180
3180
1B00
1B00
1B00
0E00
0E00
0C00
0C00
1800
1800
3800
ENDCHAR
STARTCHAR 007A
ENCODING 122
SWIDTH 540 0
DWIDTH 12 0
BBX 10 12 1 0
BITMAP
FFC0
FFC0
01C0
0380
0700
0E00
1C00
3800
7000
E000
FFC0
FFC0
ENDCHAR
STARTCHAR 007B
ENCODING 123
SWIDTH 630 0
DWIDTH 14 0
BBX 10 21 2 -4
BITMAP
03C0
07C0
0E00
0C00
0C00
0C00
0C00
0C00
1C00
1800
F000
F000
1800
0C00
0C00
0C00
0C00
0C00
0E00
07C0
03C0
ENDCHAR
STARTCHAR 007C
ENCODING 124
SWIDTH 450 0
DWIDTH 10 0
BBX 2 21 4 -4
BITMAP
C0
C0
C0
C0
C0
C0
C0
C0
C0
C0
C0
C0
C0
C0
C0
C0
C0
C0
C0
C0
C0
ENDCHAR
STARTCHAR 007D
ENCODING 125
SWIDTH 630 0
DWIDTH 14 0
BBX 10 21 2 -4
BITMAP
F000
F800
1C00
0C00
0C00
0C00
0C00
0C00
0E00
0600
03C0
03C0
0600
0C00
0C00
0C00
0C00
0C00
1C00
F800
F000
ENDCHAR
STARTCHAR 007E
ENCODING 126
SWIDTH 810 0
DWIDTH 18 0
BBX 14 6 2 4
BITMAP
3C0C
7E0C
670C
C398
C1F8
C0F0
ENDCHAR
STARTCHAR 00A0
ENCODING 160
SWIDTH 360 0
DWIDTH 8 0
BBX 1 1 0 0
BITMAP
00
ENDCHAR
STARTCHAR 00A1
ENCODING 161
SWIDTH 405 0
DWIDTH 9 0
BBX 2 16 3 0
BITMAP
C0
C0
00
00
C0
C0
C0
C0
C0
C0
C0
C0
C0
C0
C0
C0
ENDCHAR
STARTCHAR 00A2
ENCODING 162
SWIDTH 630 0
DWIDTH 14 0
BBX 10 20 2 -4
BITMAP
0400
0400
0400
0400
1F80
3FC0
7440
E400
C400
C400
C400
C400
E400
7440
3FC0
1F80
0400
0400
0400
0400
ENDCHAR
STARTCHAR 00A3
ENCODING 163
SWIDTH 630 0
DWIDTH 14 0
BBX 11 16 1 0
BITMAP
07E0
1FE0
1820
3000
3000
3000
3000
3000
FF80
FF80
3000
3000
2000
C000
FFE0
FFE0
ENDCHAR
STARTCHAR 00A4
ENCODING 164
SWIDTH 630 0
DWIDTH 14 0
BBX 11 11 1 2
BITMAP
4040
E0E0
7FC0
3F80
3180
3180
3180
3F80
7FC0
E0E0
4040
ENDCHAR
STARTCHAR 00A5
ENCODING 165
SWIDTH 630 0
DWIDTH 14 0
BBX 12 16 1 0
BITMAP
E070
6060
70E0
30C0
3980
1980
0F00
0F00
0600
0600
7FE0
7FE0
0600
0600
0600
0600
ENDCHAR
STARTCHAR 00A6
ENCODING 166
SWIDTH 450 0
DWIDTH 10 0
BBX 2 21 4 -4
BITMAP
C0
C0
C0
C0
C0
C0
C0
C0
C0
00
00
00
C0
C0
C0
C0
C0
C0
C0
C0
C0
ENDCHAR
STARTCHAR 00A7
ENCODING 167
SWIDTH 630 0
DWIDTH 14 0
BBX 10 20 2 -4
BITMAP
3F00
7F80
E080
C000
C000
F000
7E00
6F80
C1C0
C0C0
C0C0
E0C0
7D80
1F80
03C0
00C0
00C0
41C0
7F80
3F00
ENDCHAR
STARTCHAR 00A8
ENCODING 168
SWIDTH 630 0
DWIDTH 14 0
BBX 6 2 4 14
BITMAP
CC
CC
ENDCHAR
STARTCHAR 00A9
ENCODING 169
SWIDTH 990 0
DWIDTH 22 0
BBX 19 19 2 -3
BITMAP
03F800
0E0E00
180300
300180
61F0C0
47F840
C60860
8C0020
8C0020
8C0020
8C0020
8C0020
C60860
47F840
61F0C0
200080
180300
0E0E00
03F800
ENDCHAR
STARTCHAR 00AA
ENCODING 170
SWIDTH 540 0
DWIDTH 12 0
BBX 9 11 2 5
BITMAP
7E00
7F00
4180
0180
1F80
7F80
E180
C180
C380
FF80
3D80
ENDCHAR
STARTCHAR 00AB
ENCODING 171
SWIDTH 630 0
DWIDTH 14 0
BBX 11 11 2 2
BITMAP
0420
0C60
1CE0
3180
6300
C600
6300
3180
1CE0
0C60
0420
ENDCHAR
STARTCHAR 00AC
ENCODING 172
SWIDTH 810 0
DWIDTH 18 0
BBX 13 8 2 0
BITMAP
FFF8
FFF8
0018
0018
0018
0018
0018
0018
ENDCHAR
STARTCHAR 00AD
ENCODING 173
SWIDTH 450 0
DWIDTH 10 0
BBX 7 2 2 6
BITMAP
FE
FE
ENDCHAR
STARTCHAR 00AE
ENCODING 174
SWIDTH 990 0
DWIDTH 22 0
BBX 19 19 2 -3
BITMAP
03F800
0E0E00
180300
300180
63F0C0
431840
C31860
831820
831820
83E020
837020
833820
C31C60
430E40
6000C0
200080
180300
0E0E00
03F800
ENDCHAR
STARTCHAR 00AF
ENCODING 175
SWIDTH 630 0
DWIDTH 14 0
BBX 14 1 0 18
BITMAP
FFFC
ENDCHAR
STARTCHAR 00B0
ENCODING 176
SWIDTH 540 0
DWIDTH 12 0
BBX 9 9 2 7
BITMAP
3E00
7F00
E380
C180
C180
C180
E380
7F00
3E00
ENDCHAR
STARTCHAR 00B1
ENCODING 177
SWIDTH 810 0
DWIDTH 18 0
BBX 14 14 2 2
BITMAP
0300
0300
0300
0300
0300
0300
FFFC
FFFC
0300
0300
0300
0300
FFFC
FFFC
ENDCHAR
STARTCHAR 00B2
ENCODING 178
SWIDTH 540 0
DWIDTH 12 0
BBX 9 10 2 6
BITMAP
7C00
FF00
8300
0300
0200
0C00
1800
6000
FF80
FF80
ENDCHAR
STARTCHAR 00B3
ENCODING 179
SWIDTH 540 0
DWIDTH 12 0
BBX 8 10 2 6
BITMAP
7E
FF
83
03
3C
3E
03
83
FF
7C
ENDCHAR
STARTCHAR 00B4
ENCODING 180
SWIDTH 630 0
DWIDTH 14 0
BBX 5 4 6 14
BITMAP
38
70
60
C0
ENDCHAR
STARTCHAR 00B5
ENCODING 181
SWIDTH 630 0
DWIDTH 14 0
BBX 10 16 2 -4
BITMAP
C0C0
C0C0
C0C0
C0C0
C0C0
C0C0
C0C0
C0C0
C0C0
E1C0
FFC0
DEC0
C000
C000
C000
C000
ENDCHAR
STARTCHAR 00B6
ENCODING 182
SWIDTH 630 0
DWIDTH 14 0
BBX 10 20 1 -4
BITMAP
1FC0
7CC0
FCC0
FCC0
FCC0
FCC0
FCC0
FCC0
7CC0
3CC0
0CC0
0CC0
0CC0
0CC0
0CC0
0CC0
0CC0
0CC0
0CC0
0CC0
ENDCHAR
STARTCHAR 00B7
ENCODING 183
SWIDTH 360 0
DWIDTH 8 0
BBX 3 3 3 5
BITMAP
E0
E0
E0
ENDCHAR
STARTCHAR 00B8
ENCODING 184
SWIDTH 630 0
DWIDTH 14 0
BBX 6 4 4 -4
BITMAP
0C
0C
FC
F8
ENDCHAR
STARTCHAR 00B9
ENCODING 185
SWIDTH 540 0
DWIDTH 12 0
BBX 6 10 4 6
BITMAP
30
F0
30
30
30
30
30
30
30
FC
ENDCHAR
STARTCHAR 00BA
ENCODING 186
SWIDTH 540 0
DWIDTH 12 0
BBX 9 11 1 5
BITMAP
3E00
7F00
6300
C180
C180
C180
C180
C180
6300
7F00
3E00
ENDCHAR
STARTCHAR 00BB
ENCODING 187
SWIDTH 630 0
DWIDTH 14 0
BBX 11 11 2 2
BITMAP
8400
C600
E700
3180
18C0
0C60
18C0
3180
E700
C600
8400
ENDCHAR
STARTCHAR 00BC
ENCODING 188
SWIDTH 990 0
DWIDTH 22 0
BBX 19 16 2 0
BITMAP
301800
F03000
303000
306000
306000
30C000
30C180
318380
318780
330D80
031980
063180
063FE0
0C3FE0
0C0180
180180
ENDCHAR
STARTCHAR 00BD
ENCODING 189
SWIDTH 990 0
DWIDTH 22 0
BBX 20 16 2 0
BITMAP
301800
F03000
303000
306000
306000
30C000
30C7C0
318FE0
318860
330060
030040
0600C0
060300
0C0600
0C0FF0
180FF0
ENDCHAR
STARTCHAR 00BE
ENCODING 190
SWIDTH 990 0
DWIDTH 22 0
BBX 20 16 1 0
BITMAP
7C0600
FE0C00
860C00
061800
3C1800
3C3000
0630C0
8661C0
FE63C0
78C6C0
00CCC0
0198C0
019FF0
031FF0
0300C0
0600C0
ENDCHAR
STARTCHAR 00BF
ENCODING 191
SWIDTH 540 0
DWIDTH 12 0
BBX 9 16 1 0
BITMAP
0C00
0C00
0000
0000
0C00
0C00
0C00
1C00
7000
6000
C000
C000
C000
E080
7F80
3F00
ENDCHAR
STARTCHAR 00C0
ENCODING 192
SWIDTH 675 0
DWIDTH 15 0
BBX 15 22 0 0
BITMAP
0700
0380
0180
00C0
0000
0000
0380
06C0
06C0
06C0
0C60
0C60
0C60
1830
1830
3838
3FF8
3FF8
600C
600C
600C
C006
ENDCHAR
STARTCHAR 00C1
ENCODING 193
SWIDTH 675 0
DWIDTH 15 0
BBX 15 22 0 0
BITMAP
00E0
01C0
0180
0300
0000
0000
0380
06C0
06C0
06C0
0C60
0C60
0C60
1830
1830
3838
3FF8
3FF8
600C
600C
600C
C006
ENDCHAR
STARTCHAR 00C2
ENCODING 194
SWIDTH 675 0
DWIDTH 15 0
BBX 15 22 0 0
BITMAP
0380
06C0
06C0
0C60
0000
0000
0380
06C0
06C0
06C0
0C60
0C60
0C60
1830
1830
3838
3FF8
3FF8
600C
600C
600C
C006
ENDCHAR
STARTCHAR 00C3
ENCODING 195
SWIDTH 675 0
DWIDTH 15 0
BBX 15 21 0 0
BITMAP
0F10
1FF0
11E0
0000
0000
0380
06C0
06C0
06C0
0C60
0C60
0C60
1830
1830
3838
3FF8
3FF8
600C
600C
600C
C006
ENDCHAR
STARTCHAR 00C4
ENCODING 196
SWIDTH 675 0
DWIDTH 15 0
BBX 15 20 0 0
BITMAP
0660
0660
0000
0000
0380
06C0
06C0
06C0
0C60
0C60
0C60
1830
1830
3838
3FF8
3FF8
600C
600C
600C
C006
ENDCHAR
STARTCHAR 00C5
ENCODING 197
SWIDTH 675 0
DWIDTH 15 0
BBX 15 22 0 0
BITMAP
0380
07C0
0C60
0C60
0C60
0C60
07C0
0380
06C0
06C0
0EE0
0C60
0C60
1830
1830
1830
3FF8
3FF8
600C
600C
600C
C006
ENDCHAR
STARTCHAR 00C6
ENCODING 198
SWIDTH 945 0
DWIDTH 21 0
BBX 20 16 0 0
BITMAP
03FFF0
03FFF0
063000
063000
063000
0C3000
0C3FF0
183FF0
1FF000
1FF000
303000
303000
603000
603000
603FF0
C03FF0
ENDCHAR
STARTCHAR 00C7
ENCODING 199
SWIDTH 675 0
DWIDTH 15 0
BBX 13 20 1 -4
BITMAP
07E0
1FF8
3838
7008
6000
C000
C000
C000
C000
C000
C000
6000
7008
3838
1FF8
07E0
00C0
00C0
0FC0
0F00
ENDCHAR
STARTCHAR 00C8
ENCODING 200
SWIDTH 630 0
DWIDTH 14 0
BBX 11 22 2 0
BITMAP
1C00
0E00
0600
0300
0000
0000
FFE0
FFE0
C000
C000
C000
C000
FFE0
FFE0
C000
C000
C000
C000
C000
C000
FFE0
FFE0
ENDCHAR
STARTCHAR 00C9
ENCODING 201
SWIDTH 630 0
DWIDTH 14 0
BBX 11 22 2 0
BITMAP
0380
0700
0600
0C00
0000
0000
FFE0
FFE0
C000
C000
C000
C000
FFE0
FFE0
C000
C000
C000
C000
C000
C000
FFE0
FFE0
ENDCHAR
STARTCHAR 00CA
ENCODING 202
SWIDTH 630 0
DWIDTH 14 0
BBX 11 22 2 0
BITMAP
0E00
1B00
1B00
3180
0000
0000
FFE0
FFE0
C000
C000
C000
C000
FFE0
FFE0
C000
C000
C000
C000
C000
C000
FFE0
FFE0
ENDCHAR
STARTCHAR 00CB
ENCODING 203
SWIDTH 630 0
DWIDTH 14 0
BBX 11 20 2 0
BITMAP
1980
1980
0000
0000
FFE0
FFE0
C000
C000
C000
C000
FFE0
FFE0
C000
C000
C000
C000
C000
C000
FFE0
FFE0
ENDCHAR
STARTCHAR 00CC
ENCODING 204
SWIDTH 450 0
DWIDTH 10 0
BBX 6 22 2 0
BITMAP
E0
70
30
18
00
00
FC
FC
30
30
30
30
30
30
30
30
30
30
30
30
FC
FC
ENDCHAR
STARTCHAR 00CD
ENCODING 205
SWIDTH 450 0
DWIDTH 10 0
BBX 6 22 2 0
BITMAP
1C
38
30
60
00
00
FC
FC
30
30
30
30
30
30
30
30
30
30
30
30
FC
FC
ENDCHAR
STARTCHAR 00CE
ENCODING 206
SWIDTH 450 0
DWIDTH 10 0
BBX 7 22 2 0
BITMAP
38
6C
6C
C6
00
00
FC
FC
30
30
30
30
30
30
30
30
30
30
30
30
FC
FC
ENDCHAR
STARTCHAR 00CF
ENCODING 207
SWIDTH 450 0
DWIDTH 10 0
BBX 6 20 2 0
BITMAP
CC
CC
00
00
FC
FC
30
30
30
30
30
30
30
30
30
30
30
30
FC
FC
ENDCHAR
STARTCHAR 00D0
ENCODING 208
SWIDTH 765 0
DWIDTH 17 0
BBX 16 16 0 0
BITMAP
3FE0
3FF8
303C
300E
3006
3003
3003
FF03
FF03
3003
3003
3006
300E
303C
3FF8
3FE0
ENDCHAR
STARTCHAR 00D1
ENCODING 209
SWIDTH 720 0
DWIDTH 16 0
BBX 12 21 2 0
BITMAP
1E20
3FE0
23C0
0000
0000
F030
F030
F830
D830
DC30
CC30
CE30
C630
C330
C330
C1B0
C1B0
C0F0
C0F0
C070
C070
ENDCHAR
STARTCHAR 00D2
ENCODING 210
SWIDTH 765 0
DWIDTH 17 0
BBX 15 22 1 0
BITMAP
0700
0380
0180
00C0
0000
0000
0FE0
1FF0
3838
701C
600C
C006
C006
C006
C006
C006
C006
600C
701C
3838
1FF0
0FE0
ENDCHAR
STARTCHAR 00D3
ENCODING 211
SWIDTH 765 0
DWIDTH 17 0
BBX 15 22 1 0
BITMAP
00E0
01C0
0180
0300
0000
0000
0FE0
1FF0
3838
701C
600C
C006
C006
C006
C006
C006
C006
600C
701C
3838
1FF0
0FE0
ENDCHAR
STARTCHAR 00D4
ENCODING 212
SWIDTH 765 0
DWIDTH 17 0
BBX 15 22 1 0
BITMAP
0380
06C0
06C0
0C60
0000
0000
0FE0
1FF0
3838
701C
600C
C006
C006
C006
C006
C006
C006
600C
701C
3838
1FF0
0FE0
ENDCHAR
STARTCHAR 00D5
ENCODING 213
SWIDTH 765 0
DWIDTH 17 0
BBX 15 21 1 0
BITMAP
0F10
1FF0
11E0
0000
0000
0FE0
1FF0
3838
701C
600C
C006
C006
C006
C006
C006
C006
600C
701C
3838
1FF0
0FE0
ENDCHAR
STARTCHAR 00D6
ENCODING 214
SWIDTH 765 0
DWIDTH 17 0
BBX 15 20 1 0
BITMAP
0660
0660
0000
0000
0FE0
1FF0
3838
701C
600C
C006
C006
C006
C006
C006
C006
600C
701C
3838
1FF0
0FE0
ENDCHAR
STARTCHAR 00D7
ENCODING 215
SWIDTH 810 0
DWIDTH 18 0
BBX 11 11 4 2
BITMAP
C060
E0E0
71C0
3B80
1F00
0E00
1F00
3B80
71C0
E0E0
C060
ENDCHAR
STARTCHAR 00D8
ENCODING 216
SWIDTH 765 0
DWIDTH 17 0
BBX 15 18 1 -1
BITMAP
0004
0FCC
1FF8
3838
703C
602C
C046
C086
C186
C306
C206
C406
680C
781C
3838
3FF0
67E0
4000
ENDCHAR
STARTCHAR 00D9
ENCODING 217
SWIDTH 720 0
DWIDTH 16 0
BBX 12 22 2 0
BITMAP
1C00
0E00
0600
0300
0000
0000
C030
C030
C030
C030
C030
C030
C030
C030
C030
C030
C030
C030
E070
70E0
3FC0
1F80
ENDCHAR
STARTCHAR 00DA
ENCODING 218
SWIDTH 720 0
DWIDTH 16 0
BBX 12 22 2 0
BITMAP
01C0
0380
0300
0600
0000
0000
C030
C030
C030
C030
C030
C030
C030
C030
C030
C030
C030
C030
E070
70E0
3FC0
1F80
ENDCHAR
STARTCHAR 00DB
ENCODING 219
SWIDTH 720 0
DWIDTH 16 0
BBX 12 22 2 0
BITMAP
0700
0D80
0D80
18C0
0000
0000
C030
C030
C030
C030
C030
C030
C030
C030
C030
C030
C030
C030
E070
70E0
3FC0
1F80
ENDCHAR
STARTCHAR 00DC
ENCODING 220
SWIDTH 720 0
DWIDTH 16 0
BBX 12 20 2 0
BITMAP
1980
1980
0000
0000
C030
C030
C030
C030
C030
C030
C030
C030
C030
C030
C030
C030
E070
70E0
3FC0
1F80
ENDCHAR
STARTCHAR 00DD
ENCODING 221
SWIDTH 630 0
DWIDTH 14 0
BBX 14 22 0 0
BITMAP
00E0
01C0
0180
0300
0000
0000
E01C
6018
3030
3870
1860
0CC0
0FC0
0780
0300
0300
0300
0300
0300
0300
0300
0300
ENDCHAR
STARTCHAR 00DE
ENCODING 222
SWIDTH 585 0
DWIDTH 13 0
BBX 10 16 2 0
BITMAP
C000
C000
C000
FE00
FF80
C1C0
C0C0
C0C0
C0C0
C0C0
C180
FF80
FE00
C000
C000
C000
ENDCHAR
STARTCHAR 00DF
ENCODING 223
SWIDTH 630 0
DWIDTH 14 0
BBX 11 17 2 0
BITMAP
1F00
7F80
61C0
C0C0
C0C0
C180
CF00
CF80
C1C0
C0E0
C060
C060
C060
C0E0
C0C0
DF80
DF00
ENDCHAR
STARTCHAR 00E0
ENCODING 224
SWIDTH 585 0
DWIDTH 13 0
BBX 10 18 1 0
BITMAP
3800
1C00
0C00
0600
0000
0000
7F00
7F80
41C0
00C0
1FC0
7FC0
F0C0
C0C0
C0C0
E1C0
7FC0
3CC0
ENDCHAR
STARTCHAR 00E1
ENCODING 225
SWIDTH 585 0
DWIDTH 13 0
BBX 10 18 1 0
BITMAP
01C0
0380
0300
0600
0000
0000
7F00
7F80
41C0
00C0
1FC0
7FC0
F0C0
C0C0
C0C0
E1C0
7FC0
3CC0
ENDCHAR
STARTCHAR 00E2
ENCODING 226
SWIDTH 585 0
DWIDTH 13 0
BBX 10 18 1 0
BITMAP
0E00
1B00
1B00
3180
0000
0000
7F00
7F80
41C0
00C0
1FC0
7FC0
F0C0
C0C0
C0C0
E1C0
7FC0
3CC0
ENDCHAR
STARTCHAR 00E3
ENCODING 227
SWIDTH 585 0
DWIDTH 13 0
BBX 10 17 1 0
BITMAP
3C40
7FC0
4780
0000
0000
7F00
7F80
41C0
00C0
1FC0
7FC0
F0C0
C0C0
C0C0
E1C0
7FC0
3CC0
ENDCHAR
STARTCHAR 00E4
ENCODING 228
SWIDTH 585 0
DWIDTH 13 0
BBX 10 16 1 0
BITMAP
1980
1980
0000
0000
7F00
7F80
41C0
00C0
1FC0
7FC0
F0C0
C0C0
C0C0
E1C0
7FC0
3CC0
ENDCHAR
STARTCHAR 00E5
ENCODING 229
SWIDTH 585 0
DWIDTH 13 0
BBX 10 21 1 0
BITMAP
0E00
1F00
3180
3180
3180
1F00
0E00
0000
0000
7F00
7F80
41C0
00C0
1FC0
7FC0
F0C0
C0C0
C0C0
E1C0
7FC0
3CC0
ENDCHAR
STARTCHAR 00E6
ENCODING 230
SWIDTH 945 0
DWIDTH 21 0
BBX 19 12 1 0
BITMAP
3F1F00
7FBFC0
41F0C0
00E060
00C060
1FFFE0
7FFFE0
E0C000
C0C000
C1F020
7F3FE0
3E1FC0
ENDCHAR
STARTCHAR 00E7
ENCODING 231
SWIDTH 495 0
DWIDTH 11 0
BBX 9 16 1 -4
BITMAP
1F00
3F80
7080
E000
C000
C000
C000
C000
E000
7080
7F80
1F00
0300
0300
3F00
3C00
ENDCHAR
STARTCHAR 00E8
ENCODING 232
SWIDTH 585 0
DWIDTH 13 0
BBX 11 18 1 0
BITMAP
3800
1C00
0C00
0600
0000
0000
1F00
3FC0
70C0
E060
C060
FFE0
FFE0
C000
C000
7020
3FE0
1FC0
ENDCHAR
STARTCHAR 00E9
ENCODING 233
SWIDTH 585 0
DWIDTH 13 0
BBX 11 18 1 0
BITMAP
01C0
0380
0300
0600
0000
0000
1F00
3FC0
70C0
E060
C060
FFE0
FFE0
C000
C000
7020
3FE0
1FC0
ENDCHAR
STARTCHAR 00EA
ENCODING 234
SWIDTH 585 0
DWIDTH 13 0
BBX 11 18 1 0
BITMAP
0E00
1B00
1B00
3180
0000
0000
1F00
3FC0
70C0
E060
C060
FFE0
FFE0
C000
C000
7020
3FE0
1FC0
ENDCHAR
STARTCHAR 00EB
ENCODING 235
SWIDTH 585 0
DWIDTH 13 0
BBX 11 16 1 0
BITMAP
1980
1980
0000
0000
1F00
3FC0
70C0
E060
C060
FFE0
FFE0
C000
C000
7020
3FE0
1FC0
ENDCHAR
STARTCHAR 00EC
ENCODING 236
SWIDTH 270 0
DWIDTH 6 0
BBX 5 18 0 0
BITMAP
E0
70
30
18
00
00
30
30
30
30
30
30
30
30
30
30
30
30
ENDCHAR
STARTCHAR 00ED
ENCODING 237
SWIDTH 270 0
DWIDTH 6 0
BBX 5 18 1 0
BITMAP
38
70
60
C0
00
00
60
60
60
60
60
60
60
60
60
60
60
60
ENDCHAR
STARTCHAR 00EE
ENCODING 238
SWIDTH 270 0
DWIDTH 6 0
BBX 6 18 0 0
BITMAP
30
78
48
CC
00
00
30
30
30
30
30
30
30
30
30
30
30
30
ENDCHAR
STARTCHAR 00EF
ENCODING 239
SWIDTH 270 0
DWIDTH 6 0
BBX 6 16 0 0
BITMAP
CC
CC
00
00
30
30
30
30
30
30
30
30
30
30
30
30
ENDCHAR
STARTCHAR 00F0
ENCODING 240
SWIDTH 585 0
DWIDTH 13 0
BBX 11 16 1 0
BITMAP
1CC0
0F80
0700
0D80
11C0
00C0
1F60
7FE0
60E0
C060
C060
C060
C0E0
61C0
7F80
1F00
ENDCHAR
STARTCHAR 00F1
ENCODING 241
SWIDTH 630 0
DWIDTH 14 0
BBX 10 17 2 0
BITMAP
3C40
7FC0
4780
0000
0000
CF00
FF80
E1C0
C0C0
C0C0
C0C0
C0C0
C0C0
C0C0
C0C0
C0C0
C0C0
ENDCHAR
STARTCHAR 00F2
ENCODING 242
SWIDTH 585 0
DWIDTH 13 0
BBX 11 18 1 0
BITMAP
1C00
0E00
0600
0300
0000
0000
1F00
3F80
71C0
E0E0
C060
C060
C060
C060
E0E0
71C0
3F80
1F00
ENDCHAR
STARTCHAR 00F3
ENCODING 243
SWIDTH 585 0
DWIDTH 13 0
BBX 11 18 1 0
BITMAP
0380
0700
0600
0C00
0000
0000
1F00
3F80
71C0
E0E0
C060
C060
C060
C060
E0E0
71C0
3F80
1F00
ENDCHAR
STARTCHAR 00F4
ENCODING 244
SWIDTH 585 0
DWIDTH 13 0
BBX 11 18 1 0
BITMAP
0E00
1B00
1B00
3180
0000
0000
1F00
3F80
71C0
E0E0
C060
C060
C060
C060
E0E0
71C0
3F80
1F00
ENDCHAR
STARTCHAR 00F5
ENCODING 245
SWIDTH 585 0
DWIDTH 13 0
BBX 11 17 1 0
BITMAP
3C40
7FC0
4780
0000
0000
1F00
3F80
71C0
E0E0
C060
C060
C060
C060
E0E0
71C0
3F80
1F00
ENDCHAR
STARTCHAR 00F6
ENCODING 246
SWIDTH 585 0
DWIDTH 13 0
BBX 11 16 1 0
BITMAP
1980
1980
0000
0000
1F00
3F80
71C0
E0E0
C060
C060
C060
C060
E0E0
71C0
3F80
1F00
ENDCHAR
STARTCHAR 00F7
ENCODING 247
SWIDTH 810 0
DWIDTH 18 0
BBX 15 14 2 0
BITMAP
0380
0380
0380
0000
0000
0000
FFFE
FFFE
0000
0000
0000
0380
0380
0380
ENDCHAR
STARTCHAR 00F8
ENCODING 248
SWIDTH 585 0
DWIDTH 13 0
BBX 11 14 1 -1
BITMAP
0060
1F40
3F80
70C0
E1E0
C260
C460
C460
C860
F0E0
71C0
3F80
5F00
C000
ENDCHAR
STARTCHAR 00F9
ENCODING 249
SWIDTH 630 0
DWIDTH 14 0
BBX 10 18 2 0
BITMAP
3800
1C00
0C00
0600
0000
0000
C0C0
C0C0
C0C0
C0C0
C0C0
C0C0
C0C0
C0C0
C0C0
E1C0
7FC0
3CC0
ENDCHAR
STARTCHAR 00FA
ENCODING 250
SWIDTH 630 0
DWIDTH 14 0
BBX 10 18 2 0
BITMAP
0380
0700
0600
0C00
0000
0000
C0C0
C0C0
C0C0
C0C0
C0C0
C0C0
C0C0
C0C0
C0C0
E1C0
7FC0
3CC0
ENDCHAR
STARTCHAR 00FB
ENCODING 251
SWIDTH 630 0
DWIDTH 14 0
BBX 10 18 2 0
BITMAP
0E00
1B00
1B00
3180
0000
0000
C0C0
C0C0
C0C0
C0C0
C0C0
C0C0
C0C0
C0C0
C0C0
E1C0
7FC0
3CC0
ENDCHAR
STARTCHAR 00FC
ENCODING 252
SWIDTH 630 0
DWIDTH 14 0
BBX 10 16 2 0
BITMAP
3300
3300
0000
0000
C0C0
C0C0
C0C0
C0C0
C0C0
C0C0
C0C0
C0C0
C0C0
E1C0
7FC0
3CC0
ENDCHAR
STARTCHAR 00FD
ENCODING 253
SWIDTH 585 0
DWIDTH 13 0
BBX 11 22 1 -4
BITMAP
01C0
0380
0300
0600
0000
0000
C060
60C0
60C0
60C0
3180
3180
1B00
1B00
1B00
0E00
0E00
0C00
0C00
1800
1800
3800
ENDCHAR
STARTCHAR 00FE
ENCODING 254
SWIDTH 630 0
DWIDTH 14 0
BBX 11 21 2 -4
BITMAP
C000
C000
C000
C000
C000
CF00
FFC0
E0C0
C060
C060
C060
C060
C060
C0E0
C1C0
FF80
DF00
C000
C000
C000
C000
ENDCHAR
STARTCHAR 00FF
ENCODING 255
SWIDTH 585 0
DWIDTH 13 0
BBX 11 20 1 -4
BITMAP
1980
1980
0000
0000
C060
60C0
60C0
60C0
3180
3180
1B00
1B00
1B00
0E00
0E00
0C00
0C00
1800
1800
3800
ENDCHAR
STARTCHAR 0100
ENCODING 256
SWIDTH 675 0
DWIDTH 15 0
BBX 15 20 0 0
BITMAP
0FF0
0FF0
0000
0000
0380
06C0
06C0
06C0
0C60
0C60
0C60
1830
1830
3838
3FF8
3FF8
600C
600C
600C
C006
ENDCHAR
STARTCHAR 0101
ENCODING 257
SWIDTH 585 0
DWIDTH 13 0
BBX 10 16 1 0
BITMAP
3FC0
3FC0
0000
0000
7F00
7F80
41C0
00C0
1FC0
7FC0
F0C0
C0C0
C0C0
E1C0
7FC0
3CC0
ENDCHAR
STARTCHAR 0102
ENCODING 258
SWIDTH 675 0
DWIDTH 15 0
BBX 15 22 0 0
BITMAP
0C30
0C30
0660
03C0
0000
0000
0380
06C0
06C0
06C0
0C60
0C60
0C60
1830
1830
3838
3FF8
3FF8
600C
600C
600C
C006
ENDCHAR
STARTCHAR 0103
ENCODING 259
SWIDTH 585 0
DWIDTH 13 0
BBX 10 18 1 0
BITMAP
6180
6180
3300
1E00
0000
0000
7F00
7F80
41C0
00C0
1FC0
7FC0
F0C0
C0C0
C0C0
E1C0
7FC0
3CC0
ENDCHAR
STARTCHAR 0104
ENCODING 260
SWIDTH 675 0
DWIDTH 15 0
BBX 17 20 0 -4
BITMAP
038000
07C000
06C000
06C000
0C6000
0C6000
0C6000
183000
183000
383800
3FF800
3FF800
600C00
600C00
600C00
C00E00
000C00
000C00
000F80
000780
ENDCHAR
STARTCHAR 0105
ENCODING 261
SWIDTH 585 0
DWIDTH 13 0
BBX 13 16 1 -4
BITMAP
7F00
7F80
41C0
00C0
1FC0
7FC0
F0C0
C0C0
C0C0
E1C0
7FC0
3CC0
00C0
00C0
00F8
0078
ENDCHAR
STARTCHAR 0106
ENCODING 262
SWIDTH 675 0
DWIDTH 15 0
BBX 13 22 1 0
BITMAP
00E0
01C0
0180
0300
0000
0000
07E0
1FF8
3838
7008
6000
C000
C000
C000
C000
C000
C000
6000
7008
3838
1FF8
07E0
ENDCHAR
STARTCHAR 0107
ENCODING 263
SWIDTH 495 0
DWIDTH 11 0
BBX 9 18 1 0
BITMAP
0380
0700
0600
0C00
0000
0000
1F00
3F80
7080
E000
C000
C000
C000
C000
E000
7080
7F80
1F00
ENDCHAR
STARTCHAR 0108
ENCODING 264
SWIDTH 675 0
DWIDTH 15 0
BBX 13 22 1 0
BITMAP
0380
06C0
06C0
0C60
0000
0000
07E0
1FF8
3838
7008
6000
C000
C000
C000
C000
C000
C000
6000
7008
3838
1FF8
07E0
ENDCHAR
STARTCHAR 0109
ENCODING 265
SWIDTH 495 0
DWIDTH 11 0
BBX 9 18 1 0
BITMAP
0E00
1B00
1B00
3180
0000
0000
1F00
3F80
7080
E000
C000
C000
C000
C000
E000
7080
7F80
1F00
ENDCHAR
STARTCHAR 010A
ENCODING 266
SWIDTH 675 0
DWIDTH 15 0
BBX 13 20 1 0
BITMAP
0180
0180
0000
0000
07E0
1FF8
3838
7008
6000
C000
C000
C000
C000
C000
C000
6000
7008
3838
1FF8
07E0
ENDCHAR
STARTCHAR 010B
ENCODING 267
SWIDTH 495 0
DWIDTH 11 0
BBX 9 16 1 0
BITMAP
0C00
0C00
0000
0000
1F00
3F80
7080
E000
C000
C000
C000
C000
E000
7080
7F80
1F00
ENDCHAR
STARTCHAR 010C
ENCODING 268
SWIDTH 675 0
DWIDTH 15 0
BBX 13 22 1 0
BITMAP
0C60
06C0
06C0
0380
0000
0000
07E0
1FF8
3838
7008
6000
C000
C000
C000
C000
C000
C000
6000
7008
3838
1FF8
07E0
ENDCHAR
STARTCHAR 010D
ENCODING 269
SWIDTH 495 0
DWIDTH 11 0
BBX 9 18 1 0
BITMAP
6300
3600
3600
1C00
0000
0000
1F00
3F80
7080
E000
C000
C000
C000
C000
E000
7080
7F80
1F00
ENDCHAR
STARTCHAR 010E
ENCODING 270
SWIDTH 765 0
DWIDTH 17 0
BBX 14 22 2 0
BITMAP
3180
1B00
1B00
0E00
0000
0000
FF80
FFE0
C0F0
C038
C018
C00C
C00C
C00C
C00C
C00C
C00C
C018
C038
C0F0
FFE0
FF80
ENDCHAR
STARTCHAR 010F
ENCODING 271
SWIDTH 630 0
DWIDTH 14 0
BBX 16 17 1 0
BITMAP
0067
0066
0066
006C
006C
1F60
3FE0
7060
E060
C060
C060
C060
C060
C060
60E0
7FE0
1E60
ENDCHAR
STARTCHAR 0110
ENCODING 272
SWIDTH 765 0
DWIDTH 17 0
BBX 16 16 0 0
BITMAP
3FE0
3FF8
303C
300E
3006
3003
3003
FF03
FF03
3003
3003
3006
300E
303C
3FF8
3FE0
ENDCHAR
STARTCHAR 0111
ENCODING 273
SWIDTH 630 0
DWIDTH 14 0
BBX 13 17 1 0
BITMAP
0060
0060
07F8
07F8
0060
1F60
3FE0
7060
E060
C060
C060
C060
C060
C060
60E0
7FE0
1E60
ENDCHAR
STARTCHAR 0112
ENCODING 274
SWIDTH 630 0
DWIDTH 14 0
BBX 11 20 2 0
BITMAP
3FC0
3FC0
0000
0000
FFE0
FFE0
C000
C000
C000
C000
FFE0
FFE0
C000
C000
C000
C000
C000
C000
FFE0
FFE0
ENDCHAR
STARTCHAR 0113
ENCODING 275
SWIDTH 585 0
DWIDTH 13 0
BBX 11 16 1 0
BITMAP
3FC0
3FC0
0000
0000
1F00
3FC0
70C0
E060
C060
FFE0
FFE0
C000
C000
7020
3FE0
1FC0
ENDCHAR
STARTCHAR 0114
ENCODING 276
SWIDTH 630 0
DWIDTH 14 0
BBX 11 22 2 0
BITMAP
30C0
30C0
1980
0F00
0000
0000
FFE0
FFE0
C000
C000
C000
C000
FFE0
FFE0
C000
C000
C000
C000
C000
C000
FFE0
FFE0
ENDCHAR
STARTCHAR 0115
ENCODING 277
SWIDTH 585 0
DWIDTH 13 0
BBX 11 18 1 0
BITMAP
30C0
30C0
1980
0F00
0000
0000
1F00
3FC0
70C0
E060
C060
FFE0
FFE0
C000
C000
7020
3FE0
1FC0
ENDCHAR
STARTCHAR 0116
ENCODING 278
SWIDTH 630 0
DWIDTH 14 0
BBX 11 20 2 0
BITMAP
0600
0600
0000
0000
FFE0
FFE0
C000
C000
C000
C000
FFE0
FFE0
C000
C000
C000
C000
C000
C000
FFE0
FFE0
ENDCHAR
STARTCHAR 0117
ENCODING 279
SWIDTH 585 0
DWIDTH 13 0
BBX 11 16 1 0
BITMAP
0600
0600
0000
0000
1F00
3FC0
70C0
E060
C060
FFE0
FFE0
C000
C000
7020
3FE0
1FC0
ENDCHAR
STARTCHAR 0118
ENCODING 280
SWIDTH 630 0
DWIDTH 14 0
BBX 11 20 2 -4
BITMAP
FFE0
FFE0
C000
C000
C000
C000
FFE0
FFE0
C000
C000
C000
C000
C000
C000
FFE0
FFE0
0300
0300
03E0
01E0
ENDCHAR
STARTCHAR 0119
ENCODING 281
SWIDTH 585 0
DWIDTH 13 0
BBX 11 16 1 -4
BITMAP
1F00
3FC0
70C0
E060
C060
FFE0
FFE0
C000
C000
7020
3FE0
0FC0
0300
0300
03E0
01E0
ENDCHAR
STARTCHAR 011A
ENCODING 282
SWIDTH 630 0
DWIDTH 14 0
BBX 11 22 2 0
BITMAP
3180
1B00
1B00
0E00
0000
0000
FFE0
FFE0
C000
C000
C000
C000
FFE0
FFE0
C000
C000
C000
C000
C000
C000
FFE0
FFE0
ENDCHAR
STARTCHAR 011B
ENCODING 283
SWIDTH 585 0
DWIDTH 13 0
BBX 11 18 1 0
BITMAP
3180
1B00
1B00
0E00
0000
0000
1F00
3FC0
70C0
E060
C060
FFE0
FFE0
C000
C000
7020
3FE0
1FC0
ENDCHAR
STARTCHAR 011C
ENCODING 284
SWIDTH 765 0
DWIDTH 17 0
BBX 14 22 1 0
BITMAP
0380
06C0
06C0
0C60
0000
0000
07F0
1FFC
381C
7004
6000
C000
C000
C000
C0FC
C0FC
C00C
600C
700C
380C
1FFC
07E0
ENDCHAR
STARTCHAR 011D
ENCODING 285
SWIDTH 630 0
DWIDTH 14 0
BBX 11 22 1 -4
BITMAP
0700
0D80
0D80
18C0
0000
0000
1F60
3FE0
7060
E060
C060
C060
C060
C060
C060
60E0
7FE0
1E60
0060
40C0
7FC0
7F00
ENDCHAR
STARTCHAR 011E
ENCODING 286
SWIDTH 765 0
DWIDTH 17 0
BBX 14 22 1 0
BITMAP
0C30
0C30
0660
03C0
0000
0000
07F0
1FFC
381C
7004
6000
C000
C000
C000
C0FC
C0FC
C00C
600C
700C
380C
1FFC
07E0
ENDCHAR
STARTCHAR 011F
ENCODING 287
SWIDTH 630 0
DWIDTH 14 0
BBX 11 22 1 -4
BITMAP
30C0
30C0
1980
0F00
0000
0000
1F60
3FE0
7060
E060
C060
C060
C060
C060
C060
60E0
7FE0
1E60
0060
40C0
7FC0
7F00
ENDCHAR
STARTCHAR 0120
ENCODING 288
SWIDTH 765 0
DWIDTH 17 0
BBX 14 20 1 0
BITMAP
0180
0180
0000
0000
07F0
1FFC
381C
7004
6000
C000
C000
C000
C0FC
C0FC
C00C
600C
700C
380C
1FFC
07E0
ENDCHAR
STARTCHAR 0121
ENCODING 289
SWIDTH 630 0
DWIDTH 14 0
BBX 11 20 1 -4
BITMAP
0600
0600
0000
0000
1F60
3FE0
7060
E060
C060
C060
C060
C060
C060
60E0
7FE0
1E60
0060
40C0
7FC0
7F00
ENDCHAR
STARTCHAR 0122
ENCODING 290
SWIDTH 765 0
DWIDTH 17 0
BBX 14 20 1 -4
BITMAP
07F0
1FFC
381C
7004
6000
C000
C000
C000
C0FC
C0FC
C00C
600C
700C
380C
1FFC
07E0
00C0
00C0
0FC0
0F00
ENDCHAR
STARTCHAR 0123
ENCODING 291
SWIDTH 630 0
DWIDTH 14 0
BBX 11 22 1 -4
BITMAP
0180
0300
0700
0E00
0000
0000
1F60
3FE0
7060
E060
C060
C060
C060
C060
C060
60E0
7FE0
1E60
0060
40C0
7FC0
7F00
ENDCHAR
STARTCHAR 0124
ENCODING 292
SWIDTH 765 0
DWIDTH 17 0
BBX 13 22 2 0
BITMAP
0700
0D80
0D80
18C0
0000
0000
C018
C018
C018
C018
C018
C018
FFF8
FFF8
C018
C018
C018
C018
C018
C018
C018
C018
ENDCHAR
STARTCHAR 0125
ENCODING 293
SWIDTH 630 0
DWIDTH 14 0
BBX 10 22 2 0
BITMAP
0E00
1B00
1B00
3180
0000
C000
C000
C000
C000
C000
CF00
FF80
E1C0
C0C0
C0C0
C0C0
C0C0
C0C0
C0C0
C0C0
C0C0
C0C0
ENDCHAR
STARTCHAR 0126
ENCODING 294
SWIDTH 765 0
DWIDTH 17 0
BBX 17 16 0 0
BITMAP
300600
300600
FFFF80
FFFF80
300600
300600
3FFE00
3FFE00
300600
300600
300600
300600
300600
300600
300600
300600
ENDCHAR
STARTCHAR 0127
ENCODING 295
SWIDTH 630 0
DWIDTH 14 0
BBX 12 17 0 0
BITMAP
3000
3000
FE00
FE00
3000
33C0
3FE0
3870
3030
3030
3030
3030
3030
3030
3030
3030
3030
ENDCHAR
STARTCHAR 0128
ENCODING 296
SWIDTH 450 0
DWIDTH 10 0
BBX 8 21 1 0
BITMAP
71
FF
9E
00
00
7E
7E
18
18
18
18
18
18
18
18
18
18
18
18
7E
7E
ENDCHAR
STARTCHAR 0129
ENCODING 297
SWIDTH 270 0
DWIDTH 6 0
BBX 6 17 0 0
BITMAP
64
B4
98
00
00
30
30
30
30
30
30
30
30
30
30
30
30
ENDCHAR
STARTCHAR 012A
ENCODING 298
SWIDTH 450 0
DWIDTH 10 0
BBX 8 20 1 0
BITMAP
FF
FF
00
00
7E
7E
18
18
18
18
18
18
18
18
18
18
18
18
7E
7E
ENDCHAR
STARTCHAR 012B
ENCODING 299
SWIDTH 270 0
DWIDTH 6 0
BBX 6 16 0 0
BITMAP
FC
FC
00
00
30
30
30
30
30
30
30
30
30
30
30
30
ENDCHAR
STARTCHAR 012C
ENCODING 300
SWIDTH 450 0
DWIDTH 10 0
BBX 6 21 2 0
BITMAP
CC
CC
48
78
00
FC
FC
30
30
30
30
30
30
30
30
30
30
30
30
FC
FC
ENDCHAR
STARTCHAR 012D
ENCODING 301
SWIDTH 270 0
DWIDTH 6 0
BBX 6 18 0 0
BITMAP
CC
CC
48
78
00
00
30
30
30
30
30
30
30
30
30
30
30
30
ENDCHAR
STARTCHAR 012E
ENCODING 302
SWIDTH 450 0
DWIDTH 10 0
BBX 7 20 2 -4
BITMAP
FC
FC
30
30
30
30
30
30
30
30
30
30
30
30
FC
FC
30
30
3E
1E
ENDCHAR
STARTCHAR 012F
ENCODING 303
SWIDTH 270 0
DWIDTH 6 0
BBX 5 20 1 -4
BITMAP
60
60
00
00
60
60
60
60
60
60
60
60
60
60
60
60
C0
C0
F8
78
ENDCHAR
STARTCHAR 0130
ENCODING 304
SWIDTH 450 0
DWIDTH 10 0
BBX 6 20 2 0
BITMAP
30
30
00
00
FC
FC
30
30
30
30
30
30
30
30
30
30
30
30
FC
FC
ENDCHAR
STARTCHAR 0131
ENCODING 305
SWIDTH 270 0
DWIDTH 6 0
BBX 2 12 2 0
BITMAP
C0
C0
C0
C0
C0
C0
C0
C0
C0
C0
C0
C0
ENDCHAR
STARTCHAR 0132
ENCODING 306
SWIDTH 855 0
DWIDTH 19 0
BBX 15 16 2 0
BITMAP
FC7E
FC7E
3006
3006
3006
3006
3006
3006
3006
3006
3006
3006
3006
300E
FDFC
FDF8
ENDCHAR
STARTCHAR 0133
ENCODING 307
SWIDTH 630 0
DWIDTH 14 0
BBX 10 20 2 -4
BITMAP
C0C0
C0C0
0000
0000
C7C0
C7C0
C0C0
C0C0
C0C0
C0C0
C0C0
C0C0
C0C0
C0C0
C0C0
C0C0
00C0
01C0
0F80
0F00
ENDCHAR
STARTCHAR 0134
ENCODING 308
SWIDTH 450 0
DWIDTH 10 0
BBX 9 22 0 0
BITMAP
0E00
1B00
1B00
3180
0000
0000
3F00
3F00
0300
0300
0300
0300
0300
0300
0300
0300
0300
0300
0300
0700
FE00
FC00
ENDCHAR
STARTCHAR 0135
ENCODING 309
SWIDTH 360 0
DWIDTH 8 0
BBX 8 22 0 -4
BITMAP
3C
3C
66
C3
00
00
7C
7C
0C
0C
0C
0C
0C
0C
0C
0C
0C
0C
0C
1C
F8
F0
ENDCHAR
STARTCHAR 0136
ENCODING 310
SWIDTH 675 0
DWIDTH 15 0
BBX 13 20 2 -4
BITMAP
C030
C060
C0C0
C180
C300
C600
CC00
D800
FC00
E600
C700
C380
C1C0
C0E0
C070
C038
0300
0300
3F00
3E00
ENDCHAR
STARTCHAR 0137
ENCODING 311
SWIDTH 585 0
DWIDTH 13 0
BBX 11 21 2 -4
BITMAP
C000
C000
C000
C000
C000
C0C0
C180
C300
C600
CC00
D800
FC00
EE00
C700
C380
C1C0
C0E0
0600
0600
7E00
7C00
ENDCHAR
STARTCHAR 0138
ENCODING 312
SWIDTH 585 0
DWIDTH 13 0
BBX 11 12 2 0
BITMAP
C0C0
C180
C300
C600
CC00
D800
FC00
EE00
C700
C380
C1C0
C0E0
ENDCHAR
STARTCHAR 0139
ENCODING 313
SWIDTH 540 0
DWIDTH 12 0
BBX 10 22 2 0
BITMAP
3800
7000
6000
C000
0000
0000
C000
C000
C000
C000
C000
C000
C000
C000
C000
C000
C000
C000
C000
C000
FFC0
FFC0
ENDCHAR
STARTCHAR 013A
ENCODING 314
SWIDTH 270 0
DWIDTH 6 0
BBX 5 22 2 0
BITMAP
38
70
60
C0
00
C0
C0
C0
C0
C0
C0
C0
C0
C0
C0
C0
C0
C0
C0
C0
C0
C0
ENDCHAR
STARTCHAR 013B
ENCODING 315
SWIDTH 540 0
DWIDTH 12 0
BBX 10 20 2 -4
BITMAP
C000
C000
C000
C000
C000
C000
C000
C000
C000
C000
C000
C000
C000
C000
FFC0
FFC0
0600
0600
7E00
7800
ENDCHAR
STARTCHAR 013C
ENCODING 316
SWIDTH 270 0
DWIDTH 6 0
BBX 5 21 1 -4
BITMAP
60
60
60
60
60
60
60
60
60
60
60
60
60
60
60
60
60
18
18
F8
F0
ENDCHAR
STARTCHAR 013D
ENCODING 317
SWIDTH 540 0
DWIDTH 12 0
BBX 10 17 2 0
BITMAP
0700
C600
C600
CC00
CC00
C000
C000
C000
C000
C000
C000
C000
C000
C000
C000
FFC0
FFC0
ENDCHAR
STARTCHAR 013E
ENCODING 318
SWIDTH 315 0
DWIDTH 7 0
BBX 7 17 2 0
BITMAP
CE
CC
CC
D8
D8
C0
C0
C0
C0
C0
C0
C0
C0
C0
C0
C0
C0
ENDCHAR
STARTCHAR 013F
ENCODING 319
SWIDTH 540 0
DWIDTH 12 0
BBX 10 16 2 0
BITMAP
C000
C000
C000
C000
C000
C000
C000
C000
C380
C380
C380
C000
C000
C000
FFC0
FFC0
ENDCHAR
STARTCHAR 0140
ENCODING 320
SWIDTH 450 0
DWIDTH 10 0
BBX 8 17 2 0
BITMAP
C0
C0
C0
C0
C0
C0
C0
C0
C7
C7
C7
C0
C0
C0
C0
C0
C0
ENDCHAR
STARTCHAR 0141
ENCODING 321
SWIDTH 540 0
DWIDTH 12 0
BBX 12 16 0 0
BITMAP
3000
3000
3000
3000
3100
3300
3600
3C00
3000
7000
F000
B000
3000
3000
3FF0
3FF0
ENDCHAR
STARTCHAR 0142
ENCODING 322
SWIDTH 270 0
DWIDTH 6 0
BBX 6 17 0 0
BITMAP
30
30
30
30
30
30
34
3C
38
70
F0
B0
30
30
30
30
30
ENDCHAR
STARTCHAR 0143
ENCODING 323
SWIDTH 720 0
DWIDTH 16 0
BBX 12 22 2 0
BITMAP
01C0
0380
0300
0600
0000
0000
F030
F030
F830
D830
DC30
CC30
CE30
C630
C330
C330
C1B0
C1B0
C0F0
C0F0
C070
C070
ENDCHAR
STARTCHAR 0144
ENCODING 324
SWIDTH 630 0
DWIDTH 14 0
BBX 10 18 2 0
BITMAP
0380
0700
0600
0C00
0000
0000
CF00
FF80
E1C0
C0C0
C0C0
C0C0
C0C0
C0C0
C0C0
C0C0
C0C0
C0C0
ENDCHAR
STARTCHAR 0145
ENCODING 325
SWIDTH 720 0
DWIDTH 16 0
BBX 12 20 2 -4
BITMAP
F030
F030
F830
D830
DC30
CC30
CE30
C630
C330
C330
C1B0
C1B0
C0F0
C0F0
C070
C070
0300
0300
3F00
3E00
ENDCHAR
STARTCHAR 0146
ENCODING 326
SWIDTH 630 0
DWIDTH 14 0
BBX 10 16 2 -4
BITMAP
CF00
FF80
E1C0
C0C0
C0C0
C0C0
C0C0
C0C0
C0C0
C0C0
C0C0
C0C0
0600
0600
7E00
7C00
ENDCHAR
STARTCHAR 0147
ENCODING 327
SWIDTH 720 0
DWIDTH 16 0
BBX 12 22 2 0
BITMAP
18C0
0D80
0D80
0700
0000
0000
F030
F030
F830
D830
DC30
CC30
CE30
C630
C330
C330
C1B0
C1B0
C0F0
C0F0
C070
C070
ENDCHAR
STARTCHAR 0148
ENCODING 328
SWIDTH 630 0
DWIDTH 14 0
BBX 10 18 2 0
BITMAP
6300
3600
3600
1C00
0000
0000
CF00
FF80
E1C0
C0C0
C0C0
C0C0
C0C0
C0C0
C0C0
C0C0
C0C0
C0C0
ENDCHAR
STARTCHAR 0149
ENCODING 329
SWIDTH 720 0
DWIDTH 16 0
BBX 14 17 0 0
BITMAP
7000
6000
6000
4000
C000
CCF0
0FF8
0E1C
0C0C
0C0C
0C0C
0C0C
0C0C
0C0C
0C0C
0C0C
0C0C
ENDCHAR
STARTCHAR 014A
ENCODING 330
SWIDTH 720 0
DWIDTH 16 0
BBX 12 20 2 -4
BITMAP
F030
F030
F830
D830
CC30
CC30
C630
C630
C330
C3B0
C1B0
C1F0
C0F0
C070
C070
C030
0030
0070
03E0
03C0
ENDCHAR
STARTCHAR 014B
ENCODING 331
SWIDTH 630 0
DWIDTH 14 0
BBX 10 16 2 -4
BITMAP
CF00
FF80
E1C0
C0C0
C0C0
C0C0
C0C0
C0C0
C0C0
C0C0
C0C0
C0C0
00C0
01C0
0F80
0F00
ENDCHAR
STARTCHAR 014C
ENCODING 332
SWIDTH 765 0
DWIDTH 17 0
BBX 15 20 1 0
BITMAP
0FF0
0FF0
0000
0000
0FE0
1FF0
3838
701C
600C
C006
C006
C006
C006
C006
C006
600C
701C
3838
1FF0
0FE0
ENDCHAR
STARTCHAR 014D
ENCODING 333
SWIDTH 585 0
DWIDTH 13 0
BBX 11 16 1 0
BITMAP
3FC0
3FC0
0000
0000
1F00
3F80
71C0
E0E0
C060
C060
C060
C060
E0E0
71C0
3F80
1F00
ENDCHAR
STARTCHAR 014E
ENCODING 334
SWIDTH 765 0
DWIDTH 17 0
BBX 15 22 1 0
BITMAP
0C30
0C30
0660
03C0
0000
0000
0FE0
1FF0
3838
701C
600C
C006
C006
C006
C006
C006
C006
600C
701C
3838
1FF0
0FE0
ENDCHAR
STARTCHAR 014F
ENCODING 335
SWIDTH 585 0
DWIDTH 13 0
BBX 11 18 1 0
BITMAP
30C0
30C0
1980
0F00
0000
0000
1F00
3F80
71C0
E0E0
C060
C060
C060
C060
E0E0
71C0
3F80
1F00
ENDCHAR
STARTCHAR 0150
ENCODING 336
SWIDTH 765 0
DWIDTH 17 0
BBX 15 22 1 0
BITMAP
03B8
0330
0220
0660
0000
0000
0FE0
1FF0
3838
701C
600C
C006
C006
C006
C006
C006
C006
600C
701C
3838
1FF0
0FE0
ENDCHAR
STARTCHAR 0151
ENCODING 337
SWIDTH 585 0
DWIDTH 13 0
BBX 11 18 1 0
BITMAP
0EE0
0CC0
0880
1980
0000
0000
1F00
3F80
71C0
E0E0
C060
C060
C060
C060
E0E0
71C0
3F80
1F00
ENDCHAR
STARTCHAR 0152
ENCODING 338
SWIDTH 1080 0
DWIDTH 24 0
BBX 22 16 1 0
BITMAP
07FFFC
1FFFFC
3C1800
701800
601800
C01800
C01FFC
C01FFC
C01800
C01800
C01800
601800
701800
3C1800
1FFFFC
07FFFC
ENDCHAR
STARTCHAR 0153
ENCODING 339
SWIDTH 990 0
DWIDTH 22 0
BBX 20 12 1 0
BITMAP
1F0F80
3F9FE0
71F860
E0F030
C06030
C07FF0
C07FF0
C06000
E0E000
71F810
3F9FF0
1F07E0
ENDCHAR
STARTCHAR 0154
ENCODING 340
SWIDTH 675 0
DWIDTH 15 0
BBX 13 22 2 0
BITMAP
0380
0700
0600
0C00
0000
0000
FF00
FF80
C1C0
C0C0
C0C0
C0C0
C0C0
C180
FF00
FE00
C300
C380
C1C0
C0E0
C070
C038
ENDCHAR
STARTCHAR 0155
ENCODING 341
SWIDTH 405 0
DWIDTH 9 0
BBX 7 18 2 0
BITMAP
1C
38
30
60
00
00
CE
FE
E0
C0
C0
C0
C0
C0
C0
C0
C0
C0
ENDCHAR
STARTCHAR 0156
ENCODING 342
SWIDTH 675 0
DWIDTH 15 0
BBX 13 20 2 -4
BITMAP
FF00
FF80
C1C0
C0C0
C0C0
C0C0
C0C0
C180
FF00
FE00
C300
C380
C1C0
C0E0
C070
C038
0600
0600
7E00
7C00
ENDCHAR
STARTCHAR 0157
ENCODING 343
SWIDTH 405 0
DWIDTH 9 0
BBX 8 16 1 -4
BITMAP
67
7F
70
60
60
60
60
60
60
60
60
60
18
18
F8
F0
ENDCHAR
STARTCHAR 0158
ENCODING 344
SWIDTH 675 0
DWIDTH 15 0
BBX 13 22 2 0
BITMAP
6300
3600
3600
1C00
0000
0000
FF00
FF80
C1C0
C0C0
C0C0
C0C0
C0C0
C180
FF00
FE00
C300
C380
C1C0
C0E0
C070
C038
ENDCHAR
STARTCHAR 0159
ENCODING 345
SWIDTH 405 0
DWIDTH 9 0
BBX 7 18 2 0
BITMAP
C6
6C
6C
38
00
00
CE
FE
E0
C0
C0
C0
C0
C0
C0
C0
C0
C0
ENDCHAR
STARTCHAR 015A
ENCODING 346
SWIDTH 675 0
DWIDTH 15 0
BBX 13 22 1 0
BITMAP
01C0
0380
0300
0600
0000
0000
1FC0
7FF0
6070
C010
C000
C000
7000
3FC0
0FF0
0078
0018
0018
8018
E070
FFE0
3FC0
ENDCHAR
STARTCHAR 015B
ENCODING 347
SWIDTH 495 0
DWIDTH 11 0
BBX 9 18 1 0
BITMAP
0700
0E00
0C00
1800
0000
0000
3F00
7F80
C080
C000
E000
7E00
1F00
0380
0180
8180
FF00
7E00
ENDCHAR
STARTCHAR 015C
ENCODING 348
SWIDTH 675 0
DWIDTH 15 0
BBX 13 22 1 0
BITMAP
0700
0D80
0D80
18C0
0000
0000
1FC0
7FF0
6070
C010
C000
C000
7000
3FC0
0FF0
0078
0018
0018
8018
E070
FFE0
3FC0
ENDCHAR
STARTCHAR 015D
ENCODING 349
SWIDTH 495 0
DWIDTH 11 0
BBX 9 18 1 0
BITMAP
0E00
1B00
1B00
3180
0000
0000
3F00
7F80
C080
C000
E000
7E00
1F00
0380
0180
8180
FF00
7E00
ENDCHAR
STARTCHAR 015E
ENCODING 350
SWIDTH 675 0
DWIDTH 15 0
BBX 13 20 1 -4
BITMAP
1FC0
7FF0
6070
C010
C000
C000
7000
3FC0
0FF0
0078
0018
0018
8018
E070
FFE0
3FC0
0180
0180
1F80
1E00
ENDCHAR
STARTCHAR 015F
ENCODING 351
SWIDTH 495 0
DWIDTH 11 0
BBX 9 16 1 -4
BITMAP
3F00
7F80
C080
C000
E000
7E00
1F00
0380
0180
8180
FF00
7E00
0600
0600
7E00
7800
ENDCHAR
STARTCHAR 0160
ENCODING 352
SWIDTH 675 0
DWIDTH 15 0
BBX 13 22 1 0
BITMAP
18C0
0D80
0D80
0700
0000
0000
1FC0
7FF0
6070
C010
C000
C000
7000
3FC0
0FF0
0078
0018
0018
8018
E070
FFE0
3FC0
ENDCHAR
STARTCHAR 0161
ENCODING 353
SWIDTH 495 0
DWIDTH 11 0
BBX 9 18 1 0
BITMAP
6300
3600
3600
1C00
0000
0000
3F00
7F80
C080
C000
E000
7E00
1F00
0380
0180
8180
FF00
7E00
ENDCHAR
STARTCHAR 0162
ENCODING 354
SWIDTH 630 0
DWIDTH 14 0
BBX 14 20 0 -4
BITMAP
FFFC
FFFC
0300
0300
0300
0300
0300
0300
0300
0300
0300
0300
0300
0300
0300
0300
0300
0300
3F00
3C00
ENDCHAR
STARTCHAR 0163
ENCODING 355
SWIDTH 405 0
DWIDTH 9 0
BBX 8 19 1 -4
BITMAP
60
60
60
FF
FF
60
60
60
60
60
60
60
70
3F
1F
06
06
7E
78
ENDCHAR
STARTCHAR 0164
ENCODING 356
SWIDTH 630 0
DWIDTH 14 0
BBX 14 22 0 0
BITMAP
0C60
06C0
06C0
0380
0000
0000
FFFC
FFFC
0300
0300
0300
0300
0300
0300
0300
0300
0300
0300
0300
0300
0300
0300
ENDCHAR
STARTCHAR 0165
ENCODING 357
SWIDTH 405 0
DWIDTH 9 0
BBX 9 19 1 0
BITMAP
0380
0300
0300
0600
6600
6000
6000
FF00
FF00
6000
6000
6000
6000
6000
6000
6000
7000
3F00
1F00
ENDCHAR
STARTCHAR 0166
ENCODING 358
SWIDTH 630 0
DWIDTH 14 0
BBX 14 16 0 0
BITMAP
FFFC
FFFC
0300
0300
0300
0300
0300
3FF0
3FF0
0300
0300
0300
0300
0300
0300
0300
ENDCHAR
STARTCHAR 0167
ENCODING 359
SWIDTH 405 0
DWIDTH 9 0
BBX 8 15 1 0
BITMAP
60
60
60
FF
FF
60
60
60
FE
FE
60
60
70
7F
1F
ENDCHAR
STARTCHAR 0168
ENCODING 360
SWIDTH 720 0
DWIDTH 16 0
BBX 12 21 2 0
BITMAP
1E20
3FE0
23C0
0000
0000
C030
C030
C030
C030
C030
C030
C030
C030
C030
C030
C030
C030
E070
70E0
3FC0
1F80
ENDCHAR
STARTCHAR 0169
ENCODING 361
SWIDTH 630 0
DWIDTH 14 0
BBX 10 17 2 0
BITMAP
3C40
7FC0
4780
0000
0000
C0C0
C0C0
C0C0
C0C0
C0C0
C0C0
C0C0
C0C0
C0C0
E1C0
7FC0
3CC0
ENDCHAR
STARTCHAR 016A
ENCODING 362
SWIDTH 720 0
DWIDTH 16 0
BBX 12 20 2 0
BITMAP
3FC0
3FC0
0000
0000
C030
C030
C030
C030
C030
C030
C030
C030
C030
C030
C030
C030
E070
70E0
3FC0
1F80
ENDCHAR
STARTCHAR 016B
ENCODING 363
SWIDTH 630 0
DWIDTH 14 0
BBX 10 16 2 0
BITMAP
7F80
7F80
0000
0000
C0C0
C0C0
C0C0
C0C0
C0C0
C0C0
C0C0
C0C0
C0C0
E1C0
7FC0
3CC0
ENDCHAR
STARTCHAR 016C
ENCODING 364
SWIDTH 720 0
DWIDTH 16 0
BBX 12 22 2 0
BITMAP
30C0
30C0
1980
0F00
0000
0000
C030
C030
C030
C030
C030
C030
C030
C030
C030
C030
C030
C030
E070
70E0
3FC0
1F80
ENDCHAR
STARTCHAR 016D
ENCODING 365
SWIDTH 630 0
DWIDTH 14 0
BBX 10 18 2 0
BITMAP
6180
6180
3300
1E00
0000
0000
C0C0
C0C0
C0C0
C0C0
C0C0
C0C0
C0C0
C0C0
C0C0
E1C0
7FC0
3CC0
ENDCHAR
STARTCHAR 016E
ENCODING 366
SWIDTH 720 0
DWIDTH 16 0
BBX 12 22 2 0
BITMAP
0700
0F80
18C0
18C0
18C0
0F80
C730
C030
C030
C030
C030
C030
C030
C030
C030
C030
C030
C030
E070
70E0
3FC0
1F80
ENDCHAR
STARTCHAR 016F
ENCODING 367
SWIDTH 630 0
DWIDTH 14 0
BBX 10 21 2 0
BITMAP
0E00
1F00
3180
3180
3180
1F00
0E00
0000
0000
C0C0
C0C0
C0C0
C0C0
C0C0
C0C0
C0C0
C0C0
C0C0
E1C0
7FC0
3CC0
ENDCHAR
STARTCHAR 0170
ENCODING 368
SWIDTH 720 0
DWIDTH 16 0
BBX 12 22 2 0
BITMAP
0770
0660
0440
0CC0
0000
0000
C030
C030
C030
C030
C030
C030
C030
C030
C030
C030
C030
C030
E070
70E0
3FC0
1F80
ENDCHAR
STARTCHAR 0171
ENCODING 369
SWIDTH 630 0
DWIDTH 14 0
BBX 11 18 2 0
BITMAP
0EE0
0CC0
0880
1980
0000
0000
C0C0
C0C0
C0C0
C0C0
C0C0
C0C0
C0C0
C0C0
C0C0
E1C0
7FC0
3CC0
ENDCHAR
STARTCHAR 0172
ENCODING 370
SWIDTH 720 0
DWIDTH 16 0
BBX 12 20 2 -4
BITMAP
C030
C030
C030
C030
C030
C030
C030
C030
C030
C030
C030
C030
E070
70E0
3FC0
1F80
0300
0300
03E0
01E0
ENDCHAR
STARTCHAR 0173
ENCODING 371
SWIDTH 630 0
DWIDTH 14 0
BBX 13 16 2 -4
BITMAP
C0C0
C0C0
C0C0
C0C0
C0C0
C0C0
C0C0
C0C0
C0C0
E1C0
7FC0
3CC0
00C0
00C0
00F8
0078
ENDCHAR
STARTCHAR 0174
ENCODING 372
SWIDTH 990 0
DWIDTH 22 0
BBX 20 22 1 0
BITMAP
007000
00D800
00D800
018C00
000000
000000
C06030
C07030
60F060
60F060
60F060
709860
3198C0
3198C0
3198C0
190CC0
1B0D80
1B0D80
1B0D80
0E0700
0E0700
0E0700
ENDCHAR
STARTCHAR 0175
ENCODING 373
SWIDTH 810 0
DWIDTH 18 0
BBX 16 18 1 0
BITMAP
01C0
0360
0360
0630
0000
0000
C183
C183
63C6
63C6
6246
6666
3664
342C
343C
3C3C
1818
1818
ENDCHAR
STARTCHAR 0176
ENCODING 374
SWIDTH 630 0
DWIDTH 14 0
BBX 14 22 0 0
BITMAP
0380
06C0
06C0
0C60
0000
0000
E01C
6018
3030
3870
1860
0CC0
0FC0
0780
0300
0300
0300
0300
0300
0300
0300
0300
ENDCHAR
STARTCHAR 0177
ENCODING 375
SWIDTH 585 0
DWIDTH 13 0
BBX 11 22 1 -4
BITMAP
0E00
1B00
1B00
3180
0000
0000
C060
60C0
60C0
60C0
3180
3180
1B00
1B00
1B00
0E00
0E00
0C00
0C00
1800
1800
3800
ENDCHAR
STARTCHAR 0178
ENCODING 376
SWIDTH 630 0
DWIDTH 14 0
BBX 14 20 0 0
BITMAP
0CC0
0CC0
0000
0000
E01C
6018
3030
3870
1860
0CC0
0FC0
0780
0300
0300
0300
0300
0300
0300
0300
0300
ENDCHAR
STARTCHAR 0179
ENCODING 377
SWIDTH 675 0
DWIDTH 15 0
BBX 13 22 1 0
BITMAP
01C0
0380
0300
0600
0000
0000
FFF8
FFF8
0038
0070
00E0
01C0
0180
0300
0600
0C00
1C00
3800
7000
E000
FFF8
FFF8
ENDCHAR
STARTCHAR 017A
ENCODING 378
SWIDTH 540 0
DWIDTH 12 0
BBX 10 18 1 0
BITMAP
0700
0E00
0C00
1800
0000
0000
FFC0
FFC0
01C0
0380
0700
0E00
1C00
3800
7000
E000
FFC0
FFC0
ENDCHAR
STARTCHAR 017B
ENCODING 379
SWIDTH 675 0
DWIDTH 15 0
BBX 13 20 1 0
BITMAP
0300
0300
0000
0000
FFF8
FFF8
0038
0070
00E0
01C0
0180
0300
0600
0C00
1C00
3800
7000
E000
FFF8
FFF8
ENDCHAR
STARTCHAR 017C
ENCODING 380
SWIDTH 540 0
DWIDTH 12 0
BBX 10 16 1 0
BITMAP
0C00
0C00
0000
0000
FFC0
FFC0
01C0
0380
0700
0E00
1C00
3800
7000
E000
FFC0
FFC0
ENDCHAR
STARTCHAR 017D
ENCODING 381
SWIDTH 675 0
DWIDTH 15 0
BBX 13 22 1 0
BITMAP
18C0
0D80
0D80
0700
0000
0000
FFF8
FFF8
0038
0070
00E0
01C0
0180
0300
0600
0C00
1C00
3800
7000
E000
FFF8
FFF8
ENDCHAR
STARTCHAR 017E
ENCODING 382
SWIDTH 540 0
DWIDTH 12 0
BBX 10 18 1 0
BITMAP
3180
1B00
1B00
0E00
0000
0000
FFC0
FFC0
01C0
0380
0700
0E00
1C00
3800
7000
E000
FFC0
FFC0
ENDCHAR
STARTCHAR 017F
ENCODING 383
SWIDTH 315 0
DWIDTH 7 0
BBX 6 17 2 0
BITMAP
3C
7C
E0
C0
C0
C0
C0
C0
C0
C0
C0
C0
C0
C0
C0
C0
C0
ENDCHAR
STARTCHAR 0192
ENCODING 402
SWIDTH 630 0
DWIDTH 14 0
BBX 14 18 0 -2
BITMAP
003C
00FC
00C0
0180
0180
0180
0180
0FF0
0FF0
0300
0300
0600
0600
0600
0600
0C00
FC00
F000
ENDCHAR
STARTCHAR 01A0
ENCODING 416
SWIDTH 810 0
DWIDTH 18 0
BBX 17 16 1 0
BITMAP
0FC180
1FF180
383980
701D80
600F00
C00600
C00600
C00600
C00600
C00600
C00600
600C00
701C00
383800
1FF000
0FE000
ENDCHAR
STARTCHAR 01A1
ENCODING 417
SWIDTH 585 0
DWIDTH 13 0
BBX 12 16 1 0
BITMAP
0030
0030
0030
0030
1FE0
3FC0
71C0
E0E0
C060
C060
C060
C060
E0E0
71C0
3F80
1F00
ENDCHAR
STARTCHAR 01AF
ENCODING 431
SWIDTH 765 0
DWIDTH 17 0
BBX 17 20 2 0
BITMAP
000180
000180
000180
000180
C01F00
C01800
C01800
C01800
C01800
C01800
C01800
C01800
C01800
C01800
C01800
C01800
E03800
707000
3FE000
1FC000
ENDCHAR
STARTCHAR 01B0
ENCODING 432
SWIDTH 675 0
DWIDTH 15 0
BBX 14 16 2 0
BITMAP
000C
000C
000C
000C
C0F8
C0C0
C0C0
C0C0
C0C0
C0C0
C0C0
C0C0
C0C0
E1C0
7FC0
3CC0
ENDCHAR
STARTCHAR 01FA
ENCODING 506
SWIDTH 675 0
DWIDTH 15 0
BBX 15 22 0 0
BITMAP
01C0
0180
0300
07C0
0FE0
0C60
0C60
07C0
06C0
06C0
0EC0
0C60
0C60
1830
1830
1830
3FF8
3FF8
600C
600C
600C
C006
ENDCHAR
STARTCHAR 01FB
ENCODING 507
SWIDTH 585 0
DWIDTH 13 0
BBX 10 19 1 0
BITMAP
0700
0600
0C00
1E00
3300
3300
3300
3E00
7F80
41C0
00C0
1FC0
7FC0
F0C0
C0C0
C0C0
E1C0
7FC0
3CC0
ENDCHAR
STARTCHAR 01FC
ENCODING 508
SWIDTH 945 0
DWIDTH 21 0
BBX 20 22 0 0
BITMAP
000700
000E00
000C00
001800
000000
000000
03FFF0
03FFF0
063000
063000
063000
0C3000
0C3FF0
183FF0
1FF000
1FF000
303000
303000
603000
603000
603FF0
C03FF0
ENDCHAR
STARTCHAR 01FD
ENCODING 509
SWIDTH 945 0
DWIDTH 21 0
BBX 19 18 1 0
BITMAP
001C00
003800
003000
006000
000000
000000
3F1F00
7FBFC0
41F0C0
00E060
00C060
1FFFE0
7FFFE0
E0C000
C0C000
C1F020
7F3FE0
3E1FC0
ENDCHAR
STARTCHAR 01FE
ENCODING 510
SWIDTH 765 0
DWIDTH 17 0
BBX 15 23 1 -1
BITMAP
0070
00E0
00C0
0180
0000
0004
0FCC
1FF8
3838
703C
602C
C046
C086
C186
C306
C206
C406
680C
781C
3838
3FF0
67E0
4000
ENDCHAR
STARTCHAR 01FF
ENCODING 511
SWIDTH 585 0
DWIDTH 13 0
BBX 11 19 1 -1
BITMAP
01C0
0380
0300
0600
0000
0060
1F40
3F80
70C0
E1E0
C260
C460
C460
C860
F0E0
71C0
3F80
5F00
C000
ENDCHAR
STARTCHAR 02C6
ENCODING 710
SWIDTH 630 0
DWIDTH 14 0
BBX 7 4 3 14
BITMAP
38
6C
6C
C6
ENDCHAR
STARTCHAR 02C7
ENCODING 711
SWIDTH 630 0
DWIDTH 14 0
BBX 7 4 3 14
BITMAP
C6
6C
6C
38
ENDCHAR
STARTCHAR 02C9
ENCODING 713
SWIDTH 630 0
DWIDTH 14 0
BBX 8 2 3 14
BITMAP
FF
FF
ENDCHAR
STARTCHAR 02D8
ENCODING 728
SWIDTH 630 0
DWIDTH 14 0
BBX 8 4 3 14
BITMAP
C3
C3
66
3C
ENDCHAR
STARTCHAR 02D9
ENCODING 729
SWIDTH 630 0
DWIDTH 14 0
BBX 2 2 6 14
BITMAP
C0
C0
ENDCHAR
STARTCHAR 02DA
ENCODING 730
SWIDTH 630 0
DWIDTH 14 0
BBX 7 7 3 14
BITMAP
38
7C
C6
C6
C6
7C
38
ENDCHAR
STARTCHAR 02DB
ENCODING 731
SWIDTH 630 0
DWIDTH 14 0
BBX 5 4 4 -4
BITMAP
C0
C0
F8
78
ENDCHAR
STARTCHAR 02DC
ENCODING 732
SWIDTH 630 0
DWIDTH 14 0
BBX 9 3 3 14
BITMAP
7880
FF80
8F00
ENDCHAR
STARTCHAR 02DD
ENCODING 733
SWIDTH 630 0
DWIDTH 14 0
BBX 8 4 4 14
BITMAP
77
66
44
CC
ENDCHAR
STARTCHAR 0300
ENCODING 768
SWIDTH 0 0
DWIDTH 0 0
BBX 5 4 4 14
BITMAP
E0
70
30
18
ENDCHAR
STARTCHAR 0301
ENCODING 769
SWIDTH 0 0
DWIDTH 0 0
BBX 5 4 6 14
BITMAP
38
70
60
C0
ENDCHAR
STARTCHAR 0303
ENCODING 771
SWIDTH 0 0
DWIDTH 0 0
BBX 9 3 3 14
BITMAP
7880
FF80
8F00
ENDCHAR
STARTCHAR 0309
ENCODING 777
SWIDTH 0 0
DWIDTH 0 0
BBX 3 4 6 14
BITMAP
C0
60
60
C0
ENDCHAR
STARTCHAR 0323
ENCODING 803
SWIDTH 0 0
DWIDTH 0 0
BBX 2 2 6 -4
BITMAP
C0
C0
ENDCHAR
STARTCHAR 037E
ENCODING 894
SWIDTH 450 0
DWIDTH 10 0
BBX 5 16 3 -4
BITMAP
70
70
70
00
00
00
00
00
00
38
30
70
60
60
C0
C0
ENDCHAR
STARTCHAR 0384
ENCODING 900
SWIDTH 630 0
DWIDTH 14 0
BBX 3 4 6 14
BITMAP
E0
E0
E0
40
ENDCHAR
STARTCHAR 0385
ENCODING 901
SWIDTH 630 0
DWIDTH 14 0
BBX 9 4 3 14
BITMAP
1C00
1C00
DD80
C980
ENDCHAR
STARTCHAR 0386
ENCODING 902
SWIDTH 675 0
DWIDTH 15 0
BBX 15 16 0 0
BITMAP
E380
E6C0
E6C0
46C0
0C60
0C60
0C60
1830
1830
3838
3FF8
3FF8
600C
600C
600C
C006
ENDCHAR
STARTCHAR 0387
ENCODING 903
SWIDTH 450 0
DWIDTH 10 0
BBX 3 3 4 9
BITMAP
E0
E0
E0
ENDCHAR
STARTCHAR 0388
ENCODING 904
SWIDTH 765 0
DWIDTH 17 0
BBX 16 16 0 0
BITMAP
E7FF
E7FF
E600
4600
0600
0600
07FF
07FF
0600
0600
0600
0600
0600
0600
07FF
07FF
ENDCHAR
STARTCHAR 0389
ENCODING 905
SWIDTH 855 0
DWIDTH 19 0
BBX 18 16 0 0
BITMAP
E600C0
E600C0
E600C0
4600C0
0600C0
0600C0
07FFC0
07FFC0
0600C0
0600C0
0600C0
0600C0
0600C0
0600C0
0600C0
0600C0
ENDCHAR
STARTCHAR 038A
ENCODING 906
SWIDTH 540 0
DWIDTH 12 0
BBX 11 16 0 0
BITMAP
E7E0
E7E0
E180
4180
0180
0180
0180
0180
0180
0180
0180
0180
0180
0180
07E0
07E0
ENDCHAR
STARTCHAR 038C
ENCODING 908
SWIDTH 855 0
DWIDTH 19 0
BBX 18 16 0 0
BITMAP
E1FC00
E3FE00
E70700
4E0380
0C0180
1800C0
1800C0
1800C0
1800C0
1800C0
1800C0
0C0180
0E0380
070700
03FE00
01FC00
ENDCHAR
STARTCHAR 038E
ENCODING 910
SWIDTH 765 0
DWIDTH 17 0
BBX 17 16 0 0
BITMAP
FC0380
EC0300
E60600
470E00
030C00
019800
01F800
00F000
006000
006000
006000
006000
006000
006000
006000
006000
ENDCHAR
STARTCHAR 038F
ENCODING 911
SWIDTH 900 0
DWIDTH 20 0
BBX 19 16 0 0
BITMAP
E0FC00
E3FF00
E70380
460180
0C00C0
0C00C0
0C00C0
0C00C0
0C00C0
0E01C0
060180
030300
018600
018600
1F87E0
1F87E0
ENDCHAR
STARTCHAR 0390
ENCODING 912
SWIDTH 270 0
DWIDTH 6 0
BBX 8 18 -1 0
BITMAP
18
18
DB
D3
00
00
18
18
18
18
18
18
18
18
18
18
18
18
ENDCHAR
STARTCHAR 0391
ENCODING 913
SWIDTH 675 0
DWIDTH 15 0
BBX 15 16 0 0
BITMAP
0380
06C0
06C0
06C0
0C60
0C60
0C60
1830
1830
3838
3FF8
3FF8
600C
600C
600C
C006
ENDCHAR
STARTCHAR 0392
ENCODING 914
SWIDTH 675 0
DWIDTH 15 0
BBX 12 16 2 0
BITMAP
FF80
FFC0
C0E0
C060
C060
C0C0
FF80
FFE0
C060
C030
C030
C030
C030
C0E0
FFC0
FF80
ENDCHAR
STARTCHAR 0393
ENCODING 915
SWIDTH 540 0
DWIDTH 12 0
BBX 10 16 2 0
BITMAP
FFC0
FFC0
C000
C000
C000
C000
C000
C000
C000
C000
C000
C000
C000
C000
C000
C000
ENDCHAR
STARTCHAR 0394
ENCODING 916
SWIDTH 675 0
DWIDTH 15 0
BBX 15 16 0 0
BITMAP
0380
07C0
06C0
06C0
0CE0
0C60
0C60
1830
1830
3838
3018
3018
600C
600C
7FFC
FFFE
ENDCHAR
STARTCHAR 0395
ENCODING 917
SWIDTH 630 0
DWIDTH 14 0
BBX 11 16 2 0
BITMAP
FFE0
FFE0
C000
C000
C000
C000
FFE0
FFE0
C000
C000
C000
C000
C000
C000
FFE0
FFE0
ENDCHAR
STARTCHAR 0396
ENCODING 918
SWIDTH 675 0
DWIDTH 15 0
BBX 13 16 1 0
BITMAP
FFF8
FFF8
0038
0070
00E0
01C0
0180
0300
0600
0C00
1C00
3800
7000
E000
FFF8
FFF8
ENDCHAR
STARTCHAR 0397
ENCODING 919
SWIDTH 765 0
DWIDTH 17 0
BBX 13 16 2 0
BITMAP
C018
C018
C018
C018
C018
C018
FFF8
FFF8
C018
C018
C018
C018
C018
C018
C018
C018
ENDCHAR
STARTCHAR 0398
ENCODING 920
SWIDTH 765 0
DWIDTH 17 0
BBX 15 16 1 0
BITMAP
0FE0
1FF0
3838
701C
600C
C006
CFE6
CFE6
C006
C006
C006
600C
701C
3838
1FF0
0FE0
ENDCHAR
STARTCHAR 0399
ENCODING 921
SWIDTH 450 0
DWIDTH 10 0
BBX 6 16 2 0
BITMAP
FC
FC
30
30
30
30
30
30
30
30
30
30
30
30
FC
FC
ENDCHAR
STARTCHAR 039A
ENCODING 922
SWIDTH 675 0
DWIDTH 15 0
BBX 13 16 2 0
BITMAP
C030
C060
C0C0
C180
C300
C600
CC00
D800
FC00
E600
C700
C380
C1C0
C0E0
C070
C038
ENDCHAR
STARTCHAR 039B
ENCODING 923
SWIDTH 675 0
DWIDTH 15 0
BBX 15 16 0 0
BITMAP
0380
0380
06C0
06C0
0EE0
0C60
0C60
1830
1830
1830
3018
3018
600C
600C
600C
C006
ENDCHAR
STARTCHAR 039C
ENCODING 924
SWIDTH 855 0
DWIDTH 19 0
BBX 15 16 2 0
BITMAP
E00E
F01E
F01E
D836
D836
CC66
CC66
C6C6
C6C6
C386
C386
C106
C006
C006
C006
C006
ENDCHAR
STARTCHAR 039D
ENCODING 925
SWIDTH 720 0
DWIDTH 16 0
BBX 12 16 2 0
BITMAP
F030
F030
F830
D830
DC30
CC30
CE30
C630
C330
C330
C1B0
C1B0
C0F0
C0F0
C070
C070
ENDCHAR
STARTCHAR 039E
ENCODING 926
SWIDTH 630 0
DWIDTH 14 0
BBX 12 16 1 0
BITMAP
FFF0
FFF0
0000
0000
0000
0000
7FE0
7FE0
0000
0000
0000
0000
0000
0000
FFF0
FFF0
ENDCHAR
STARTCHAR 039F
ENCODING 927
SWIDTH 765 0
DWIDTH 17 0
BBX 15 16 1 0
BITMAP
0FE0
1FF0
3838
701C
600C
C006
C006
C006
C006
C006
C006
600C
701C
3838
1FF0
0FE0
ENDCHAR
STARTCHAR 03A0
ENCODING 928
SWIDTH 765 0
DWIDTH 17 0
BBX 13 16 2 0
BITMAP
FFF8
FFF8
C018
C018
C018
C018
C018
C018
C018
C018
C018
C018
C018
C018
C018
C018
ENDCHAR
STARTCHAR 03A1
ENCODING 929
SWIDTH 585 0
DWIDTH 13 0
BBX 10 16 2 0
BITMAP
FE00
FF80
C1C0
C0C0
C0C0
C0C0
C0C0
C180
FF80
FE00
C000
C000
C000
C000
C000
C000
ENDCHAR
STARTCHAR 03A3
ENCODING 931
SWIDTH 675 0
DWIDTH 15 0
BBX 13 16 1 0
BITMAP
FFF0
FFF0
7000
3800
1C00
0E00
0700
0380
0700
0E00
1C00
3800
7000
E000
FFF8
FFF8
ENDCHAR
STARTCHAR 03A4
ENCODING 932
SWIDTH 630 0
DWIDTH 14 0
BBX 14 16 0 0
BITMAP
FFFC
FFFC
0300
0300
0300
0300
0300
0300
0300
0300
0300
0300
0300
0300
0300
0300
ENDCHAR
STARTCHAR 03A5
ENCODING 933
SWIDTH 630 0
DWIDTH 14 0
BBX 14 16 0 0
BITMAP
E01C
6018
3030
3870
1860
0CC0
0FC0
0780
0300
0300
0300
0300
0300
0300
0300
0300
ENDCHAR
STARTCHAR 03A6
ENCODING 934
SWIDTH 810 0
DWIDTH 18 0
BBX 16 16 1 0
BITMAP
0180
0180
0FF0
3FFC
718E
E186
C183
C183
C183
C183
6186
718E
3FFC
0FF0
0180
0180
ENDCHAR
STARTCHAR 03A7
ENCODING 935
SWIDTH 675 0
DWIDTH 15 0
BBX 13 16 1 0
BITMAP
E038
6030
3060
38E0
18C0
0D80
0F80
0700
0700
0D80
0D80
18C0
38E0
3060
6030
E038
ENDCHAR
STARTCHAR 03A8
ENCODING 936
SWIDTH 855 0
DWIDTH 19 0
BBX 16 16 1 0
BITMAP
C183
C183
C183
C183
C183
C183
C183
C183
C183
6186
718E
3FFC
0FF0
0180
0180
0180
ENDCHAR
STARTCHAR 03A9
ENCODING 937
SWIDTH 810 0
DWIDTH 18 0
BBX 16 16 1 0
BITMAP
07E0
1FF8
381C
300C
6006
6006
6006
6006
6006
700E
300C
1818
0C30
0C30
FC3F
FC3F
ENDCHAR
STARTCHAR 03AA
ENCODING 938
SWIDTH 450 0
DWIDTH 10 0
BBX 6 20 2 0
BITMAP
CC
CC
00
00
FC
FC
30
30
30
30
30
30
30
30
30
30
30
30
FC
FC
ENDCHAR
STARTCHAR 03AB
ENCODING 939
SWIDTH 630 0
DWIDTH 14 0
BBX 14 20 0 0
BITMAP
0CC0
0CC0
0000
0000
E01C
6018
3030
3870
1860
0CC0
0FC0
0780
0300
0300
0300
0300
0300
0300
0300
0300
ENDCHAR
STARTCHAR 03AC
ENCODING 940
SWIDTH 630 0
DWIDTH 14 0
BBX 11 18 1 0
BITMAP
0E00
0E00
0E00
0400
0000
0000
1F60
3FE0
7060
E060
C060
C060
C060
C060
C060
60E0
7FE0
1E60
ENDCHAR
STARTCHAR 03AD
ENCODING 941
SWIDTH 495 0
DWIDTH 11 0
BBX 10 18 1 0
BITMAP
0E00
0E00
0E00
0400
0000
0000
3F80
7FC0
E040
C000
C000
7E00
7E00
C000
C000
E040
7FC0
3F80
ENDCHAR
STARTCHAR 03AE
ENCODING 942
SWIDTH 630 0
DWIDTH 14 0
BBX 10 22 2 -4
BITMAP
0E00
0E00
0E00
0400
0000
0000
CF00
FF80
E1C0
C0C0
C0C0
C0C0
C0C0
C0C0
C0C0
C0C0
C0C0
C0C0
00C0
00C0
00C0
00C0
ENDCHAR
STARTCHAR 03AF
ENCODING 943
SWIDTH 270 0
DWIDTH 6 0
BBX 3 18 2 0
BITMAP
E0
E0
E0
40
00
00
C0
C0
C0
C0
C0
C0
C0
C0
C0
C0
C0
C0
ENDCHAR
STARTCHAR 03B0
ENCODING 944
SWIDTH 630 0
DWIDTH 14 0
BBX 10 18 2 0
BITMAP
0E00
0E00
6EC0
64C0
0000
0000
C0C0
C0C0
C0C0
C0C0
C0C0
C0C0
C0C0
C0C0
C0C0
E1C0
7F80
3F00
ENDCHAR
STARTCHAR 03B1
ENCODING 945
SWIDTH 630 0
DWIDTH 14 0
BBX 11 12 1 0
BITMAP
1F60
3FE0
7060
E060
C060
C060
C060
C060
C060
60E0
7FE0
1E60
ENDCHAR
STARTCHAR 03B2
ENCODING 946
SWIDTH 630 0
DWIDTH 14 0
BBX 11 21 2 -4
BITMAP
1F00
7F80
61C0
C0C0
C0C0
C0C0
C180
CF00
CF80
C1C0
C060
C060
C060
C060
C0C0
FFC0
DF00
C000
C000
C000
C000
ENDCHAR
STARTCHAR 03B3
ENCODING 947
SWIDTH 585 0
DWIDTH 13 0
BBX 12 16 0 -4
BITMAP
C030
6060
6060
30C0
30C0
39C0
1980
1D80
0F00
0F00
0600
0600
0600
0600
0600
0600
ENDCHAR
STARTCHAR 03B4
ENCODING 948
SWIDTH 585 0
DWIDTH 13 0
BBX 11 17 1 0
BITMAP
7FC0
7FC0
7000
1C00
0E00
1F80
3F80
70C0
E0E0
C060
C060
C060
C060
E0E0
71C0
3F80
1F00
ENDCHAR
STARTCHAR 03B5
ENCODING 949
SWIDTH 495 0
DWIDTH 11 0
BBX 10 12 1 0
BITMAP
3F80
7FC0
E040
C000
C000
7E00
7E00
C000
C000
E040
7FC0
3F80
ENDCHAR
STARTCHAR 03B6
ENCODING 950
SWIDTH 450 0
DWIDTH 10 0
BBX 9 21 1 -4
BITMAP
7F80
7F80
0700
0E00
1C00
1800
3000
6000
6000
C000
C000
C000
C000
C000
E000
7F00
3F80
0180
0180
0100
0300
ENDCHAR
STARTCHAR 03B7
ENCODING 951
SWIDTH 630 0
DWIDTH 14 0
BBX 10 16 2 -4
BITMAP
CF00
FF80
E1C0
C0C0
C0C0
C0C0
C0C0
C0C0
C0C0
C0C0
C0C0
C0C0
00C0
00C0
00C0
00C0
ENDCHAR
STARTCHAR 03B8
ENCODING 952
SWIDTH 630 0
DWIDTH 14 0
BBX 12 17 1 0
BITMAP
1F80
3FC0
70E0
6060
C030
C030
C030
FFF0
FFF0
C030
C030
C030
E070
6060
70E0
3FC0
1F80
ENDCHAR
STARTCHAR 03B9
ENCODING 953
SWIDTH 270 0
DWIDTH 6 0
BBX 2 12 2 0
BITMAP
C0
C0
C0
C0
C0
C0
C0
C0
C0
C0
C0
C0
ENDCHAR
STARTCHAR 03BA
ENCODING 954
SWIDTH 585 0
DWIDTH 13 0
BBX 11 12 2 0
BITMAP
C0C0
C3C0
C700
CE00
DC00
F800
FC00
CE00
C700
C380
C1C0
C0E0
ENDCHAR
STARTCHAR 03BB
ENCODING 955
SWIDTH 585 0
DWIDTH 13 0
BBX 11 17 1 0
BITMAP
1800
1800
1C00
0C00
0C00
0600
0E00
0E00
1F00
1B00
1B80
3180
3180
70C0
60C0
60C0
C060
ENDCHAR
STARTCHAR 03BC
ENCODING 956
SWIDTH 630 0
DWIDTH 14 0
BBX 10 16 2 -4
BITMAP
C0C0
C0C0
C0C0
C0C0
C0C0
C0C0
C0C0
C0C0
C0C0
E1C0
FFC0
DEC0
C000
C000
C000
C000
ENDCHAR
STARTCHAR 03BD
ENCODING 957
SWIDTH 585 0
DWIDTH 13 0
BBX 11 12 1 0
BITMAP
C060
60C0
60C0
60C0
3180
3180
3180
1B00
1B00
0E00
0E00
0E00
ENDCHAR
STARTCHAR 03BE
ENCODING 958
SWIDTH 495 0
DWIDTH 11 0
BBX 10 21 1 -4
BITMAP
FF80
FF80
3000
6000
6000
6000
3000
1F00
3F00
6000
C000
C000
C000
C000
E000
7F80
1FC0
00C0
00C0
0080
0180
ENDCHAR
STARTCHAR 03BF
ENCODING 959
SWIDTH 585 0
DWIDTH 13 0
BBX 11 12 1 0
BITMAP
1F00
3F80
71C0
E0E0
C060
C060
C060
C060
E0E0
71C0
3F80
1F00
ENDCHAR
STARTCHAR 03C0
ENCODING 960
SWIDTH 630 0
DWIDTH 14 0
BBX 10 12 2 0
BITMAP
FFC0
FFC0
C0C0
C0C0
C0C0
C0C0
C0C0
C0C0
C0C0
C0C0
C0C0
C0C0
ENDCHAR
STARTCHAR 03C1
ENCODING 961
SWIDTH 630 0
DWIDTH 14 0
BBX 11 16 2 -4
BITMAP
1F00
7FC0
61C0
C0E0
C060
C060
C060
C060
C0E0
C1C0
FF80
DF00
C000
C000
C000
C000
ENDCHAR
STARTCHAR 03C2
ENCODING 962
SWIDTH 495 0
DWIDTH 11 0
BBX 10 16 1 -4
BITMAP
0F80
3FC0
7040
6000
C000
C000
C000
C000
E000
7000
3F80
1FC0
00C0
00C0
0080
0180
ENDCHAR
STARTCHAR 03C3
ENCODING 963
SWIDTH 630 0
DWIDTH 14 0
BBX 14 12 1 0
BITMAP
1FFC
3FFC
70E0
E060
C030
C030
C030
C030
E070
70E0
3FC0
1F80
ENDCHAR
STARTCHAR 03C4
ENCODING 964
SWIDTH 495 0
DWIDTH 11 0
BBX 10 12 0 0
BITMAP
FFC0
FFC0
0C00
0C00
0C00
0C00
0C00
0C00
0C00
0C00
0C00
0C00
ENDCHAR
STARTCHAR 03C5
ENCODING 965
SWIDTH 630 0
DWIDTH 14 0
BBX 10 12 2 0
BITMAP
C0C0
C0C0
C0C0
C0C0
C0C0
C0C0
C0C0
C0C0
C0C0
E1C0
7F80
3F00
ENDCHAR
STARTCHAR 03C6
ENCODING 966
SWIDTH 765 0
DWIDTH 17 0
BBX 15 16 1 -4
BITMAP
19E0
31F8
619C
C18E
C186
C186
C186
C186
618E
799C
3FF8
0FE0
0180
0180
0180
0180
ENDCHAR
STARTCHAR 03C7
ENCODING 967
SWIDTH 585 0
DWIDTH 13 0
BBX 11 16 1 -4
BITMAP
E0E0
60C0
71C0
3180
3B00
1B00
0E00
0E00
0E00
0E00
1B00
3B80
3180
71C0
60C0
E0E0
ENDCHAR
STARTCHAR 03C8
ENCODING 968
SWIDTH 810 0
DWIDTH 18 0
BBX 14 16 2 -4
BITMAP
C30C
C30C
C30C
C30C
C30C
C30C
C30C
C30C
E31C
7338
7FF8
1FE0
0300
0300
0300
0300
ENDCHAR
STARTCHAR 03C9
ENCODING 969
SWIDTH 810 0
DWIDTH 18 0
BBX 16 12 1 0
BITMAP
381C
300C
6006
E187
C183
C183
C183
C183
C183
63C6
7FFE
1E78
ENDCHAR
STARTCHAR 03CA
ENCODING 970
SWIDTH 270 0
DWIDTH 6 0
BBX 6 16 0 0
BITMAP
CC
CC
00
00
30
30
30
30
30
30
30
30
30
30
30
30
ENDCHAR
STARTCHAR 03CB
ENCODING 971
SWIDTH 630 0
DWIDTH 14 0
BBX 10 16 2 0
BITMAP
3300
3300
0000
0000
C0C0
C0C0
C0C0
C0C0
C0C0
C0C0
C0C0
C0C0
C0C0
E1C0
7F80
3F00
ENDCHAR
STARTCHAR 03CC
ENCODING 972
SWIDTH 585 0
DWIDTH 13 0
BBX 11 18 1 0
BITMAP
0E00
0E00
0E00
0400
0000
0000
1F00
3F80
71C0
E0E0
C060
C060
C060
C060
E0E0
71C0
3F80
1F00
ENDCHAR
STARTCHAR 03CD
ENCODING 973
SWIDTH 630 0
DWIDTH 14 0
BBX 10 18 2 0
BITMAP
0E00
0E00
0E00
0400
0000
0000
C0C0
C0C0
C0C0
C0C0
C0C0
C0C0
C0C0
C0C0
C0C0
E1C0
7F80
3F00
ENDCHAR
STARTCHAR 03CE
ENCODING 974
SWIDTH 810 0
DWIDTH 18 0
BBX 16 18 1 0
BITMAP
01C0
01C0
01C0
0080
0000
0000
381C
300C
6006
E187
C183
C183
C183
C183
C183
63C6
7FFE
1E78
ENDCHAR
STARTCHAR 0401
ENCODING 1025
SWIDTH 630 0
DWIDTH 14 0
BBX 11 20 2 0
BITMAP
1980
1980
0000
0000
FFE0
FFE0
C000
C000
C000
C000
FFE0
FFE0
C000
C000
C000
C000
C000
C000
FFE0
FFE0
ENDCHAR
STARTCHAR 0402
ENCODING 1026
SWIDTH 765 0
DWIDTH 17 0
BBX 16 16 0 0
BITMAP
FFF0
FFF0
0600
0600
0600
0600
07FC
07FE
0607
0603
0603
0603
0603
0606
067E
0678
ENDCHAR
STARTCHAR 0403
ENCODING 1027
SWIDTH 540 0
DWIDTH 12 0
BBX 10 22 2 0
BITMAP
0380
0700
0600
0C00
0000
0000
FFC0
FFC0
C000
C000
C000
C000
C000
C000
C000
C000
C000
C000
C000
C000
C000
C000
ENDCHAR
STARTCHAR 0404
ENCODING 1028
SWIDTH 675 0
DWIDTH 15 0
BBX 13 16 1 0
BITMAP
07F0
1FF8
3808
7000
6000
C000
C000
FFE0
FFE0
C000
C000
6000
6000
3808
1FF8
07F0
ENDCHAR
STARTCHAR 0405
ENCODING 1029
SWIDTH 675 0
DWIDTH 15 0
BBX 13 16 1 0
BITMAP
1FC0
7FF0
6070
C010
C000
C000
7000
3FC0
0FF0
0078
0018
0018
8018
E070
FFE0
3FC0
ENDCHAR
STARTCHAR 0406
ENCODING 1030
SWIDTH 450 0
DWIDTH 10 0
BBX 6 16 2 0
BITMAP
FC
FC
30
30
30
30
30
30
30
30
30
30
30
30
FC
FC
ENDCHAR
STARTCHAR 0407
ENCODING 1031
SWIDTH 450 0
DWIDTH 10 0
BBX 6 20 2 0
BITMAP
CC
CC
00
00
FC
FC
30
30
30
30
30
30
30
30
30
30
30
30
FC
FC
ENDCHAR
STARTCHAR 0408
ENCODING 1032
SWIDTH 450 0
DWIDTH 10 0
BBX 8 16 0 0
BITMAP
3F
3F
03
03
03
03
03
03
03
03
03
03
03
07
FE
FC
ENDCHAR
STARTCHAR 0409
ENCODING 1033
SWIDTH 1125 0
DWIDTH 25 0
BBX 24 16 0 0
BITMAP
0FFC00
0FFC00
0C0C00
0C0C00
0C0C00
0C0C00
0C0FF8
0C0FFE
0C0C06
1C0C03
180C03
180C03
180C03
380C0E
F00FFE
E00FF8
ENDCHAR
STARTCHAR 040A
ENCODING 1034
SWIDTH 1080 0
DWIDTH 24 0
BBX 21 16 2 0
BITMAP
C06000
C06000
C06000
C06000
C06000
C06000
FFFFC0
FFFFF0
C06030
C06018
C06018
C06018
C06018
C06070
C07FF0
C07FC0
ENDCHAR
STARTCHAR 040B
ENCODING 1035
SWIDTH 810 0
DWIDTH 18 0
BBX 16 16 0 0
BITMAP
FFF0
FFF0
0600
0600
0600
0600
06FC
07FE
0707
0603
0603
0603
0603
0603
0603
0603
ENDCHAR
STARTCHAR 040C
ENCODING 1036
SWIDTH 675 0
DWIDTH 15 0
BBX 13 22 2 0
BITMAP
0380
0700
0600
0C00
0000
0000
C0F0
C1F0
C180
C300
C300
C600
CE00
F800
FC00
CE00
C700
C380
C1C0
C0E0
C070
C038
ENDCHAR
STARTCHAR 040E
ENCODING 1038
SWIDTH 630 0
DWIDTH 14 0
BBX 14 21 0 0
BITMAP
1860
1860
0CC0
0780
0000
E00C
6018
7018
3030
3830
1860
1C60
0CC0
0EC0
07C0
0380
0380
0300
0700
3E00
3C00
ENDCHAR
STARTCHAR 040F
ENCODING 1039
SWIDTH 765 0
DWIDTH 17 0
BBX 13 20 2 -4
BITMAP
C018
C018
C018
C018
C018
C018
C018
C018
C018
C018
C018
C018
C018
C018
FFF8
FFF8
0600
0600
0600
0600
ENDCHAR
STARTCHAR 0410
ENCODING 1040
SWIDTH 675 0
DWIDTH 15 0
BBX 15 16 0 0
BITMAP
0380
06C0
06C0
06C0
0C60
0C60
0C60
1830
1830
3838
3FF8
3FF8
600C
600C
600C
C006
ENDCHAR
STARTCHAR 0411
ENCODING 1041
SWIDTH 675 0
DWIDTH 15 0
BBX 12 16 2 0
BITMAP
FFE0
FFE0
C000
C000
C000
C000
FF80
FFE0
C070
C030
C030
C030
C030
C0E0
FFE0
FF80
ENDCHAR
STARTCHAR 0412
ENCODING 1042
SWIDTH 675 0
DWIDTH 15 0
BBX 12 16 2 0
BITMAP
FF80
FFC0
C0E0
C060
C060
C0C0
FF80
FFE0
C060
C030
C030
C030
C030
C0E0
FFC0
FF80
ENDCHAR
STARTCHAR 0413
ENCODING 1043
SWIDTH 540 0
DWIDTH 12 0
BBX 10 16 2 0
BITMAP
FFC0
FFC0
C000
C000
C000
C000
C000
C000
C000
C000
C000
C000
C000
C000
C000
C000
ENDCHAR
STARTCHAR 0414
ENCODING 1044
SWIDTH 720 0
DWIDTH 16 0
BBX 15 20 0 -4
BITMAP
0FFC
0FFC
0C0C
0C0C
0C0C
0C0C
1C0C
180C
180C
180C
180C
300C
300C
600C
FFFE
FFFE
C006
C006
C006
C006
ENDCHAR
STARTCHAR 0415
ENCODING 1045
SWIDTH 630 0
DWIDTH 14 0
BBX 11 16 2 0
BITMAP
FFE0
FFE0
C000
C000
C000
C000
FFE0
FFE0
C000
C000
C000
C000
C000
C000
FFE0
FFE0
ENDCHAR
STARTCHAR 0416
ENCODING 1046
SWIDTH 945 0
DWIDTH 21 0
BBX 20 16 0 0
BITMAP
7060E0
7861E0
186180
0C6300
0C6300
0E6300
076600
03FC00
03FC00
076E00
0E6700
0C6380
186180
3060C0
7060E0
E06070
ENDCHAR
STARTCHAR 0417
ENCODING 1047
SWIDTH 630 0
DWIDTH 14 0
BBX 12 16 1 0
BITMAP
3F80
7FE0
6070
0030
0030
0060
1F80
1FC0
0060
0030
0030
0030
0070
C0E0
FFC0
7F00
ENDCHAR
STARTCHAR 0418
ENCODING 1048
SWIDTH 765 0
DWIDTH 17 0
BBX 13 16 2 0
BITMAP
C018
C038
C078
C0F8
C0D8
C198
C398
C318
C618
CE18
DC18
D818
F018
F018
E018
C018
ENDCHAR
STARTCHAR 0419
ENCODING 1049
SWIDTH 765 0
DWIDTH 17 0
BBX 13 21 2 0
BITMAP
3060
3060
18C0
0F80
0000
C018
C038
C078
C0F8
C0D8
C198
C398
C318
C618
CE18
DC18
D818
F018
F018
E018
C018
ENDCHAR
STARTCHAR 041A
ENCODING 1050
SWIDTH 675 0
DWIDTH 15 0
BBX 13 16 2 0
BITMAP
C0F0
C1F0
C180
C300
C300
C600
CE00
F800
FC00
CE00
C700
C380
C1C0
C0E0
C070
C038
ENDCHAR
STARTCHAR 041B
ENCODING 1051
SWIDTH 720 0
DWIDTH 16 0
BBX 14 16 0 0
BITMAP
0FFC
0FFC
0C0C
0C0C
0C0C
0C0C
0C0C
0C0C
0C0C
1C0C
180C
180C
180C
380C
F00C
E00C
ENDCHAR
STARTCHAR 041C
ENCODING 1052
SWIDTH 855 0
DWIDTH 19 0
BBX 15 16 2 0
BITMAP
E00E
F01E
F01E
D836
D836
CC66
CC66
C6C6
C6C6
C386
C386
C106
C006
C006
C006
C006
ENDCHAR
STARTCHAR 041D
ENCODING 1053
SWIDTH 765 0
DWIDTH 17 0
BBX 13 16 2 0
BITMAP
C018
C018
C018
C018
C018
C018
FFF8
FFF8
C018
C018
C018
C018
C018
C018
C018
C018
ENDCHAR
STARTCHAR 041E
ENCODING 1054
SWIDTH 765 0
DWIDTH 17 0
BBX 15 16 1 0
BITMAP
0FE0
1FF0
3838
701C
600C
C006
C006
C006
C006
C006
C006
600C
701C
3838
1FF0
0FE0
ENDCHAR
STARTCHAR 041F
ENCODING 1055
SWIDTH 765 0
DWIDTH 17 0
BBX 13 16 2 0
BITMAP
FFF8
FFF8
C018
C018
C018
C018
C018
C018
C018
C018
C018
C018
C018
C018
C018
C018
ENDCHAR
STARTCHAR 0420
ENCODING 1056
SWIDTH 585 0
DWIDTH 13 0
BBX 10 16 2 0
BITMAP
FE00
FF80
C1C0
C0C0
C0C0
C0C0
C0C0
C180
FF80
FE00
C000
C000
C000
C000
C000
C000
ENDCHAR
STARTCHAR 0421
ENCODING 1057
SWIDTH 675 0
DWIDTH 15 0
BBX 13 16 1 0
BITMAP
07E0
1FF8
3838
7008
6000
C000
C000
C000
C000
C000
C000
6000
7008
3838
1FF8
07E0
ENDCHAR
STARTCHAR 0422
ENCODING 1058
SWIDTH 630 0
DWIDTH 14 0
BBX 14 16 0 0
BITMAP
FFFC
FFFC
0300
0300
0300
0300
0300
0300
0300
0300
0300
0300
0300
0300
0300
0300
ENDCHAR
STARTCHAR 0423
ENCODING 1059
SWIDTH 630 0
DWIDTH 14 0
BBX 14 16 0 0
BITMAP
E00C
6018
7018
3030
3830
1860
1C60
0CC0
0EC0
07C0
0380
0380
0300
0700
3E00
3C00
ENDCHAR
STARTCHAR 0424
ENCODING 1060
SWIDTH 810 0
DWIDTH 18 0
BBX 16 16 1 0
BITMAP
0180
0180
0FF0
3FFC
718E
E186
C183
C183
C183
C183
6186
718E
3FFC
0FF0
0180
0180
ENDCHAR
STARTCHAR 0425
ENCODING 1061
SWIDTH 675 0
DWIDTH 15 0
BBX 13 16 1 0
BITMAP
E038
6030
3060
38E0
18C0
0D80
0F80
0700
0700
0D80
0D80
18C0
38E0
3060
6030
E038
ENDCHAR
STARTCHAR 0426
ENCODING 1062
SWIDTH 765 0
DWIDTH 17 0
BBX 14 20 2 -4
BITMAP
C018
C018
C018
C018
C018
C018
C018
C018
C018
C018
C018
C018
C018
C018
FFFC
FFFC
000C
000C
000C
000C
ENDCHAR
STARTCHAR 0427
ENCODING 1063
SWIDTH 720 0
DWIDTH 16 0
BBX 13 16 1 0
BITMAP
C018
C018
C018
C018
C018
C018
C018
E038
7FF8
1FD8
0018
0018
0018
0018
0018
0018
ENDCHAR
STARTCHAR 0428
ENCODING 1064
SWIDTH 1035 0
DWIDTH 23 0
BBX 18 16 2 0
BITMAP
C0C0C0
C0C0C0
C0C0C0
C0C0C0
C0C0C0
C0C0C0
C0C0C0
C0C0C0
C0C0C0
C0C0C0
C0C0C0
C0C0C0
C0C0C0
C0C0C0
FFFFC0
FFFFC0
ENDCHAR
STARTCHAR 0429
ENCODING 1065
SWIDTH 1035 0
DWIDTH 23 0
BBX 20 20 2 -4
BITMAP
C0C0C0
C0C0C0
C0C0C0
C0C0C0
C0C0C0
C0C0C0
C0C0C0
C0C0C0
C0C0C0
C0C0C0
C0C0C0
C0C0C0
C0C0C0
C0C0C0
FFFFF0
FFFFF0
000030
000030
000030
000030
ENDCHAR
STARTCHAR 042A
ENCODING 1066
SWIDTH 765 0
DWIDTH 17 0
BBX 16 16 0 0
BITMAP
FC00
FC00
0C00
0C00
0C00
0C00
0FF8
0FFE
0C06
0C03
0C03
0C03
0C03
0C0E
0FFE
0FF8
ENDCHAR
STARTCHAR 042B
ENCODING 1067
SWIDTH 900 0
DWIDTH 20 0
BBX 16 16 2 0
BITMAP
C003
C003
C003
C003
C003
C003
FF83
FFE3
C063
C033
C033
C033
C033
C0E3
FFE3
FF83
ENDCHAR
STARTCHAR 042C
ENCODING 1068
SWIDTH 675 0
DWIDTH 15 0
BBX 12 16 2 0
BITMAP
C000
C000
C000
C000
C000
C000
FF80
FFE0
C060
C030
C030
C030
C030
C0E0
FFE0
FF80
ENDCHAR
STARTCHAR 042D
ENCODING 1069
SWIDTH 675 0
DWIDTH 15 0
BBX 13 16 1 0
BITMAP
7F00
FFC0
80E0
0070
0030
0018
0018
3FF8
3FF8
0018
0018
0030
0030
80E0
FFC0
7F00
ENDCHAR
STARTCHAR 042E
ENCODING 1070
SWIDTH 1035 0
DWIDTH 23 0
BBX 20 16 2 0
BITMAP
C07F00
C0FF80
C1C1C0
C380E0
C70060
C60030
FE0030
FE0030
C60030
C60030
C60030
C30060
C380E0
C1C1C0
C0FF80
C07F00
ENDCHAR
STARTCHAR 042F
ENCODING 1071
SWIDTH 720 0
DWIDTH 16 0
BBX 14 16 0 0
BITMAP
07FC
1FFC
180C
300C
300C
300C
300C
180C
0FFC
07FC
070C
0E0C
1C0C
380C
700C
E00C
ENDCHAR
STARTCHAR 0430
ENCODING 1072
SWIDTH 585 0
DWIDTH 13 0
BBX 10 12 1 0
BITMAP
7F00
7F80
41C0
00C0
1FC0
7FC0
F0C0
C0C0
C0C0
E1C0
7FC0
3CC0
ENDCHAR
STARTCHAR 0431
ENCODING 1073
SWIDTH 630 0
DWIDTH 14 0
BBX 12 17 1 0
BITMAP
03E0
1FE0
3C00
6000
6000
CF80
FFC0
E0E0
C070
C030
C030
C030
C030
6060
70E0
3FC0
1F00
ENDCHAR
STARTCHAR 0432
ENCODING 1074
SWIDTH 585 0
DWIDTH 13 0
BBX 10 12 2 0
BITMAP
FF00
FF80
C180
C180
C100
FE00
FF80
C0C0
C0C0
C1C0
FF80
FF00
ENDCHAR
STARTCHAR 0433
ENCODING 1075
SWIDTH 450 0
DWIDTH 10 0
BBX 8 12 2 0
BITMAP
FF
FF
C0
C0
C0
C0
C0
C0
C0
C0
C0
C0
ENDCHAR
STARTCHAR 0434
ENCODING 1076
SWIDTH 630 0
DWIDTH 14 0
BBX 13 15 0 -3
BITMAP
1FE0
1FE0
1860
1860
1860
3860
3060
3060
3060
6060
FFF8
FFF8
C018
C018
C018
ENDCHAR
STARTCHAR 0435
ENCODING 1077
SWIDTH 585 0
DWIDTH 13 0
BBX 11 12 1 0
BITMAP
1F00
3FC0
70C0
E060
C060
FFE0
FFE0
C000
C000
7020
3FE0
1FC0
ENDCHAR
STARTCHAR 0436
ENCODING 1078
SWIDTH 810 0
DWIDTH 18 0
BBX 16 12 1 0
BITMAP
E187
F18F
399C
1998
1DB8
0FF0
0FF0
1DB8
1998
318C
718E
E187
ENDCHAR
STARTCHAR 0437
ENCODING 1079
SWIDTH 540 0
DWIDTH 12 0
BBX 10 12 1 0
BITMAP
3F00
7F80
41C0
00C0
01C0
1F00
1F80
00C0
00C0
81C0
FF80
7F00
ENDCHAR
STARTCHAR 0438
ENCODING 1080
SWIDTH 630 0
DWIDTH 14 0
BBX 10 12 2 0
BITMAP
C0C0
C1C0
C3C0
C3C0
C6C0
CCC0
CCC0
D8C0
F0C0
F0C0
E0C0
C0C0
ENDCHAR
STARTCHAR 0439
ENCODING 1081
SWIDTH 630 0
DWIDTH 14 0
BBX 10 16 2 0
BITMAP
6180
6180
1E00
0000
C0C0
C1C0
C3C0
C3C0
C6C0
CCC0
CCC0
D8C0
F0C0
F0C0
E0C0
C0C0
ENDCHAR
STARTCHAR 043A
ENCODING 1082
SWIDTH 585 0
DWIDTH 13 0
BBX 11 12 2 0
BITMAP
C1C0
C3C0
C600
C600
CC00
F800
FC00
CE00
C700
C380
C1C0
C0E0
ENDCHAR
STARTCHAR 043B
ENCODING 1083
SWIDTH 630 0
DWIDTH 14 0
BBX 12 12 0 0
BITMAP
1FF0
1FF0
1830
1830
1830
1830
1830
1830
3030
3030
F030
E030
ENDCHAR
STARTCHAR 043C
ENCODING 1084
SWIDTH 675 0
DWIDTH 15 0
BBX 11 12 2 0
BITMAP
E0E0
E0E0
F1E0
F1E0
D160
DB60
CA60
CE60
C460
C060
C060
C060
ENDCHAR
STARTCHAR 043D
ENCODING 1085
SWIDTH 630 0
DWIDTH 14 0
BBX 10 12 2 0
BITMAP
C0C0
C0C0
C0C0
C0C0
C0C0
FFC0
FFC0
C0C0
C0C0
C0C0
C0C0
C0C0
ENDCHAR
STARTCHAR 043E
ENCODING 1086
SWIDTH 585 0
DWIDTH 13 0
BBX 11 12 1 0
BITMAP
1F00
3F80
71C0
E0E0
C060
C060
C060
C060
E0E0
71C0
3F80
1F00
ENDCHAR
STARTCHAR 043F
ENCODING 1087
SWIDTH 630 0
DWIDTH 14 0
BBX 10 12 2 0
BITMAP
FFC0
FFC0
C0C0
C0C0
C0C0
C0C0
C0C0
C0C0
C0C0
C0C0
C0C0
C0C0
ENDCHAR
STARTCHAR 0440
ENCODING 1088
SWIDTH 630 0
DWIDTH 14 0
BBX 11 16 2 -4
BITMAP
CF00
FFC0
E0C0
C060
C060
C060
C060
C060
C0E0
C1C0
FF80
DF00
C000
C000
C000
C000
ENDCHAR
STARTCHAR 0441
ENCODING 1089
SWIDTH 540 0
DWIDTH 12 0
BBX 10 12 1 0
BITMAP
1F80
3FC0
7040
E000
C000
C000
C000
C000
E000
7040
3FC0
1F80
ENDCHAR
STARTCHAR 0442
ENCODING 1090
SWIDTH 495 0
DWIDTH 11 0
BBX 10 12 0 0
BITMAP
FFC0
FFC0
0C00
0C00
0C00
0C00
0C00
0C00
0C00
0C00
0C00
0C00
ENDCHAR
STARTCHAR 0443
ENCODING 1091
SWIDTH 585 0
DWIDTH 13 0
BBX 11 16 1 -4
BITMAP
C060
60C0
60C0
60C0
3180
3180
1B00
1B00
1B00
0E00
0E00
0C00
0C00
1800
1800
3800
ENDCHAR
STARTCHAR 0444
ENCODING 1092
SWIDTH 855 0
DWIDTH 19 0
BBX 16 21 1 -4
BITMAP
0180
0180
0180
0180
0180
1FFC
3FFE
6186
E183
C183
C183
C183
C183
E187
6186
7FFC
1FF8
0180
0180
0180
0180
ENDCHAR
STARTCHAR 0445
ENCODING 1093
SWIDTH 585 0
DWIDTH 13 0
BBX 11 12 1 0
BITMAP
E0E0
70C0
3180
1B00
1F00
0E00
0E00
1F00
1B00
3180
60C0
E0E0
ENDCHAR
STARTCHAR 0446
ENCODING 1094
SWIDTH 630 0
DWIDTH 14 0
BBX 11 15 2 -3
BITMAP
C180
C180
C180
C180
C180
C180
C180
C180
C180
C180
FFE0
FFE0
0060
0060
0060
ENDCHAR
STARTCHAR 0447
ENCODING 1095
SWIDTH 585 0
DWIDTH 13 0
BBX 9 12 2 0
BITMAP
C180
C180
C180
C180
C180
E180
FF80
7D80
0180
0180
0180
0180
ENDCHAR
STARTCHAR 0448
ENCODING 1096
SWIDTH 855 0
DWIDTH 19 0
BBX 16 12 2 0
BITMAP
C183
C183
C183
C183
C183
C183
C183
C183
C183
C183
FFFF
FFFF
ENDCHAR
STARTCHAR 0449
ENCODING 1097
SWIDTH 900 0
DWIDTH 20 0
BBX 18 15 2 -3
BITMAP
C18300
C18300
C18300
C18300
C18300
C18300
C18300
C18300
C18300
C18300
FFFFC0
FFFFC0
0000C0
0000C0
0000C0
ENDCHAR
STARTCHAR 044A
ENCODING 1098
SWIDTH 630 0
DWIDTH 14 0
BBX 13 12 0 0
BITMAP
FC00
FC00
0C00
0C00
0C00
0FE0
0FF0
0C18
0C18
0C18
0FF0
0FE0
ENDCHAR
STARTCHAR 044B
ENCODING 1099
SWIDTH 765 0
DWIDTH 17 0
BBX 13 12 2 0
BITMAP
C018
C018
C018
C018
C018
FE18
FF18
C198
C198
C198
FF18
FE18
ENDCHAR
STARTCHAR 044C
ENCODING 1100
SWIDTH 585 0
DWIDTH 13 0
BBX 10 12 2 0
BITMAP
C000
C000
C000
C000
C000
FF00
FF80
C0C0
C0C0
C1C0
FF80
FF00
ENDCHAR
STARTCHAR 044D
ENCODING 1101
SWIDTH 540 0
DWIDTH 12 0
BBX 10 12 1 0
BITMAP
7E00
FF00
8380
01C0
00C0
3FC0
3FC0
00C0
00C0
8380
FF00
7E00
ENDCHAR
STARTCHAR 044E
ENCODING 1102
SWIDTH 810 0
DWIDTH 18 0
BBX 15 12 2 0
BITMAP
C1F0
C3F8
C71C
CE0E
CC06
FC06
FC06
CC06
CE0E
C71C
C3F8
C1F0
ENDCHAR
STARTCHAR 044F
ENCODING 1103
SWIDTH 585 0
DWIDTH 13 0
BBX 10 12 1 0
BITMAP
1FC0
3FC0
60C0
60C0
60C0
3FC0
1FC0
1CC0
18C0
30C0
70C0
E0C0
ENDCHAR
STARTCHAR 0451
ENCODING 1105
SWIDTH 585 0
DWIDTH 13 0
BBX 11 16 1 0
BITMAP
1980
1980
0000
0000
1F00
3FC0
70C0
E060
C060
FFE0
FFE0
C000
C000
7020
3FE0
1FC0
ENDCHAR
STARTCHAR 0452
ENCODING 1106
SWIDTH 630 0
DWIDTH 14 0
BBX 12 21 0 -4
BITMAP
3000
3000
FE00
FE00
3000
33C0
3FE0
3C70
3030
3030
3030
3030
3030
3030
3030
3030
3030
0060
00E0
07C0
0780
ENDCHAR
STARTCHAR 0453
ENCODING 1107
SWIDTH 450 0
DWIDTH 10 0
BBX 8 18 2 0
BITMAP
0E
1C
18
30
00
00
FF
FF
C0
C0
C0
C0
C0
C0
C0
C0
C0
C0
ENDCHAR
STARTCHAR 0454
ENCODING 1108
SWIDTH 540 0
DWIDTH 12 0
BBX 10 12 1 0
BITMAP
1F80
3FC0
7040
E000
C000
FF00
FF00
C000
C000
7040
3FC0
1F80
ENDCHAR
STARTCHAR 0455
ENCODING 1109
SWIDTH 495 0
DWIDTH 11 0
BBX 9 12 1 0
BITMAP
3F00
7F80
C080
C000
E000
7E00
1F00
0380
0180
8180
FF00
7E00
ENDCHAR
STARTCHAR 0456
ENCODING 1110
SWIDTH 270 0
DWIDTH 6 0
BBX 2 16 2 0
BITMAP
C0
C0
00
00
C0
C0
C0
C0
C0
C0
C0
C0
C0
C0
C0
C0
ENDCHAR
STARTCHAR 0457
ENCODING 1111
SWIDTH 270 0
DWIDTH 6 0
BBX 6 16 0 0
BITMAP
CC
CC
00
00
30
30
30
30
30
30
30
30
30
30
30
30
ENDCHAR
STARTCHAR 0458
ENCODING 1112
SWIDTH 360 0
DWIDTH 8 0
BBX 6 20 0 -4
BITMAP
0C
0C
00
00
7C
7C
0C
0C
0C
0C
0C
0C
0C
0C
0C
0C
0C
1C
F8
F0
ENDCHAR
STARTCHAR 0459
ENCODING 1113
SWIDTH 900 0
DWIDTH 20 0
BBX 19 12 0 0
BITMAP
1FE000
1FE000
186000
186000
186000
187F80
187FC0
186060
306060
3060E0
F07FC0
E07F80
ENDCHAR
STARTCHAR 045A
ENCODING 1114
SWIDTH 900 0
DWIDTH 20 0
BBX 17 12 2 0
BITMAP
C0C000
C0C000
C0C000
C0C000
C0C000
FFFE00
FFFF00
C0C180
C0C180
C0C180
C0FF00
C0FE00
ENDCHAR
STARTCHAR 045B
ENCODING 1115
SWIDTH 630 0
DWIDTH 14 0
BBX 12 17 0 0
BITMAP
3000
3000
FE00
FE00
3000
33C0
3FE0
3870
3030
3030
3030
3030
3030
3030
3030
3030
3030
ENDCHAR
STARTCHAR 045C
ENCODING 1116
SWIDTH 585 0
DWIDTH 13 0
BBX 11 18 2 0
BITMAP
0380
0700
0600
0C00
0000
0000
C1C0
C3C0
C600
C600
CC00
F800
FC00
CE00
C700
C380
C1C0
C0E0
ENDCHAR
STARTCHAR 045E
ENCODING 1118
SWIDTH 585 0
DWIDTH 13 0
BBX 11 20 1 -4
BITMAP
3180
3180
1F00
0000
C060
60C0
60C0
60C0
3180
3180
1B00
1B00
1B00
0E00
0E00
0C00
0C00
1800
1800
3800
ENDCHAR
STARTCHAR 045F
ENCODING 1119
SWIDTH 630 0
DWIDTH 14 0
BBX 10 15 2 -3
BITMAP
C0C0
C0C0
C0C0
C0C0
C0C0
C0C0
C0C0
C0C0
C0C0
C0C0
FFC0
FFC0
0C00
0C00
0C00
ENDCHAR
STARTCHAR 0490
ENCODING 1168
SWIDTH 540 0
DWIDTH 12 0
BBX 10 20 2 0
BITMAP
00C0
00C0
00C0
00C0
FFC0
FFC0
C000
C000
C000
C000
C000
C000
C000
C000
C000
C000
C000
C000
C000
C000
ENDCHAR
STARTCHAR 0491
ENCODING 1169
SWIDTH 450 0
DWIDTH 10 0
BBX 8 16 2 0
BITMAP
03
03
03
03
FF
FF
C0
C0
C0
C0
C0
C0
C0
C0
C0
C0
ENDCHAR
STARTCHAR 1E80
ENCODING 7808
SWIDTH 990 0
DWIDTH 22 0
BBX 20 22 1 0
BITMAP
038000
01C000
00C000
006000
000000
000000
C06030
C07030
60F060
60F060
60F060
709860
3198C0
3198C0
3198C0
190CC0
1B0D80
1B0D80
1B0D80
0E0700
0E0700
0E0700
ENDCHAR
STARTCHAR 1E81
ENCODING 7809
SWIDTH 810 0
DWIDTH 18 0
BBX 16 18 1 0
BITMAP
0E00
0700
0300
0180
0000
0000
C183
C183
63C6
63C6
6246
6666
3664
342C
343C
3C3C
1818
1818
ENDCHAR
STARTCHAR 1E82
ENCODING 7810
SWIDTH 990 0
DWIDTH 22 0
BBX 20 22 1 0
BITMAP
001C00
003800
003000
006000
000000
000000
C06030
C07030
60F060
60F060
60F060
709860
3198C0
3198C0
3198C0
190CC0
1B0D80
1B0D80
1B0D80
0E0700
0E0700
0E0700
ENDCHAR
STARTCHAR 1E83
ENCODING 7811
SWIDTH 810 0
DWIDTH 18 0
BBX 16 18 1 0
BITMAP
0070
00E0
00C0
0180
0000
0000
C183
C183
63C6
63C6
6246
6666
3664
342C
343C
3C3C
1818
1818
ENDCHAR
STARTCHAR 1E84
ENCODING 7812
SWIDTH 990 0
DWIDTH 22 0
BBX 20 20 1 0
BITMAP
019800
019800
000000
000000
C06030
C07030
60F060
60F060
60F060
709860
3198C0
3198C0
3198C0
190CC0
1B0D80
1B0D80
1B0D80
0E0700
0E0700
0E0700
ENDCHAR
STARTCHAR 1E85
ENCODING 7813
SWIDTH 810 0
DWIDTH 18 0
BBX 16 16 1 0
BITMAP
0660
0660
0000
0000
C183
C183
63C6
63C6
6246
6666
3664
342C
343C
3C3C
1818
1818
ENDCHAR
STARTCHAR 1EA0
ENCODING 7840
SWIDTH 675 0
DWIDTH 15 0
BBX 15 20 0 -4
BITMAP
0380
06C0
06C0
06C0
0C60
0C60
0C60
1830
1830
3838
3FF8
3FF8
600C
600C
600C
C006
0000
0000
0180
0180
ENDCHAR
STARTCHAR 1EA1
ENCODING 7841
SWIDTH 585 0
DWIDTH 13 0
BBX 10 16 1 -4
BITMAP
7F00
7F80
41C0
00C0
1FC0
7FC0
F0C0
C0C0
C0C0
E1C0
7FC0
3CC0
0000
0000
0C00
0C00
ENDCHAR
STARTCHAR 1EA2
ENCODING 7842
SWIDTH 675 0
DWIDTH 15 0
BBX 15 22 0 0
BITMAP
0300
0180
0180
0300
0000
0000
0380
06C0
06C0
06C0
0C60
0C60
0C60
1830
1830
3838
3FF8
3FF8
600C
600C
600C
C006
ENDCHAR
STARTCHAR 1EA3
ENCODING 7843
SWIDTH 585 0
DWIDTH 13 0
BBX 10 18 1 0
BITMAP
0C00
0600
0600
0C00
0000
0000
7F00
7F80
41C0
00C0
1FC0
7FC0
F0C0
C0C0
C0C0
E1C0
7FC0
3CC0
ENDCHAR
STARTCHAR 1EA4
ENCODING 7844
SWIDTH 675 0
DWIDTH 15 0
BBX 15 22 0 0
BITMAP
038E
06CC
06D8
0C60
0000
0000
0380
06C0
06C0
06C0
0C60
0C60
0C60
1830
1830
3838
3FF8
3FF8
600C
600C
600C
C006
ENDCHAR
STARTCHAR 1EA5
ENCODING 7845
SWIDTH 585 0
DWIDTH 13 0
BBX 13 18 1 0
BITMAP
0E38
1B30
1B60
3180
0000
0000
7F00
7F80
41C0
00C0
1FC0
7FC0
F0C0
C0C0
C0C0
E1C0
7FC0
3CC0
ENDCHAR
STARTCHAR 1EA6
ENCODING 7846
SWIDTH 675 0
DWIDTH 15 0
BBX 15 22 0 0
BITMAP
E380
66C0
36C0
0C60
0000
0000
0380
06C0
06C0
06C0
0C60
0C60
0C60
1830
1830
3838
3FF8
3FF8
600C
600C
600C
C006
ENDCHAR
STARTCHAR 1EA7
ENCODING 7847
SWIDTH 585 0
DWIDTH 13 0
BBX 12 18 -1 0
BITMAP
E380
66C0
36C0
0C60
0000
0000
1FC0
1FE0
1070
0030
07F0
1FF0
3C30
3030
3030
3870
1FF0
0F30
ENDCHAR
STARTCHAR 1EA8
ENCODING 7848
SWIDTH 675 0
DWIDTH 15 0
BBX 15 22 0 0
BITMAP
0398
07CC
06CC
0C78
0000
0000
0380
06C0
06C0
06C0
0C60
0C60
0C60
1830
1830
3838
3FF8
3FF8
600C
600C
600C
C006
ENDCHAR
STARTCHAR 1EA9
ENCODING 7849
SWIDTH 585 0
DWIDTH 13 0
BBX 11 20 1 0
BITMAP
00C0
0060
0E60
1BC0
1B00
3180
0000
0000
7F00
7F80
41C0
00C0
1FC0
7FC0
F0C0
C0C0
C0C0
E1C0
7FC0
3CC0
ENDCHAR
STARTCHAR 1EAA
ENCODING 7850
SWIDTH 675 0
DWIDTH 15 0
BBX 15 22 0 0
BITMAP
0720
09C0
0000
0380
06C0
0000
0380
06C0
06C0
06C0
0C60
0C60
0C60
1830
1830
3838
3FF8
3FF8
600C
600C
600C
C006
ENDCHAR
STARTCHAR 1EAB
ENCODING 7851
SWIDTH 585 0
DWIDTH 13 0
BBX 10 22 1 0
BITMAP
1980
3F80
3300
0000
0E00
1B00
1B00
3180
0000
0000
7F00
7F80
41C0
00C0
1FC0
7FC0
F0C0
C0C0
C0C0
E1C0
7FC0
3CC0
ENDCHAR
STARTCHAR 1EAC
ENCODING 7852
SWIDTH 675 0
DWIDTH 15 0
BBX 15 26 0 -4
BITMAP
0380
06C0
06C0
0C60
0000
0000
0380
06C0
06C0
06C0
0C60
0C60
0C60
1830
1830
3838
3FF8
3FF8
600C
600C
600C
C006
0000
0000
0180
0180
ENDCHAR
STARTCHAR 1EAD
ENCODING 7853
SWIDTH 585 0
DWIDTH 13 0
BBX 10 22 1 -4
BITMAP
0E00
1B00
1B00
3180
0000
0000
7F00
7F80
41C0
00C0
1FC0
7FC0
F0C0
C0C0
C0C0
E1C0
7FC0
3CC0
0000
0000
0C00
0C00
ENDCHAR
STARTCHAR 1EAE
ENCODING 7854
SWIDTH 675 0
DWIDTH 15 0
BBX 15 22 0 0
BITMAP
00C0
0180
0C60
0C60
07C0
0000
0380
06C0
06C0
06C0
0C60
0C60
0C60
1830
1830
3838
3FF8
3FF8
600C
600C
600C
C006
ENDCHAR
STARTCHAR 1EAF
ENCODING 7855
SWIDTH 585 0
DWIDTH 13 0
BBX 10 20 1 0
BITMAP
0380
0300
0600
3180
3180
1100
0E00
0000
7F00
7F80
41C0
00C0
1FC0
7FC0
F0C0
C0C0
C0C0
E1C0
7FC0
3CC0
ENDCHAR
STARTCHAR 1EB0
ENCODING 7856
SWIDTH 675 0
DWIDTH 15 0
BBX 15 22 0 0
BITMAP
0600
0300
0C60
0C60
07C0
0000
0380
06C0
06C0
06C0
0C60
0C60
0C60
1830
1830
3838
3FF8
3FF8
600C
600C
600C
C006
ENDCHAR
STARTCHAR 1EB1
ENCODING 7857
SWIDTH 585 0
DWIDTH 13 0
BBX 10 20 1 0
BITMAP
3800
1800
0C00
3180
3180
1100
0E00
0000
7F00
7F80
41C0
00C0
1FC0
7FC0
F0C0
C0C0
C0C0
E1C0
7FC0
3CC0
ENDCHAR
STARTCHAR 1EB2
ENCODING 7858
SWIDTH 675 0
DWIDTH 15 0
BBX 15 22 0 0
BITMAP
0180
0080
0D60
0C60
07C0
0000
0380
06C0
06C0
06C0
0C60
0C60
0C60
1830
1830
3838
3FF8
3FF8
600C
600C
600C
C006
ENDCHAR
STARTCHAR 1EB3
ENCODING 7859
SWIDTH 585 0
DWIDTH 13 0
BBX 10 20 1 0
BITMAP
0E00
0200
0400
3180
3180
1100
0E00
0000
7F00
7F80
41C0
00C0
1FC0
7FC0
F0C0
C0C0
C0C0
E1C0
7FC0
3CC0
ENDCHAR
STARTCHAR 1EB4
ENCODING 7860
SWIDTH 675 0
DWIDTH 15 0
BBX 15 22 0 0
BITMAP
0720
09C0
0000
0C60
07C0
0000
0380
06C0
06C0
06C0
0C60
0C60
0C60
1830
1830
3838
3FF8
3FF8
600C
600C
600C
C006
ENDCHAR
STARTCHAR 1EB5
ENCODING 7861
SWIDTH 585 0
DWIDTH 13 0
BBX 10 21 1 0
BITMAP
1980
3F80
3300
0000
3180
3180
1100
0E00
0000
7F00
7F80
41C0
00C0
1FC0
7FC0
F0C0
C0C0
C0C0
E1C0
7FC0
3CC0
ENDCHAR
STARTCHAR 1EB6
ENCODING 7862
SWIDTH 675 0
DWIDTH 15 0
BBX 15 26 0 -4
BITMAP
0C30
0C30
0660
03C0
0000
0000
0380
06C0
06C0
06C0
0C60
0C60
0C60
1830
1830
3838
3FF8
3FF8
600C
600C
600C
C006
0000
0000
0180
0180
ENDCHAR
STARTCHAR 1EB7
ENCODING 7863
SWIDTH 585 0
DWIDTH 13 0
BBX 10 22 1 -4
BITMAP
30C0
30C0
1980
0F00
0000
0000
7F00
7F80
41C0
00C0
1FC0
7FC0
F0C0
C0C0
C0C0
E1C0
7FC0
3CC0
0000
0000
0C00
0C00
ENDCHAR
STARTCHAR 1EB8
ENCODING 7864
SWIDTH 630 0
DWIDTH 14 0
BBX 11 20 2 -4
BITMAP
FFE0
FFE0
C000
C000
C000
C000
FFE0
FFE0
C000
C000
C000
C000
C000
C000
FFE0
FFE0
0000
0000
0600
0600
ENDCHAR
STARTCHAR 1EB9
ENCODING 7865
SWIDTH 585 0
DWIDTH 13 0
BBX 11 16 1 -4
BITMAP
1F00
3FC0
70C0
E060
C060
FFE0
FFE0
C000
C000
7020
3FE0
1FC0
0000
0000
0600
0600
ENDCHAR
STARTCHAR 1EBA
ENCODING 7866
SWIDTH 630 0
DWIDTH 14 0
BBX 11 22 2 0
BITMAP
0C00
0600
0600
0C00
0000
0000
FFE0
FFE0
C000
C000
C000
C000
FFE0
FFE0
C000
C000
C000
C000
C000
C000
FFE0
FFE0
ENDCHAR
STARTCHAR 1EBB
ENCODING 7867
SWIDTH 585 0
DWIDTH 13 0
BBX 11 18 1 0
BITMAP
0600
0300
0300
0600
0000
0000
1F00
3FC0
70C0
E060
C060
FFE0
FFE0
C000
C000
7020
3FE0
1FC0
ENDCHAR
STARTCHAR 1EBC
ENCODING 7868
SWIDTH 630 0
DWIDTH 14 0
BBX 11 21 2 0
BITMAP
3C40
7FC0
4780
0000
0000
FFE0
FFE0
C000
C000
C000
C000
FFE0
FFE0
C000
C000
C000
C000
C000
C000
FFE0
FFE0
ENDCHAR
STARTCHAR 1EBD
ENCODING 7869
SWIDTH 585 0
DWIDTH 13 0
BBX 11 17 1 0
BITMAP
3C40
7FC0
4780
0000
0000
1F00
3FC0
70C0
E060
C060
FFE0
FFE0
C000
C000
7020
3FE0
1FC0
ENDCHAR
STARTCHAR 1EBE
ENCODING 7870
SWIDTH 630 0
DWIDTH 14 0
BBX 13 22 2 0
BITMAP
0E38
1B30
1B60
3180
0000
0000
FFE0
FFE0
C000
C000
C000
C000
FFE0
FFE0
C000
C000
C000
C000
C000
C000
FFE0
FFE0
ENDCHAR
STARTCHAR 1EBF
ENCODING 7871
SWIDTH 585 0
DWIDTH 13 0
BBX 14 18 1 0
BITMAP
071C
0D98
0DB0
18C0
0000
0000
1F00
3FC0
70C0
E060
C060
FFE0
FFE0
C000
C000
7020
3FE0
1FC0
ENDCHAR
STARTCHAR 1EC0
ENCODING 7872
SWIDTH 630 0
DWIDTH 14 0
BBX 13 22 0 0
BITMAP
E380
66C0
36C0
0C60
0000
0000
3FF8
3FF8
3000
3000
3000
3000
3FF8
3FF8
3000
3000
3000
3000
3000
3000
3FF8
3FF8
ENDCHAR
STARTCHAR 1EC1
ENCODING 7873
SWIDTH 585 0
DWIDTH 13 0
BBX 12 18 0 0
BITMAP
E380
66C0
36C0
0C60
0000
0000
0F80
1FE0
3860
7030
6030
7FF0
7FF0
6000
6000
3810
1FF0
0FE0
ENDCHAR
STARTCHAR 1EC2
ENCODING 7874
SWIDTH 630 0
DWIDTH 14 0
BBX 12 22 2 0
BITMAP
0E60
1F30
1B30
31E0
0000
0000
FFE0
FFE0
C000
C000
C000
C000
FFE0
FFE0
C000
C000
C000
C000
C000
C000
FFE0
FFE0
ENDCHAR
STARTCHAR 1EC3
ENCODING 7875
SWIDTH 585 0
DWIDTH 13 0
BBX 12 20 1 0
BITMAP
0060
0030
0730
0DE0
0D80
18C0
0000
0000
1F00
3FC0
70C0
E060
C060
FFE0
FFE0
C000
C000
7020
3FE0
1FC0
ENDCHAR
STARTCHAR 1EC4
ENCODING 7876
SWIDTH 630 0
DWIDTH 14 0
BBX 11 22 2 0
BITMAP
1C80
2700
0000
0E00
1B00
0000
FFE0
FFE0
C000
C000
C000
C000
FFE0
FFE0
C000
C000
C000
C000
C000
C000
FFE0
FFE0
ENDCHAR
STARTCHAR 1EC5
ENCODING 7877
SWIDTH 585 0
DWIDTH 13 0
BBX 11 22 1 0
BITMAP
0CC0
1FC0
1980
0000
0700
0D80
0D80
18C0
0000
0000
1F00
3FC0
70C0
E060
C060
FFE0
FFE0
C000
C000
7020
3FE0
1FC0
ENDCHAR
STARTCHAR 1EC6
ENCODING 7878
SWIDTH 630 0
DWIDTH 14 0
BBX 11 26 2 -4
BITMAP
0E00
1B00
1B00
3180
0000
0000
FFE0
FFE0
C000
C000
C000
C000
FFE0
FFE0
C000
C000
C000
C000
C000
C000
FFE0
FFE0
0000
0000
0600
0600
ENDCHAR
STARTCHAR 1EC7
ENCODING 7879
SWIDTH 585 0
DWIDTH 13 0
BBX 11 22 1 -4
BITMAP
0700
0D80
0D80
18C0
0000
0000
1F00
3FC0
70C0
E060
C060
FFE0
FFE0
C000
C000
7020
3FE0
1FC0
0000
0000
0600
0600
ENDCHAR
STARTCHAR 1EC8
ENCODING 7880
SWIDTH 450 0
DWIDTH 10 0
BBX 6 22 2 0
BITMAP
18
0C
0C
18
00
00
FC
FC
30
30
30
30
30
30
30
30
30
30
30
30
FC
FC
ENDCHAR
STARTCHAR 1EC9
ENCODING 7881
SWIDTH 270 0
DWIDTH 6 0
BBX 4 18 2 0
BITMAP
60
30
30
60
00
00
C0
C0
C0
C0
C0
C0
C0
C0
C0
C0
C0
C0
ENDCHAR
STARTCHAR 1ECA
ENCODING 7882
SWIDTH 450 0
DWIDTH 10 0
BBX 6 20 2 -4
BITMAP
FC
FC
30
30
30
30
30
30
30
30
30
30
30
30
FC
FC
00
00
30
30
ENDCHAR
STARTCHAR 1ECB
ENCODING 7883
SWIDTH 270 0
DWIDTH 6 0
BBX 2 20 2 -4
BITMAP
C0
C0
00
00
C0
C0
C0
C0
C0
C0
C0
C0
C0
C0
C0
C0
00
00
C0
C0
ENDCHAR
STARTCHAR 1ECC
ENCODING 7884
SWIDTH 765 0
DWIDTH 17 0
BBX 15 20 1 -4
BITMAP
0FE0
1FF0
3838
701C
600C
C006
C006
C006
C006
C006
C006
600C
701C
3838
1FF0
0FE0
0000
0000
0180
0180
ENDCHAR
STARTCHAR 1ECD
ENCODING 7885
SWIDTH 585 0
DWIDTH 13 0
BBX 11 16 1 -4
BITMAP
1F00
3F80
71C0
E0E0
C060
C060
C060
C060
E0E0
71C0
3F80
1F00
0000
0000
0600
0600
ENDCHAR
STARTCHAR 1ECE
ENCODING 7886
SWIDTH 765 0
DWIDTH 17 0
BBX 15 22 1 0
BITMAP
0300
0180
0180
0300
0000
0000
0FE0
1FF0
3838
701C
600C
C006
C006
C006
C006
C006
C006
600C
701C
3838
1FF0
0FE0
ENDCHAR
STARTCHAR 1ECF
ENCODING 7887
SWIDTH 585 0
DWIDTH 13 0
BBX 11 18 1 0
BITMAP
0600
0300
0300
0600
0000
0000
1F00
3F80
71C0
E0E0
C060
C060
C060
C060
E0E0
71C0
3F80
1F00
ENDCHAR
STARTCHAR 1ED0
ENCODING 7888
SWIDTH 765 0
DWIDTH 17 0
BBX 15 22 1 0
BITMAP
038E
06CC
06D8
0C60
0000
0000
0FE0
1FF0
3838
701C
600C
C006
C006
C006
C006
C006
C006
600C
701C
3838
1FF0
0FE0
ENDCHAR
STARTCHAR 1ED1
ENCODING 7889
SWIDTH 585 0
DWIDTH 13 0
BBX 13 18 1 0
BITMAP
0E38
1B30
1B60
3180
0000
0000
1F00
3F80
71C0
E0E0
C060
C060
C060
C060
E0E0
71C0
3F80
1F00
ENDCHAR
STARTCHAR 1ED2
ENCODING 7890
SWIDTH 765 0
DWIDTH 17 0
BBX 15 22 1 0
BITMAP
E380
66C0
36C0
0C60
0000
0000
0FE0
1FF0
3838
701C
600C
C006
C006
C006
C006
C006
C006
600C
701C
3838
1FF0
0FE0
ENDCHAR
STARTCHAR 1ED3
ENCODING 7891
SWIDTH 585 0
DWIDTH 13 0
BBX 13 18 -1 0
BITMAP
E380
66C0
36C0
0C60
0000
0000
07C0
0FE0
1C70
3838
3018
3018
3018
3018
3838
1C70
0FE0
07C0
ENDCHAR
STARTCHAR 1ED4
ENCODING 7892
SWIDTH 765 0
DWIDTH 17 0
BBX 15 22 1 0
BITMAP
0398
07CC
06CC
0C78
0000
0000
0FE0
1FF0
3838
701C
600C
C006
C006
C006
C006
C006
C006
600C
701C
3838
1FF0
0FE0
ENDCHAR
STARTCHAR 1ED5
ENCODING 7893
SWIDTH 585 0
DWIDTH 13 0
BBX 11 20 1 0
BITMAP
00C0
0060
0E60
1BC0
1B00
3180
0000
0000
1F00
3F80
71C0
E0E0
C060
C060
C060
C060
E0E0
71C0
3F80
1F00
ENDCHAR
STARTCHAR 1ED6
ENCODING 7894
SWIDTH 765 0
DWIDTH 17 0
BBX 15 22 1 0
BITMAP
0720
09C0
0000
0380
06C0
0000
0FE0
1FF0
3838
701C
600C
C006
C006
C006
C006
C006
C006
600C
701C
3838
1FF0
0FE0
ENDCHAR
STARTCHAR 1ED7
ENCODING 7895
SWIDTH 585 0
DWIDTH 13 0
BBX 11 22 1 0
BITMAP
1980
3F80
3300
0000
0E00
1B00
1B00
3180
0000
0000
1F00
3F80
71C0
E0E0
C060
C060
C060
C060
E0E0
71C0
3F80
1F00
ENDCHAR
STARTCHAR 1ED8
ENCODING 7896
SWIDTH 765 0
DWIDTH 17 0
BBX 15 26 1 -4
BITMAP
0380
06C0
06C0
0C60
0000
0000
0FE0
1FF0
3838
701C
600C
C006
C006
C006
C006
C006
C006
600C
701C
3838
1FF0
0FE0
0000
0000
0180
0180
ENDCHAR
STARTCHAR 1ED9
ENCODING 7897
SWIDTH 585 0
DWIDTH 13 0
BBX 11 22 1 -4
BITMAP
0E00
1B00
1B00
3180
0000
0000
1F00
3F80
71C0
E0E0
C060
C060
C060
C060
E0E0
71C0
3F80
1F00
0000
0000
0600
0600
ENDCHAR
STARTCHAR 1EDA
ENCODING 7898
SWIDTH 810 0
DWIDTH 18 0
BBX 17 22 1 0
BITMAP
00E000
01C000
018000
030000
000000
000000
0FC180
1FF180
383980
701D80
600F00
C00600
C00600
C00600
C00600
C00600
C00600
600C00
701C00
383800
1FF000
0FE000
ENDCHAR
STARTCHAR 1EDB
ENCODING 7899
SWIDTH 585 0
DWIDTH 13 0
BBX 12 18 1 0
BITMAP
0380
0700
0630
0C30
0030
0030
1FE0
3FC0
71C0
E0E0
C060
C060
C060
C060
E0E0
71C0
3F80
1F00
ENDCHAR
STARTCHAR 1EDC
ENCODING 7900
SWIDTH 810 0
DWIDTH 18 0
BBX 17 22 1 0
BITMAP
070000
038000
018000
00C000
000000
000000
0FC180
1FF180
383980
701D80
600F00
C00600
C00600
C00600
C00600
C00600
C00600
600C00
701C00
383800
1FF000
0FE000
ENDCHAR
STARTCHAR 1EDD
ENCODING 7901
SWIDTH 585 0
DWIDTH 13 0
BBX 12 18 1 0
BITMAP
1C00
0E00
0630
0330
0030
0030
1FE0
3FC0
71C0
E0E0
C060
C060
C060
C060
E0E0
71C0
3F80
1F00
ENDCHAR
STARTCHAR 1EDE
ENCODING 7902
SWIDTH 810 0
DWIDTH 18 0
BBX 17 22 1 0
BITMAP
018000
00C000
00C000
018000
000000
000000
0FC180
1FF180
383980
701D80
600F00
C00600
C00600
C00600
C00600
C00600
C00600
600C00
701C00
383800
1FF000
0FE000
ENDCHAR
STARTCHAR 1EDF
ENCODING 7903
SWIDTH 585 0
DWIDTH 13 0
BBX 12 18 1 0
BITMAP
0600
0300
0330
0630
0030
0030
1FE0
3FC0
71C0
E0E0
C060
C060
C060
C060
E0E0
71C0
3F80
1F00
ENDCHAR
STARTCHAR 1EE0
ENCODING 7904
SWIDTH 810 0
DWIDTH 18 0
BBX 17 21 1 0
BITMAP
0F1000
1FF000
11E000
000000
000000
0FC180
1FF180
383980
701D80
600F00
C00600
C00600
C00600
C00600
C00600
C00600
600C00
701C00
383800
1FF000
0FE000
ENDCHAR
STARTCHAR 1EE1
ENCODING 7905
SWIDTH 585 0
DWIDTH 13 0
BBX 12 17 1 0
BITMAP
3C40
7FF0
47B0
0030
0030
1FE0
3FC0
71C0
E0E0
C060
C060
C060
C060
E0E0
71C0
3F80
1F00
ENDCHAR
STARTCHAR 1EE2
ENCODING 7906
SWIDTH 810 0
DWIDTH 18 0
BBX 17 20 1 -4
BITMAP
0FC180
1FF180
383980
701D80
600F00
C00600
C00600
C00600
C00600
C00600
C00600
600C00
701C00
383800
1FF000
0FE000
000000
000000
018000
018000
ENDCHAR
STARTCHAR 1EE3
ENCODING 7907
SWIDTH 585 0
DWIDTH 13 0
BBX 12 20 1 -4
BITMAP
0030
0030
0030
0030
1FE0
3FC0
71C0
E0E0
C060
C060
C060
C060
E0E0
71C0
3F80
1F00
0000
0000
0600
0600
ENDCHAR
STARTCHAR 1EE4
ENCODING 7908
SWIDTH 720 0
DWIDTH 16 0
BBX 12 20 2 -4
BITMAP
C030
C030
C030
C030
C030
C030
C030
C030
C030
C030
C030
C030
E070
70E0
3FC0
1F80
0000
0000
0600
0600
ENDCHAR
STARTCHAR 1EE5
ENCODING 7909
SWIDTH 630 0
DWIDTH 14 0
BBX 10 16 2 -4
BITMAP
C0C0
C0C0
C0C0
C0C0
C0C0
C0C0
C0C0
C0C0
C0C0
E1C0
7FC0
3CC0
0000
0000
0C00
0C00
ENDCHAR
STARTCHAR 1EE6
ENCODING 7910
SWIDTH 720 0
DWIDTH 16 0
BBX 12 22 2 0
BITMAP
0300
0180
0180
0300
0000
0000
C030
C030
C030
C030
C030
C030
C030
C030
C030
C030
C030
C030
E070
70E0
3FC0
1F80
ENDCHAR
STARTCHAR 1EE7
ENCODING 7911
SWIDTH 630 0
DWIDTH 14 0
BBX 10 18 2 0
BITMAP
0600
0300
0300
0600
0000
0000
C0C0
C0C0
C0C0
C0C0
C0C0
C0C0
C0C0
C0C0
C0C0
E1C0
7FC0
3CC0
ENDCHAR
STARTCHAR 1EE8
ENCODING 7912
SWIDTH 765 0
DWIDTH 17 0
BBX 17 22 2 0
BITMAP
00E000
01C000
018180
030180
000180
000180
C01F00
C01800
C01800
C01800
C01800
C01800
C01800
C01800
C01800
C01800
C01800
C01800
E03800
707000
3FE000
1FC000
ENDCHAR
STARTCHAR 1EE9
ENCODING 7913
SWIDTH 675 0
DWIDTH 15 0
BBX 14 18 2 0
BITMAP
0380
0700
060C
0C0C
000C
000C
C0F8
C0C0
C0C0
C0C0
C0C0
C0C0
C0C0
C0C0
C0C0
E1C0
7FC0
3CC0
ENDCHAR
STARTCHAR 1EEA
ENCODING 7914
SWIDTH 765 0
DWIDTH 17 0
BBX 17 22 2 0
BITMAP
0E0000
070000
030180
018180
000180
000180
C01F00
C01800
C01800
C01800
C01800
C01800
C01800
C01800
C01800
C01800
C01800
C01800
E03800
707000
3FE000
1FC000
ENDCHAR
STARTCHAR 1EEB
ENCODING 7915
SWIDTH 675 0
DWIDTH 15 0
BBX 14 18 2 0
BITMAP
3800
1C00
0C0C
060C
000C
000C
C0F8
C0C0
C0C0
C0C0
C0C0
C0C0
C0C0
C0C0
C0C0
E1C0
7FC0
3CC0
ENDCHAR
STARTCHAR 1EEC
ENCODING 7916
SWIDTH 765 0
DWIDTH 17 0
BBX 17 22 2 0
BITMAP
030000
018000
018180
030180
000180
000180
C01F00
C01800
C01800
C01800
C01800
C01800
C01800
C01800
C01800
C01800
C01800
C01800
E03800
707000
3FE000
1FC000
ENDCHAR
STARTCHAR 1EED
ENCODING 7917
SWIDTH 675 0
DWIDTH 15 0
BBX 14 18 2 0
BITMAP
0600
0300
030C
060C
000C
000C
C0F8
C0C0
C0C0
C0C0
C0C0
C0C0
C0C0
C0C0
C0C0
E1C0
7FC0
3CC0
ENDCHAR
STARTCHAR 1EEE
ENCODING 7918
SWIDTH 765 0
DWIDTH 17 0
BBX 17 21 2 0
BITMAP
1E2000
3FE180
23C180
000180
000180
C01F00
C01800
C01800
C01800
C01800
C01800
C01800
C01800
C01800
C01800
C01800
C01800
E03800
707000
3FE000
1FC000
ENDCHAR
STARTCHAR 1EEF
ENCODING 7919
SWIDTH 675 0
DWIDTH 15 0
BBX 14 17 2 0
BITMAP
3C40
7FCC
478C
000C
000C
C0F8
C0C0
C0C0
C0C0
C0C0
C0C0
C0C0
C0C0
C0C0
E1C0
7FC0
3CC0
ENDCHAR
STARTCHAR 1EF0
ENCODING 7920
SWIDTH 765 0
DWIDTH 17 0
BBX 17 24 2 -4
BITMAP
000180
000180
000180
000180
C01F00
C01800
C01800
C01800
C01800
C01800
C01800
C01800
C01800
C01800
C01800
C01800
E03800
707000
3FE000
1FC000
000000
000000
030000
030000
ENDCHAR
STARTCHAR 1EF1
ENCODING 7921
SWIDTH 675 0
DWIDTH 15 0
BBX 14 20 2 -4
BITMAP
000C
000C
000C
000C
C0F8
C0C0
C0C0
C0C0
C0C0
C0C0
C0C0
C0C0
C0C0
E1C0
7FC0
3CC0
0000
0000
0C00
0C00
ENDCHAR
STARTCHAR 1EF2
ENCODING 7922
SWIDTH 630 0
DWIDTH 14 0
BBX 14 22 0 0
BITMAP
0E00
0700
0300
0180
0000
0000
E01C
6018
3030
3870
1860
0CC0
0FC0
0780
0300
0300
0300
0300
0300
0300
0300
0300
ENDCHAR
STARTCHAR 1EF3
ENCODING 7923
SWIDTH 585 0
DWIDTH 13 0
BBX 11 22 1 -4
BITMAP
1C00
0E00
0600
0300
0000
0000
C060
60C0
60C0
60C0
3180
3180
1B00
1B00
1B00
0E00
0E00
0C00
0C00
1800
1800
3800
ENDCHAR
STARTCHAR 1EF4
ENCODING 7924
SWIDTH 630 0
DWIDTH 14 0
BBX 14 20 0 -4
BITMAP
E01C
6018
3030
3870
1860
0CC0
0FC0
0780
0300
0300
0300
0300
0300
0300
0300
0300
0000
0000
0300
0300
ENDCHAR
STARTCHAR 1EF5
ENCODING 7925
SWIDTH 585 0
DWIDTH 13 0
BBX 11 16 1 -4
BITMAP
C060
60C0
60C0
60C0
3180
3180
1B00
1B00
1B00
0E00
0E00
0C00
0C00
1800
18C0
38C0
ENDCHAR
STARTCHAR 1EF6
ENCODING 7926
SWIDTH 630 0
DWIDTH 14 0
BBX 14 22 0 0
BITMAP
0300
0180
0180
0300
0000
0000
E01C
6018
3030
3870
1860
0CC0
0FC0
0780
0300
0300
0300
0300
0300
0300
0300
0300
ENDCHAR
STARTCHAR 1EF7
ENCODING 7927
SWIDTH 585 0
DWIDTH 13 0
BBX 11 22 1 -4
BITMAP
0600
0300
0300
0600
0000
0000
C060
60C0
60C0
60C0
3180
3180
1B00
1B00
1B00
0E00
0E00
0C00
0C00
1800
1800
3800
ENDCHAR
STARTCHAR 1EF8
ENCODING 7928
SWIDTH 630 0
DWIDTH 14 0
BBX 14 21 0 0
BITMAP
0F10
1FF0
11E0
0000
0000
E01C
6018
3030
3870
1860
0CC0
0FC0
0780
0300
0300
0300
0300
0300
0300
0300
0300
ENDCHAR
STARTCHAR 1EF9
ENCODING 7929
SWIDTH 585 0
DWIDTH 13 0
BBX 11 21 1 -4
BITMAP
3C40
7FC0
4780
0000
0000
C060
60C0
60C0
60C0
3180
3180
1B00
1B00
1B00
0E00
0E00
0C00
0C00
1800
1800
3800
ENDCHAR
STARTCHAR 2013
ENCODING 8211
SWIDTH 630 0
DWIDTH 14 0
BBX 10 2 2 6
BITMAP
FFC0
FFC0
ENDCHAR
STARTCHAR 2014
ENCODING 8212
SWIDTH 990 0
DWIDTH 22 0
BBX 18 2 2 6
BITMAP
FFFFC0
FFFFC0
ENDCHAR
STARTCHAR 2015
ENCODING 8213
SWIDTH 990 0
DWIDTH 22 0
BBX 18 2 2 6
BITMAP
FFFFC0
FFFFC0
ENDCHAR
STARTCHAR 2017
ENCODING 8215
SWIDTH 630 0
DWIDTH 14 0
BBX 14 3 0 -4
BITMAP
FFFC
0000
FFFC
ENDCHAR
STARTCHAR 2018
ENCODING 8216
SWIDTH 270 0
DWIDTH 6 0
BBX 4 6 0 11
BITMAP
E0
60
60
20
30
30
ENDCHAR
STARTCHAR 2019
ENCODING 8217
SWIDTH 270 0
DWIDTH 6 0
BBX 4 6 2 11
BITMAP
70
60
60
40
C0
C0
ENDCHAR
STARTCHAR 201A
ENCODING 8218
SWIDTH 270 0
DWIDTH 6 0
BBX 4 6 0 -3
BITMAP
70
60
60
40
C0
C0
ENDCHAR
STARTCHAR 201B
ENCODING 8219
SWIDTH 270 0
DWIDTH 6 0
BBX 4 6 0 11
BITMAP
30
30
20
60
60
E0
ENDCHAR
STARTCHAR 201C
ENCODING 8220
SWIDTH 450 0
DWIDTH 10 0
BBX 8 6 0 11
BITMAP
EE
66
66
22
33
33
ENDCHAR
STARTCHAR 201D
ENCODING 8221
SWIDTH 450 0
DWIDTH 10 0
BBX 8 6 2 11
BITMAP
37
66
66
44
CC
CC
ENDCHAR
STARTCHAR 201E
ENCODING 8222
SWIDTH 450 0
DWIDTH 10 0
BBX 8 6 0 -3
BITMAP
37
66
66
44
CC
CC
ENDCHAR
STARTCHAR 2020
ENCODING 8224
SWIDTH 630 0
DWIDTH 14 0
BBX 9 16 2 1
BITMAP
0800
0800
0800
0800
FF80
0800
0800
0800
0800
0800
0800
0800
0800
0800
0800
0800
ENDCHAR
STARTCHAR 2021
ENCODING 8225
SWIDTH 630 0
DWIDTH 14 0
BBX 9 16 2 1
BITMAP
0800
0800
0800
0800
FF80
0800
0800
0800
0800
0800
FF80
0800
0800
0800
0800
0800
ENDCHAR
STARTCHAR 2022
ENCODING 8226
SWIDTH 540 0
DWIDTH 12 0
BBX 8 8 2 3
BITMAP
3C
7E
FF
FF
FF
FF
7E
3C
ENDCHAR
STARTCHAR 2026
ENCODING 8230
SWIDTH 810 0
DWIDTH 18 0
BBX 14 2 2 0
BITMAP
C30C
C30C
ENDCHAR
STARTCHAR 2030
ENCODING 8240
SWIDTH 1485 0
DWIDTH 33 0
BBX 30 16 2 0
BITMAP
3C060000
7E0C0000
E70C0000
C3180000
C3180000
C3300000
E7300000
7E63C0F0
3C67E1F8
00CE739C
00CC330C
018C330C
018C330C
030C739C
0307E1F8
0603C0F0
ENDCHAR
STARTCHAR 2032
ENCODING 8242
SWIDTH 360 0
DWIDTH 8 0
BBX 4 7 2 9
BITMAP
30
60
60
60
40
C0
80
ENDCHAR
STARTCHAR 2033
ENCODING 8243
SWIDTH 540 0
DWIDTH 12 0
BBX 8 7 2 9
BITMAP
33
66
66
66
44
CC
88
ENDCHAR
STARTCHAR 2039
ENCODING 8249
SWIDTH 450 0
DWIDTH 10 0
BBX 6 10 2 2
BITMAP
04
0C
18
70
E0
E0
70
18
0C
04
ENDCHAR
STARTCHAR 203A
ENCODING 8250
SWIDTH 450 0
DWIDTH 10 0
BBX 6 10 2 2
BITMAP
80
C0
60
38
1C
1C
38
60
C0
80
ENDCHAR
STARTCHAR 203C
ENCODING 8252
SWIDTH 630 0
DWIDTH 14 0
BBX 7 16 3 0
BITMAP
C6
C6
C6
C6
C6
C6
C6
C6
C6
C6
C6
C6
00
00
C6
C6
ENDCHAR
STARTCHAR 203E
ENCODING 8254
SWIDTH 630 0
DWIDTH 14 0
BBX 15 1 -1 18
BITMAP
FFFE
ENDCHAR
STARTCHAR 2044
ENCODING 8260
SWIDTH 360 0
DWIDTH 8 0
BBX 10 16 -1 0
BITMAP
00C0
0180
0180
0300
0300
0600
0600
0C00
0C00
1800
1800
3000
3000
6000
6000
C000
ENDCHAR
STARTCHAR 207F
ENCODING 8319
SWIDTH 540 0
DWIDTH 12 0
BBX 8 10 2 6
BITMAP
DE
FF
E3
C3
C3
C3
C3
C3
C3
C3
ENDCHAR
STARTCHAR 20A3
ENCODING 8355
SWIDTH 630 0
DWIDTH 14 0
BBX 11 16 1 0
BITMAP
3FE0
3FE0
3000
3000
3000
3000
3FC0
3FC0
3000
3000
3000
FE00
FE00
3000
3000
3000
ENDCHAR
STARTCHAR 20A4
ENCODING 8356
SWIDTH 630 0
DWIDTH 14 0
BBX 11 16 1 0
BITMAP
07E0
1FE0
1820
3000
3000
3000
3000
7F00
7F00
3000
7F00
7F00
3000
6000
FFE0
FFE0
ENDCHAR
STARTCHAR 20A7
ENCODING 8359
SWIDTH 1170 0
DWIDTH 26 0
BBX 23 16 2 0
BITMAP
FC0000
FF0000
C3B000
C1B000
C1FFFC
C1FFFE
C1B182
C73180
FE3180
FC30F8
C0307C
C03006
C03006
C03106
C031FC
C030F8
ENDCHAR
STARTCHAR 20AB
ENCODING 8363
SWIDTH 630 0
DWIDTH 14 0
BBX 13 20 1 -3
BITMAP
0060
0060
07F8
07F8
0060
1F60
3FE0
7060
E060
C060
C060
C060
C060
C060
60E0
7FE0
1E60
0000
0000
7FE0
ENDCHAR
STARTCHAR 20AC
ENCODING 8364
SWIDTH 630 0
DWIDTH 14 0
BBX 13 16 0 0
BITMAP
03F0
0FF8
1C08
3800
3000
6000
FF80
6000
6000
FF00
6000
3000
3800
1C08
0FF8
03F0
ENDCHAR
STARTCHAR 2105
ENCODING 8453
SWIDTH 1080 0
DWIDTH 24 0
BBX 20 16 2 0
BITMAP
3C0600
7E0C00
E20C00
C01800
C01800
C03000
E23000
7E63C0
3C67E0
00CE70
00CC30
018C30
018C30
030C70
0307E0
0703C0
ENDCHAR
STARTCHAR 2113
ENCODING 8467
SWIDTH 315 0
DWIDTH 7 0
BBX 7 16 0 0
BITMAP
1C
36
36
36
36
3C
38
38
30
70
70
F0
30
32
3E
1C
ENDCHAR
STARTCHAR 2116
ENCODING 8470
SWIDTH 1170 0
DWIDTH 26 0
BBX 22 16 2 0
BITMAP
F030F0
F031F8
F8339C
D8330C
DC330C
CC330C
CE339C
C631F8
C730F0
C33000
C3B000
C1B000
C1F0F0
C0F0F0
C07000
C07000
ENDCHAR
STARTCHAR 2122
ENCODING 8482
SWIDTH 945 0
DWIDTH 21 0
BBX 17 8 2 8
BITMAP
F8E380
20A380
20B680
209480
209C80
208880
208080
208080
ENDCHAR
STARTCHAR 2126
ENCODING 8486
SWIDTH 810 0
DWIDTH 18 0
BBX 16 16 1 0
BITMAP
07E0
1FF8
381C
300C
6006
6006
6006
6006
6006
300C
381C
1C38
0E70
0660
FE7F
FE7F
ENDCHAR
STARTCHAR 212E
ENCODING 8494
SWIDTH 720 0
DWIDTH 16 0
BBX 12 14 2 0
BITMAP
0F80
3FC0
70E0
6070
C030
C030
FFF0
FFF0
C000
C000
6000
7030
3FF0
0FC0
ENDCHAR
STARTCHAR 215B
ENCODING 8539
SWIDTH 990 0
DWIDTH 22 0
BBX 19 16 2 0
BITMAP
301800
F03000
303000
306000
306000
30C000
30C7C0
319FE0
319860
331860
030780
060DC0
061860
0C1860
0C1FE0
180780
ENDCHAR
STARTCHAR 215C
ENCODING 8540
SWIDTH 990 0
DWIDTH 22 0
BBX 20 16 1 0
BITMAP
7C0600
FE0C00
860C00
061800
3C1800
3C3000
0633E0
866FF0
FE6C30
78CC30
00C3C0
0186E0
018C30
030C30
030FF0
0603C0
ENDCHAR
STARTCHAR 215D
ENCODING 8541
SWIDTH 990 0
DWIDTH 22 0
BBX 20 16 1 0
BITMAP
7E0600
7E0C00
600C00
601800
7C1800
7E3000
0633E0
066FF0
FE6C30
F8CC30
00C3C0
0186E0
018C30
030C30
030FF0
0603C0
ENDCHAR
STARTCHAR 215E
ENCODING 8542
SWIDTH 990 0
DWIDTH 22 0
BBX 19 16 2 0
BITMAP
FE1800
FE3000
063000
0C6000
1C6000
18C000
30C7C0
319FE0
619860
E31860
030780
060DC0
061860
0C1860
0C1FE0
180780
ENDCHAR
STARTCHAR 2202
ENCODING 8706
SWIDTH 630 0
DWIDTH 14 0
BBX 11 16 2 0
BITMAP
1F00
3FC0
20C0
00E0
0060
0060
1F60
7FE0
60E0
C060
C060
C0C0
C0C0
E180
7F80
3E00
ENDCHAR
STARTCHAR 2206
ENCODING 8710
SWIDTH 720 0
DWIDTH 16 0
BBX 14 16 1 0
BITMAP
0780
0780
0780
0DC0
0CC0
0CC0
1860
1860
1860
3030
3030
3030
6018
6018
7FF8
FFFC
ENDCHAR
STARTCHAR 220F
ENCODING 8719
SWIDTH 810 0
DWIDTH 18 0
BBX 14 18 2 -2
BITMAP
FFFC
FFFC
3030
3030
3030
3030
3030
3030
3030
3030
3030
3030
3030
3030
3030
3030
3030
3030
ENDCHAR
STARTCHAR 2211
ENCODING 8721
SWIDTH 720 0
DWIDTH 16 0
BBX 13 18 2 -2
BITMAP
FFF8
FFF8
7000
3800
1C00
0E00
0700
0380
01C0
0180
0300
0600
0C00
1800
3000
6000
FFF8
FFF8
ENDCHAR
STARTCHAR 2212
ENCODING 8722
SWIDTH 810 0
DWIDTH 18 0
BBX 13 2 2 6
BITMAP
FFF8
FFF8
ENDCHAR
STARTCHAR 2215
ENCODING 8725
SWIDTH 360 0
DWIDTH 8 0
BBX 10 16 -1 0
BITMAP
00C0
0180
0180
0300
0300
0600
0600
0C00
0C00
1800
1800
3000
3000
6000
6000
C000
ENDCHAR
STARTCHAR 2219
ENCODING 8729
SWIDTH 360 0
DWIDTH 8 0
BBX 3 3 3 5
BITMAP
E0
E0
E0
ENDCHAR
STARTCHAR 221A
ENCODING 8730
SWIDTH 810 0
DWIDTH 18 0
BBX 18 21 1 -2
BITMAP
0000C0
000180
000180
000380
000300
000700
000600
000600
000C00
F00C00
F81C00
181800
0C1800
0C3000
063000
066000
076000
03E000
03C000
01C000
018000
ENDCHAR
STARTCHAR 221E
ENCODING 8734
SWIDTH 990 0
DWIDTH 22 0
BBX 18 11 2 1
BITMAP
1E0F00
7F3F80
61B180
C0E0C0
C0C0C0
C0C0C0
C0C0C0
C1C0C0
636180
7F3F80
3C1E00
ENDCHAR
STARTCHAR 222B
ENCODING 8747
SWIDTH 630 0
DWIDTH 14 0
BBX 11 21 2 -4
BITMAP
03E0
07E0
0E00
0C00
0C00
0C00
0C00
0C00
0C00
0C00
0C00
0C00
0C00
0C00
0C00
0C00
0C00
0C00
1C00
F800
F000
ENDCHAR
STARTCHAR 2248
ENCODING 8776
SWIDTH 810 0
DWIDTH 18 0
BBX 13 9 3 3
BITMAP
3C18
7F38
E3F0
C1E0
0000
3C18
7E38
E7F0
C1E0
ENDCHAR
STARTCHAR 2260
ENCODING 8800
SWIDTH 810 0
DWIDTH 18 0
BBX 13 15 3 -1
BITMAP
0180
0180
0380
0300
FFF8
FFF8
0300
0700
0600
FFF8
FFF8
0600
0E00
0C00
0C00
ENDCHAR
STARTCHAR 2264
ENCODING 8804
SWIDTH 810 0
DWIDTH 18 0
BBX 12 15 3 0
BITMAP
0030
00F0
03C0
0F00
3C00
F000
F000
3C00
0F00
03C0
00F0
0030
0000
FFF0
FFF0
ENDCHAR
STARTCHAR 2265
ENCODING 8805
SWIDTH 810 0
DWIDTH 18 0
BBX 12 15 3 0
BITMAP
C000
F000
3C00
0F00
03C0
00F0
00F0
03C0
0F00
3C00
F000
C000
0000
FFF0
FFF0
ENDCHAR
STARTCHAR 25A1
ENCODING 9633
SWIDTH 585 0
DWIDTH 13 0
BBX 10 10 2 0
BITMAP
FFC0
8040
8040
8040
8040
8040
8040
8040
8040
FFC0
ENDCHAR
STARTCHAR 25AA
ENCODING 9642
SWIDTH 360 0
DWIDTH 8 0
BBX 5 5 1 5
BITMAP
F8
F8
F8
F8
F8
ENDCHAR
STARTCHAR 25AB
ENCODING 9643
SWIDTH 360 0
DWIDTH 8 0
BBX 5 5 1 5
BITMAP
F8
88
88
88
F8
ENDCHAR
STARTCHAR 25CA
ENCODING 9674
SWIDTH 810 0
DWIDTH 18 0
BBX 15 15 2 -1
BITMAP
0100
0380
06C0
0C60
1830
3018
600C
C00E
600C
3018
1830
0C60
06C0
0380
0100
ENDCHAR
STARTCHAR 25CF
ENCODING 9679
SWIDTH 585 0
DWIDTH 13 0
BBX 9 9 2 2
BITMAP
3E00
7F00
FF80
FF80
FF80
FF80
FF80
7F00
3E00
ENDCHAR
STARTCHAR 25E6
ENCODING 9702
SWIDTH 360 0
DWIDTH 8 0
BBX 5 5 1 5
BITMAP
70
88
88
88
70
ENDCHAR
STARTCHAR F001
ENCODING 61441
SWIDTH 630 0
DWIDTH 14 0
BBX 11 17 1 0
BITMAP
1F00
3F60
7060
6000
6000
FFE0
FFE0
6060
6060
6060
6060
6060
6060
6060
6060
6060
6060
ENDCHAR
STARTCHAR F002
ENCODING 61442
SWIDTH 630 0
DWIDTH 14 0
BBX 11 17 1 0
BITMAP
1FE0
3FE0
7060
6060
6060
FE60
FE60
6060
6060
6060
6060
6060
6060
6060
6060
6060
6060
ENDCHAR
STARTCHAR F004
ENCODING 61444
SWIDTH 225 0
DWIDTH 5 0
BBX 4 6 1 -4
BITMAP
70
60
60
40
C0
C0
ENDCHAR
STARTCHAR F005
ENCODING 61445
SWIDTH 630 0
DWIDTH 14 0
BBX 6 4 4 -4
BITMAP
0C
0C
FC
F8
ENDCHAR
STARTCHAR F006
ENCODING 61446
SWIDTH 540 0
DWIDTH 12 0
BBX 4 10 3 6
BITMAP
30
F0
30
30
30
30
30
30
30
30
ENDCHAR
STARTCHAR F007
ENCODING 61447
SWIDTH 540 0
DWIDTH 12 0
BBX 8 10 3 6
BITMAP
7C
FE
86
06
04
0C
30
60
FF
FF
ENDCHAR
STARTCHAR F008
ENCODING 61448
SWIDTH 540 0
DWIDTH 12 0
BBX 7 10 2 6
BITMAP
7C
FE
86
06
3C
3C
06
86
FE
78
ENDCHAR
STARTCHAR F009
ENCODING 61449
SWIDTH 540 0
DWIDTH 12 0
BBX 9 10 2 6
BITMAP
0600
0E00
1E00
3600
6600
C600
FF80
FF80
0600
0600
ENDCHAR
STARTCHAR F00A
ENCODING 61450
SWIDTH 540 0
DWIDTH 12 0
BBX 7 10 2 6
BITMAP
7E
7E
60
60
7C
7E
06
06
FE
F8
ENDCHAR
STARTCHAR F00B
ENCODING 61451
SWIDTH 540 0
DWIDTH 12 0
BBX 7 10 3 6
BITMAP
FE
FE
06
0C
1C
18
30
30
60
E0
ENDCHAR
STARTCHAR F00C
ENCODING 61452
SWIDTH 540 0
DWIDTH 12 0
BBX 8 10 2 6
BITMAP
3E
FF
C3
C3
3C
6E
C3
C3
FF
3C
ENDCHAR
STARTCHAR F00D
ENCODING 61453
SWIDTH 0 0
DWIDTH 0 0
BBX 1 1 0 0
BITMAP
00
ENDCHAR
STARTCHAR FB01
ENCODING 64257
SWIDTH 630 0
DWIDTH 14 0
BBX 11 17 1 0
BITMAP
1F00
3F60
7060
6000
6000
FFE0
FFE0
6060
6060
6060
6060
6060
6060
6060
6060
6060
6060
ENDCHAR
STARTCHAR FB02
ENCODING 64258
SWIDTH 630 0
DWIDTH 14 0
BBX 11 17 1 0
BITMAP
1FE0
3FE0
7060
6060
6060
FE60
FE60
6060
6060
6060
6060
6060
6060
6060
6060
6060
6060
ENDCHAR
ENDFONT
